<svg width="1205" height="628" viewBox="0 0 1205 628" fill="none" xmlns="http://www.w3.org/2000/svg">
<rect width="1205" height="628" fill="#2B54F8"/>
<path d="M173.601 448.699H174.665L175.416 451.741L176.166 454.825H176.193L177.053 451.741L177.94 448.699H178.908L179.823 451.741L180.696 454.825H180.723L181.446 451.741L182.21 448.699H183.234L181.364 455.739H180.014L179.031 452.355L178.417 450.213H178.39L177.79 452.355L176.807 455.739H175.484L173.601 448.699ZM185.356 447.048C185.12 447.048 184.947 446.993 184.838 446.884C184.738 446.766 184.688 446.616 184.688 446.434V446.256C184.688 446.075 184.738 445.929 184.838 445.82C184.947 445.702 185.12 445.643 185.356 445.643C185.593 445.643 185.761 445.702 185.861 445.82C185.97 445.929 186.025 446.075 186.025 446.256V446.434C186.025 446.616 185.97 446.766 185.861 446.884C185.761 446.993 185.593 447.048 185.356 447.048ZM184.811 448.699H185.902V455.739H184.811V448.699ZM190.841 455.903C190.35 455.903 189.909 455.816 189.518 455.644C189.127 455.471 188.795 455.225 188.522 454.907C188.258 454.588 188.053 454.202 187.908 453.747C187.771 453.292 187.703 452.783 187.703 452.219C187.703 451.655 187.771 451.146 187.908 450.691C188.053 450.236 188.258 449.849 188.522 449.531C188.795 449.213 189.127 448.967 189.518 448.794C189.909 448.621 190.35 448.535 190.841 448.535C191.542 448.535 192.101 448.69 192.519 448.999C192.947 449.299 193.265 449.695 193.474 450.186L192.56 450.65C192.433 450.286 192.224 450.004 191.933 449.804C191.642 449.604 191.278 449.504 190.841 449.504C190.514 449.504 190.227 449.558 189.982 449.667C189.736 449.768 189.531 449.913 189.368 450.104C189.204 450.286 189.081 450.509 188.999 450.773C188.917 451.027 188.876 451.309 188.876 451.619V452.819C188.876 453.438 189.04 453.947 189.368 454.347C189.704 454.738 190.195 454.934 190.841 454.934C191.723 454.934 192.36 454.525 192.751 453.706L193.543 454.238C193.315 454.748 192.974 455.152 192.519 455.452C192.074 455.753 191.514 455.903 190.841 455.903ZM195.083 445.643H196.175V452.042H196.23L197.307 450.841L199.299 448.699H200.623L198.017 451.482L200.882 455.739H199.559L197.226 452.151L196.175 453.229V455.739H195.083V445.643ZM204.699 455.903C204.217 455.903 203.78 455.816 203.389 455.644C203.007 455.471 202.675 455.225 202.393 454.907C202.12 454.579 201.906 454.193 201.752 453.747C201.606 453.292 201.533 452.783 201.533 452.219C201.533 451.664 201.606 451.159 201.752 450.704C201.906 450.25 202.12 449.863 202.393 449.545C202.675 449.217 203.007 448.967 203.389 448.794C203.78 448.621 204.217 448.535 204.699 448.535C205.172 448.535 205.595 448.621 205.968 448.794C206.341 448.967 206.659 449.208 206.923 449.517C207.187 449.818 207.387 450.177 207.523 450.595C207.669 451.014 207.741 451.473 207.741 451.973V452.492H202.68V452.819C202.68 453.119 202.725 453.401 202.816 453.665C202.916 453.92 203.053 454.143 203.225 454.334C203.407 454.525 203.626 454.675 203.88 454.784C204.144 454.893 204.44 454.948 204.767 454.948C205.213 454.948 205.599 454.843 205.927 454.634C206.263 454.425 206.523 454.124 206.705 453.733L207.482 454.293C207.255 454.775 206.9 455.166 206.418 455.466C205.936 455.757 205.363 455.903 204.699 455.903ZM204.699 449.449C204.399 449.449 204.126 449.504 203.88 449.613C203.635 449.713 203.421 449.858 203.239 450.049C203.066 450.241 202.93 450.468 202.83 450.732C202.73 450.986 202.68 451.268 202.68 451.578V451.673H206.568V451.523C206.568 450.895 206.395 450.395 206.05 450.022C205.713 449.64 205.263 449.449 204.699 449.449ZM214.043 454.593H213.988C213.561 455.466 212.874 455.903 211.928 455.903C211.491 455.903 211.096 455.816 210.741 455.644C210.386 455.471 210.081 455.225 209.827 454.907C209.581 454.588 209.39 454.202 209.254 453.747C209.126 453.292 209.063 452.783 209.063 452.219C209.063 451.655 209.126 451.146 209.254 450.691C209.39 450.236 209.581 449.849 209.827 449.531C210.081 449.213 210.386 448.967 210.741 448.794C211.096 448.621 211.491 448.535 211.928 448.535C212.419 448.535 212.837 448.644 213.183 448.862C213.538 449.072 213.806 449.399 213.988 449.845H214.043V445.643H215.134V455.739H214.043V454.593ZM212.228 454.92C212.474 454.92 212.706 454.889 212.924 454.825C213.151 454.761 213.347 454.67 213.51 454.552C213.674 454.425 213.802 454.275 213.893 454.102C213.993 453.92 214.043 453.715 214.043 453.488V450.868C214.043 450.677 213.993 450.5 213.893 450.336C213.802 450.163 213.674 450.018 213.51 449.899C213.347 449.781 213.151 449.69 212.924 449.627C212.706 449.554 212.474 449.517 212.228 449.517C211.609 449.517 211.123 449.713 210.768 450.104C210.413 450.486 210.236 450.991 210.236 451.619V452.819C210.236 453.447 210.413 453.956 210.768 454.347C211.123 454.729 211.609 454.92 212.228 454.92ZM219.01 455.739C218.628 455.739 218.337 455.634 218.137 455.425C217.946 455.207 217.85 454.925 217.85 454.579V449.654H216.691V448.699H217.345C217.582 448.699 217.741 448.653 217.823 448.562C217.914 448.462 217.959 448.294 217.959 448.057V446.748H218.942V448.699H220.484V449.654H218.942V454.784H220.374V455.739H219.01ZM224.832 455.903C224.35 455.903 223.913 455.816 223.522 455.644C223.14 455.471 222.808 455.225 222.526 454.907C222.253 454.579 222.039 454.193 221.885 453.747C221.739 453.292 221.666 452.783 221.666 452.219C221.666 451.664 221.739 451.159 221.885 450.704C222.039 450.25 222.253 449.863 222.526 449.545C222.808 449.217 223.14 448.967 223.522 448.794C223.913 448.621 224.35 448.535 224.832 448.535C225.305 448.535 225.728 448.621 226.101 448.794C226.473 448.967 226.792 449.208 227.056 449.517C227.319 449.818 227.519 450.177 227.656 450.595C227.801 451.014 227.874 451.473 227.874 451.973V452.492H222.812V452.819C222.812 453.119 222.858 453.401 222.949 453.665C223.049 453.92 223.185 454.143 223.358 454.334C223.54 454.525 223.758 454.675 224.013 454.784C224.277 454.893 224.572 454.948 224.9 454.948C225.346 454.948 225.732 454.843 226.06 454.634C226.396 454.425 226.655 454.124 226.837 453.733L227.615 454.293C227.388 454.775 227.033 455.166 226.551 455.466C226.069 455.757 225.496 455.903 224.832 455.903ZM224.832 449.449C224.531 449.449 224.259 449.504 224.013 449.613C223.767 449.713 223.554 449.858 223.372 450.049C223.199 450.241 223.062 450.468 222.962 450.732C222.862 450.986 222.812 451.268 222.812 451.578V451.673H226.701V451.523C226.701 450.895 226.528 450.395 226.182 450.022C225.846 449.64 225.396 449.449 224.832 449.449ZM229.673 455.739V448.699H230.764V449.845H230.819C230.901 449.663 230.992 449.495 231.092 449.34C231.201 449.176 231.328 449.035 231.474 448.917C231.629 448.799 231.806 448.708 232.006 448.644C232.206 448.571 232.443 448.535 232.715 448.535C233.179 448.535 233.607 448.649 233.998 448.876C234.389 449.094 234.68 449.458 234.871 449.968H234.899C235.026 449.586 235.262 449.254 235.608 448.972C235.963 448.681 236.44 448.535 237.041 448.535C237.759 448.535 238.319 448.772 238.719 449.245C239.128 449.708 239.333 450.368 239.333 451.223V455.739H238.241V451.414C238.241 450.786 238.118 450.313 237.873 449.995C237.627 449.677 237.236 449.517 236.7 449.517C236.481 449.517 236.272 449.545 236.072 449.599C235.881 449.654 235.708 449.736 235.553 449.845C235.399 449.954 235.276 450.095 235.185 450.268C235.094 450.432 235.049 450.627 235.049 450.854V455.739H233.957V451.414C233.957 450.786 233.834 450.313 233.589 449.995C233.343 449.677 232.961 449.517 232.443 449.517C232.224 449.517 232.015 449.545 231.815 449.599C231.615 449.654 231.437 449.736 231.283 449.845C231.128 449.954 231.001 450.095 230.901 450.268C230.81 450.432 230.764 450.627 230.764 450.854V455.739H229.673ZM241.585 448.699H242.676V449.845H242.731C242.913 449.399 243.176 449.072 243.522 448.862C243.877 448.644 244.3 448.535 244.791 448.535C245.228 448.535 245.623 448.621 245.978 448.794C246.333 448.967 246.633 449.213 246.879 449.531C247.133 449.849 247.324 450.236 247.452 450.691C247.588 451.146 247.656 451.655 247.656 452.219C247.656 452.783 247.588 453.292 247.452 453.747C247.324 454.202 247.133 454.588 246.879 454.907C246.633 455.225 246.333 455.471 245.978 455.644C245.623 455.816 245.228 455.903 244.791 455.903C243.836 455.903 243.149 455.466 242.731 454.593H242.676V458.468H241.585V448.699ZM244.491 454.92C245.109 454.92 245.596 454.729 245.951 454.347C246.305 453.956 246.483 453.447 246.483 452.819V451.619C246.483 450.991 246.305 450.486 245.951 450.104C245.596 449.713 245.109 449.517 244.491 449.517C244.245 449.517 244.009 449.554 243.781 449.627C243.563 449.69 243.372 449.781 243.208 449.899C243.045 450.018 242.913 450.163 242.813 450.336C242.722 450.5 242.676 450.677 242.676 450.868V453.488C242.676 453.715 242.722 453.92 242.813 454.102C242.913 454.275 243.045 454.425 243.208 454.552C243.372 454.67 243.563 454.761 243.781 454.825C244.009 454.889 244.245 454.92 244.491 454.92ZM250.659 455.739C250.277 455.739 249.986 455.634 249.786 455.425C249.595 455.207 249.499 454.934 249.499 454.607V445.643H250.591V454.784H251.628V455.739H250.659ZM258.333 455.739C257.924 455.739 257.628 455.63 257.446 455.412C257.273 455.193 257.164 454.92 257.119 454.593H257.051C256.896 455.03 256.641 455.357 256.287 455.575C255.932 455.794 255.509 455.903 255.018 455.903C254.272 455.903 253.69 455.712 253.271 455.33C252.862 454.948 252.657 454.429 252.657 453.774C252.657 453.11 252.898 452.601 253.38 452.246C253.872 451.891 254.631 451.714 255.659 451.714H257.051V451.018C257.051 450.518 256.914 450.136 256.641 449.872C256.368 449.608 255.95 449.476 255.386 449.476C254.959 449.476 254.599 449.572 254.308 449.763C254.026 449.954 253.79 450.209 253.599 450.527L252.944 449.913C253.135 449.531 253.439 449.208 253.858 448.944C254.276 448.671 254.804 448.535 255.441 448.535C256.296 448.535 256.96 448.744 257.433 449.163C257.906 449.581 258.142 450.163 258.142 450.909V454.784H258.947V455.739H258.333ZM255.195 454.975C255.468 454.975 255.718 454.943 255.945 454.879C256.173 454.816 256.368 454.725 256.532 454.607C256.696 454.488 256.823 454.352 256.914 454.197C257.005 454.043 257.051 453.874 257.051 453.692V452.533H255.604C254.977 452.533 254.517 452.624 254.226 452.806C253.944 452.987 253.803 453.251 253.803 453.597V453.883C253.803 454.229 253.926 454.497 254.172 454.688C254.426 454.879 254.767 454.975 255.195 454.975ZM262.06 455.739C261.678 455.739 261.387 455.634 261.187 455.425C260.996 455.207 260.901 454.925 260.901 454.579V449.654H259.741V448.699H260.396C260.632 448.699 260.791 448.653 260.873 448.562C260.964 448.462 261.01 448.294 261.01 448.057V446.748H261.992V448.699H263.534V449.654H261.992V454.784H263.425V455.739H262.06ZM267.882 455.903C267.4 455.903 266.963 455.816 266.572 455.644C266.19 455.471 265.858 455.225 265.576 454.907C265.303 454.579 265.089 454.193 264.935 453.747C264.789 453.292 264.717 452.783 264.717 452.219C264.717 451.664 264.789 451.159 264.935 450.704C265.089 450.25 265.303 449.863 265.576 449.545C265.858 449.217 266.19 448.967 266.572 448.794C266.963 448.621 267.4 448.535 267.882 448.535C268.355 448.535 268.778 448.621 269.151 448.794C269.524 448.967 269.842 449.208 270.106 449.517C270.37 449.818 270.57 450.177 270.706 450.595C270.852 451.014 270.925 451.473 270.925 451.973V452.492H265.863V452.819C265.863 453.119 265.908 453.401 265.999 453.665C266.099 453.92 266.236 454.143 266.408 454.334C266.59 454.525 266.809 454.675 267.063 454.784C267.327 454.893 267.623 454.948 267.95 454.948C268.396 454.948 268.782 454.843 269.11 454.634C269.446 454.425 269.706 454.124 269.888 453.733L270.665 454.293C270.438 454.775 270.083 455.166 269.601 455.466C269.119 455.757 268.546 455.903 267.882 455.903ZM267.882 449.449C267.582 449.449 267.309 449.504 267.063 449.613C266.818 449.713 266.604 449.858 266.422 450.049C266.249 450.241 266.113 450.468 266.013 450.732C265.913 450.986 265.863 451.268 265.863 451.578V451.673H269.751V451.523C269.751 450.895 269.578 450.395 269.233 450.022C268.896 449.64 268.446 449.449 267.882 449.449ZM274.838 455.903C274.183 455.903 273.633 455.78 273.187 455.534C272.75 455.28 272.373 454.943 272.055 454.525L272.832 453.897C273.105 454.243 273.41 454.511 273.746 454.702C274.083 454.884 274.474 454.975 274.92 454.975C275.384 454.975 275.743 454.875 275.998 454.675C276.262 454.475 276.393 454.193 276.393 453.829C276.393 453.556 276.302 453.324 276.121 453.133C275.948 452.933 275.629 452.796 275.165 452.724L274.606 452.642C274.279 452.596 273.978 452.528 273.706 452.437C273.433 452.337 273.192 452.21 272.982 452.055C272.782 451.891 272.623 451.691 272.505 451.455C272.396 451.218 272.341 450.936 272.341 450.609C272.341 450.263 272.405 449.963 272.532 449.708C272.66 449.445 272.832 449.226 273.051 449.053C273.278 448.881 273.546 448.753 273.856 448.671C274.165 448.581 274.497 448.535 274.852 448.535C275.425 448.535 275.902 448.635 276.284 448.835C276.675 449.035 277.016 449.313 277.308 449.667L276.584 450.322C276.43 450.104 276.202 449.909 275.902 449.736C275.602 449.554 275.225 449.463 274.77 449.463C274.315 449.463 273.969 449.563 273.733 449.763C273.505 449.954 273.392 450.218 273.392 450.554C273.392 450.9 273.505 451.15 273.733 451.305C273.969 451.459 274.306 451.573 274.742 451.646L275.288 451.728C276.07 451.846 276.625 452.073 276.953 452.41C277.28 452.737 277.444 453.169 277.444 453.706C277.444 454.388 277.212 454.925 276.748 455.316C276.284 455.707 275.648 455.903 274.838 455.903ZM280.001 455.903C279.71 455.903 279.496 455.83 279.36 455.684C279.233 455.539 279.169 455.348 279.169 455.111V454.934C279.169 454.698 279.233 454.507 279.36 454.361C279.496 454.215 279.71 454.143 280.001 454.143C280.292 454.143 280.501 454.215 280.629 454.361C280.765 454.507 280.833 454.698 280.833 454.934V455.111C280.833 455.348 280.765 455.539 280.629 455.684C280.501 455.83 280.292 455.903 280.001 455.903ZM285.509 455.903C285.018 455.903 284.577 455.816 284.186 455.644C283.795 455.471 283.463 455.225 283.19 454.907C282.926 454.588 282.721 454.202 282.576 453.747C282.439 453.292 282.371 452.783 282.371 452.219C282.371 451.655 282.439 451.146 282.576 450.691C282.721 450.236 282.926 449.849 283.19 449.531C283.463 449.213 283.795 448.967 284.186 448.794C284.577 448.621 285.018 448.535 285.509 448.535C286.21 448.535 286.769 448.69 287.187 448.999C287.615 449.299 287.933 449.695 288.142 450.186L287.228 450.65C287.101 450.286 286.892 450.004 286.601 449.804C286.31 449.604 285.946 449.504 285.509 449.504C285.182 449.504 284.895 449.558 284.65 449.667C284.404 449.768 284.199 449.913 284.036 450.104C283.872 450.286 283.749 450.509 283.667 450.773C283.585 451.027 283.544 451.309 283.544 451.619V452.819C283.544 453.438 283.708 453.947 284.036 454.347C284.372 454.738 284.863 454.934 285.509 454.934C286.391 454.934 287.028 454.525 287.419 453.706L288.211 454.238C287.983 454.748 287.642 455.152 287.187 455.452C286.742 455.753 286.182 455.903 285.509 455.903ZM292.332 455.903C291.859 455.903 291.427 455.816 291.036 455.644C290.645 455.471 290.308 455.225 290.026 454.907C289.753 454.579 289.54 454.193 289.385 453.747C289.23 453.292 289.153 452.783 289.153 452.219C289.153 451.664 289.23 451.159 289.385 450.704C289.54 450.25 289.753 449.863 290.026 449.545C290.308 449.217 290.645 448.967 291.036 448.794C291.427 448.621 291.859 448.535 292.332 448.535C292.805 448.535 293.233 448.621 293.615 448.794C294.006 448.967 294.342 449.217 294.624 449.545C294.906 449.863 295.125 450.25 295.279 450.704C295.434 451.159 295.511 451.664 295.511 452.219C295.511 452.783 295.434 453.292 295.279 453.747C295.125 454.193 294.906 454.579 294.624 454.907C294.342 455.225 294.006 455.471 293.615 455.644C293.233 455.816 292.805 455.903 292.332 455.903ZM292.332 454.934C292.923 454.934 293.405 454.752 293.778 454.388C294.151 454.024 294.338 453.47 294.338 452.724V451.714C294.338 450.968 294.151 450.413 293.778 450.049C293.405 449.686 292.923 449.504 292.332 449.504C291.741 449.504 291.259 449.686 290.886 450.049C290.513 450.413 290.326 450.968 290.326 451.714V452.724C290.326 453.47 290.513 454.024 290.886 454.388C291.259 454.752 291.741 454.934 292.332 454.934ZM297.306 455.739V448.699H298.398V449.845H298.452C298.534 449.663 298.625 449.495 298.725 449.34C298.834 449.176 298.962 449.035 299.107 448.917C299.262 448.799 299.439 448.708 299.639 448.644C299.839 448.571 300.076 448.535 300.349 448.535C300.813 448.535 301.24 448.649 301.631 448.876C302.022 449.094 302.314 449.458 302.505 449.968H302.532C302.659 449.586 302.896 449.254 303.241 448.972C303.596 448.681 304.074 448.535 304.674 448.535C305.393 448.535 305.952 448.772 306.352 449.245C306.761 449.708 306.966 450.368 306.966 451.223V455.739H305.875V451.414C305.875 450.786 305.752 450.313 305.506 449.995C305.261 449.677 304.869 449.517 304.333 449.517C304.115 449.517 303.905 449.545 303.705 449.599C303.514 449.654 303.341 449.736 303.187 449.845C303.032 449.954 302.909 450.095 302.818 450.268C302.727 450.432 302.682 450.627 302.682 450.854V455.739H301.59V451.414C301.59 450.786 301.468 450.313 301.222 449.995C300.976 449.677 300.594 449.517 300.076 449.517C299.858 449.517 299.648 449.545 299.448 449.599C299.248 449.654 299.071 449.736 298.916 449.845C298.762 449.954 298.634 450.095 298.534 450.268C298.443 450.432 298.398 450.627 298.398 450.854V455.739H297.306Z" fill="white"/>
<path d="M175.128 220.202H191.143L196.855 243.945L200.887 261.865H201.335L206.039 243.945L212.758 220.202H227.878L234.71 243.945L239.525 261.865H239.973L244.005 243.945L249.717 220.202H265.06L248.821 279H231.462L224.294 254.137L220.15 238.906H219.814L215.782 254.137L208.615 279H191.591L175.128 220.202ZM276.016 213.931C272.656 213.931 270.192 213.184 268.624 211.691C267.131 210.123 266.384 208.144 266.384 205.755V203.291C266.384 200.902 267.131 198.961 268.624 197.467C270.192 195.899 272.656 195.115 276.016 195.115C279.376 195.115 281.802 195.899 283.295 197.467C284.863 198.961 285.647 200.902 285.647 203.291V205.755C285.647 208.144 284.863 210.123 283.295 211.691C281.802 213.184 279.376 213.931 276.016 213.931ZM267.728 220.202H284.303V279H267.728V220.202ZM316.349 280.344C311.944 280.344 308.024 279.635 304.59 278.216C301.155 276.723 298.28 274.67 295.966 272.056C293.651 269.368 291.897 266.121 290.702 262.313C289.507 258.505 288.91 254.249 288.91 249.545C288.91 244.841 289.507 240.623 290.702 236.89C291.897 233.082 293.651 229.834 295.966 227.146C298.28 224.458 301.155 222.405 304.59 220.986C308.024 219.568 311.944 218.858 316.349 218.858C322.322 218.858 327.287 220.202 331.244 222.89C335.276 225.578 338.151 229.349 339.868 234.202L326.429 240.026C325.906 237.786 324.823 235.882 323.181 234.314C321.538 232.746 319.261 231.962 316.349 231.962C312.989 231.962 310.451 233.082 308.733 235.322C307.016 237.487 306.157 240.436 306.157 244.169V255.145C306.157 258.878 307.016 261.827 308.733 263.993C310.451 266.158 312.989 267.24 316.349 267.24C319.336 267.24 321.687 266.456 323.405 264.889C325.197 263.246 326.503 261.118 327.325 258.505L340.204 264.105C338.263 269.704 335.239 273.811 331.132 276.424C327.101 279.037 322.173 280.344 316.349 280.344ZM343.295 196.123H359.871V245.065H360.543L367.822 234.202L379.582 220.202H397.949L378.35 242.713L400.189 279H380.478L367.262 254.137L359.871 262.425V279H343.295V196.123ZM422.23 280.344C417.751 280.344 413.756 279.635 410.247 278.216C406.738 276.723 403.751 274.67 401.287 272.056C398.898 269.368 397.069 266.121 395.799 262.313C394.605 258.505 394.007 254.249 394.007 249.545C394.007 244.916 394.605 240.735 395.799 237.002C396.994 233.194 398.749 229.946 401.063 227.258C403.452 224.57 406.364 222.517 409.799 221.098C413.233 219.605 417.153 218.858 421.558 218.858C426.412 218.858 430.555 219.68 433.99 221.322C437.499 222.965 440.336 225.167 442.502 227.93C444.741 230.693 446.347 233.903 447.317 237.562C448.363 241.146 448.885 244.916 448.885 248.873V253.801H411.143V254.697C411.143 258.579 412.188 261.678 414.279 263.993C416.369 266.233 419.654 267.352 424.134 267.352C427.569 267.352 430.369 266.68 432.534 265.337C434.699 263.918 436.715 262.238 438.582 260.297L446.869 270.6C444.256 273.662 440.822 276.051 436.566 277.768C432.385 279.485 427.606 280.344 422.23 280.344ZM421.894 231.066C418.534 231.066 415.884 232.186 413.943 234.426C412.076 236.591 411.143 239.503 411.143 243.161V244.057H431.75V243.049C431.75 239.466 430.929 236.591 429.286 234.426C427.718 232.186 425.254 231.066 421.894 231.066ZM489.486 269.144H488.926C488.478 270.712 487.769 272.206 486.798 273.624C485.828 274.968 484.633 276.163 483.215 277.208C481.871 278.179 480.303 278.925 478.511 279.448C476.793 280.045 475.002 280.344 473.135 280.344C465.669 280.344 460.031 277.731 456.224 272.504C452.416 267.203 450.512 259.55 450.512 249.545C450.512 239.54 452.416 231.925 456.224 226.698C460.031 221.472 465.669 218.858 473.135 218.858C476.943 218.858 480.303 219.904 483.215 221.994C486.201 224.085 488.105 226.773 488.926 230.058H489.486V196.123H506.062V279H489.486V269.144ZM478.623 266.904C481.759 266.904 484.334 266.158 486.35 264.665C488.441 263.097 489.486 260.969 489.486 258.281V240.922C489.486 238.234 488.441 236.143 486.35 234.65C484.334 233.082 481.759 232.298 478.623 232.298C475.487 232.298 472.874 233.418 470.783 235.658C468.767 237.823 467.759 240.772 467.759 244.505V254.697C467.759 258.43 468.767 261.417 470.783 263.657C472.874 265.822 475.487 266.904 478.623 266.904ZM535.001 279C529.252 279 524.884 277.544 521.898 274.632C518.986 271.72 517.53 267.464 517.53 261.865V233.082H509.242V220.202H513.386C515.626 220.202 517.156 219.68 517.978 218.634C518.799 217.514 519.21 215.947 519.21 213.931V204.299H534.105V220.202H545.753V233.082H534.105V266.121H544.857V279H535.001ZM574.189 280.344C569.709 280.344 565.715 279.635 562.206 278.216C558.696 276.723 555.71 274.67 553.246 272.056C550.857 269.368 549.027 266.121 547.758 262.313C546.563 258.505 545.966 254.249 545.966 249.545C545.966 244.916 546.563 240.735 547.758 237.002C548.953 233.194 550.707 229.946 553.022 227.258C555.411 224.57 558.323 222.517 561.758 221.098C565.192 219.605 569.112 218.858 573.517 218.858C578.37 218.858 582.514 219.68 585.949 221.322C589.458 222.965 592.295 225.167 594.46 227.93C596.7 230.693 598.305 233.903 599.276 237.562C600.321 241.146 600.844 244.916 600.844 248.873V253.801H563.101V254.697C563.101 258.579 564.147 261.678 566.237 263.993C568.328 266.233 571.613 267.352 576.093 267.352C579.527 267.352 582.327 266.68 584.493 265.337C586.658 263.918 588.674 262.238 590.54 260.297L598.828 270.6C596.215 273.662 592.78 276.051 588.524 277.768C584.343 279.485 579.565 280.344 574.189 280.344ZM573.853 231.066C570.493 231.066 567.843 232.186 565.901 234.426C564.035 236.591 563.101 239.503 563.101 243.161V244.057H583.709V243.049C583.709 239.466 582.887 236.591 581.245 234.426C579.677 232.186 577.213 231.066 573.853 231.066ZM605.382 279V220.202H621.958V230.17H622.63C623.675 227.034 625.467 224.384 628.006 222.218C630.544 219.978 634.016 218.858 638.421 218.858C642.453 218.858 645.887 219.866 648.725 221.882C651.562 223.898 653.615 226.847 654.884 230.73H655.22C655.743 229.087 656.527 227.557 657.572 226.138C658.692 224.645 660.036 223.376 661.604 222.33C663.172 221.285 664.927 220.464 666.868 219.866C668.809 219.194 670.9 218.858 673.14 218.858C678.814 218.858 683.145 220.874 686.131 224.906C689.192 228.938 690.723 234.687 690.723 242.153V279H674.148V243.497C674.148 236.031 671.46 232.298 666.084 232.298C663.62 232.298 661.38 233.007 659.364 234.426C657.348 235.844 656.34 238.01 656.34 240.922V279H639.765V243.497C639.765 236.031 637.077 232.298 631.701 232.298C630.507 232.298 629.312 232.485 628.118 232.858C626.998 233.156 625.952 233.679 624.982 234.426C624.086 235.172 623.339 236.106 622.742 237.226C622.219 238.271 621.958 239.503 621.958 240.922V279H605.382ZM698.289 220.202H714.864V230.058H715.424C716.245 226.773 718.112 224.085 721.024 221.994C724.01 219.904 727.408 218.858 731.216 218.858C738.682 218.858 744.319 221.472 748.127 226.698C751.935 231.925 753.839 239.54 753.839 249.545C753.839 259.55 751.935 267.203 748.127 272.504C744.319 277.731 738.682 280.344 731.216 280.344C729.274 280.344 727.445 280.045 725.728 279.448C724.01 278.925 722.443 278.179 721.024 277.208C719.68 276.163 718.523 274.968 717.552 273.624C716.581 272.206 715.872 270.712 715.424 269.144H714.864V301.399H698.289V220.202ZM725.728 266.904C728.864 266.904 731.44 265.822 733.455 263.657C735.546 261.417 736.591 258.43 736.591 254.697V244.505C736.591 240.772 735.546 237.823 733.455 235.658C731.44 233.418 728.864 232.298 725.728 232.298C722.592 232.298 719.979 233.082 717.888 234.65C715.872 236.143 714.864 238.234 714.864 240.922V258.281C714.864 260.969 715.872 263.097 717.888 264.665C719.979 266.158 722.592 266.904 725.728 266.904ZM775.722 279C770.048 279 765.867 277.619 763.179 274.856C760.566 272.094 759.259 268.099 759.259 262.873V196.123H775.834V266.121H783.226V279H775.722ZM829.451 279C826.464 279 823.963 278.067 821.947 276.2C820.006 274.334 818.774 271.832 818.251 268.696H817.579C816.683 272.504 814.704 275.416 811.643 277.432C808.582 279.373 804.811 280.344 800.332 280.344C794.433 280.344 789.916 278.776 786.78 275.64C783.644 272.504 782.076 268.36 782.076 263.209C782.076 257.012 784.316 252.42 788.796 249.433C793.351 246.372 799.51 244.841 807.275 244.841H816.571V241.146C816.571 238.308 815.824 236.068 814.331 234.426C812.838 232.709 810.337 231.85 806.827 231.85C803.542 231.85 800.929 232.559 798.988 233.978C797.046 235.396 795.441 237.002 794.172 238.794L784.316 230.058C786.706 226.549 789.692 223.824 793.276 221.882C796.934 219.866 801.862 218.858 808.059 218.858C816.422 218.858 822.693 220.688 826.875 224.346C831.056 228.005 833.146 233.343 833.146 240.362V266.121H838.634V279H829.451ZM806.491 268.808C809.254 268.808 811.606 268.211 813.547 267.016C815.563 265.822 816.571 263.881 816.571 261.193V254.249H808.507C802.012 254.249 798.764 256.452 798.764 260.857V262.537C798.764 264.702 799.436 266.307 800.78 267.352C802.124 268.323 804.028 268.808 806.491 268.808ZM862.543 279C856.793 279 852.426 277.544 849.439 274.632C846.527 271.72 845.071 267.464 845.071 261.865V233.082H836.784V220.202H840.927C843.167 220.202 844.698 219.68 845.519 218.634C846.341 217.514 846.751 215.947 846.751 213.931V204.299H861.647V220.202H873.294V233.082H861.647V266.121H872.398V279H862.543ZM901.73 280.344C897.251 280.344 893.256 279.635 889.747 278.216C886.238 276.723 883.251 274.67 880.787 272.056C878.398 269.368 876.569 266.121 875.3 262.313C874.105 258.505 873.508 254.249 873.508 249.545C873.508 244.916 874.105 240.735 875.3 237.002C876.494 233.194 878.249 229.946 880.563 227.258C882.953 224.57 885.864 222.517 889.299 221.098C892.734 219.605 896.653 218.858 901.059 218.858C905.912 218.858 910.055 219.68 913.49 221.322C916.999 222.965 919.836 225.167 922.002 227.93C924.242 230.693 925.847 233.903 926.817 237.562C927.863 241.146 928.385 244.916 928.385 248.873V253.801H890.643V254.697C890.643 258.579 891.688 261.678 893.779 263.993C895.869 266.233 899.155 267.352 903.634 267.352C907.069 267.352 909.869 266.68 912.034 265.337C914.199 263.918 916.215 262.238 918.082 260.297L926.37 270.6C923.756 273.662 920.322 276.051 916.066 277.768C911.885 279.485 907.106 280.344 901.73 280.344ZM901.395 231.066C898.035 231.066 895.384 232.186 893.443 234.426C891.576 236.591 890.643 239.503 890.643 243.161V244.057H911.25V243.049C911.25 239.466 910.429 236.591 908.786 234.426C907.218 232.186 904.754 231.066 901.395 231.066ZM952.859 280.344C947.185 280.344 942.406 279.448 938.524 277.656C934.641 275.789 931.169 273.176 928.108 269.816L937.852 259.961C939.942 262.275 942.257 264.105 944.795 265.449C947.334 266.792 950.209 267.464 953.419 267.464C956.704 267.464 958.981 266.979 960.251 266.009C961.52 264.963 962.155 263.582 962.155 261.865C962.155 259.102 960.176 257.46 956.219 256.937L949.835 256.153C936.62 254.51 930.012 248.463 930.012 238.01C930.012 235.172 930.535 232.597 931.58 230.282C932.7 227.893 934.23 225.877 936.172 224.234C938.188 222.517 940.577 221.21 943.339 220.314C946.177 219.344 949.35 218.858 952.859 218.858C955.92 218.858 958.608 219.082 960.923 219.53C963.312 219.904 965.403 220.501 967.194 221.322C969.061 222.069 970.741 223.04 972.234 224.234C973.802 225.354 975.333 226.623 976.826 228.042L967.306 237.786C965.44 235.919 963.312 234.463 960.923 233.418C958.608 232.298 956.219 231.738 953.755 231.738C950.918 231.738 948.902 232.186 947.707 233.082C946.513 233.978 945.915 235.172 945.915 236.666C945.915 238.234 946.326 239.466 947.147 240.362C948.043 241.183 949.686 241.78 952.075 242.153L958.683 243.049C971.6 244.767 978.058 250.665 978.058 260.745C978.058 263.582 977.461 266.195 976.266 268.584C975.072 270.974 973.354 273.064 971.114 274.856C968.949 276.573 966.299 277.917 963.163 278.888C960.101 279.859 956.667 280.344 952.859 280.344Z" fill="white"/>
<path d="M188.574 316.477V335.557C188.574 336.639 188.389 337.623 188.02 338.509C187.676 339.395 187.171 340.145 186.507 340.76C185.867 341.375 185.092 341.855 184.182 342.199C183.272 342.519 182.275 342.679 181.193 342.679C179.2 342.679 177.588 342.15 176.358 341.092C175.153 340.01 174.378 338.583 174.033 336.811L176.838 336.147C177.084 337.254 177.552 338.165 178.24 338.878C178.929 339.567 179.938 339.911 181.267 339.911C182.595 339.911 183.628 339.505 184.367 338.694C185.105 337.882 185.474 336.651 185.474 335.003V319.208H176.617V316.477H188.574ZM208.789 342.236C207.681 342.236 206.882 341.941 206.39 341.351C205.922 340.76 205.627 340.022 205.504 339.136H205.32C204.901 340.317 204.212 341.203 203.253 341.793C202.293 342.384 201.149 342.679 199.821 342.679C197.803 342.679 196.229 342.163 195.097 341.129C193.99 340.096 193.436 338.694 193.436 336.922C193.436 335.126 194.088 333.748 195.392 332.789C196.721 331.829 198.775 331.35 201.555 331.35H205.32V329.467C205.32 328.114 204.95 327.081 204.212 326.367C203.474 325.654 202.343 325.297 200.817 325.297C199.661 325.297 198.689 325.556 197.902 326.072C197.139 326.589 196.499 327.278 195.983 328.139L194.211 326.478C194.728 325.445 195.552 324.571 196.684 323.858C197.816 323.12 199.243 322.751 200.965 322.751C203.277 322.751 205.073 323.317 206.353 324.448C207.632 325.58 208.272 327.155 208.272 329.172V339.653H210.449V342.236H208.789ZM200.301 340.17C201.039 340.17 201.715 340.084 202.33 339.911C202.945 339.739 203.474 339.493 203.917 339.173C204.36 338.853 204.704 338.484 204.95 338.066C205.196 337.648 205.32 337.193 205.32 336.701V333.564H201.408C199.71 333.564 198.468 333.81 197.68 334.302C196.918 334.794 196.536 335.507 196.536 336.442V337.217C196.536 338.152 196.868 338.878 197.533 339.395C198.222 339.911 199.144 340.17 200.301 340.17ZM214.663 342.236V323.194H217.615V326.294H217.763C217.984 325.802 218.23 325.346 218.501 324.928C218.796 324.485 219.141 324.104 219.534 323.784C219.953 323.464 220.432 323.218 220.974 323.046C221.515 322.849 222.154 322.751 222.893 322.751C224.147 322.751 225.304 323.058 226.362 323.673C227.42 324.264 228.207 325.248 228.723 326.626H228.797C229.142 325.592 229.781 324.694 230.716 323.932C231.676 323.145 232.967 322.751 234.591 322.751C236.535 322.751 238.048 323.391 239.13 324.67C240.238 325.925 240.791 327.708 240.791 330.021V342.236H237.839V330.538C237.839 328.84 237.507 327.561 236.842 326.7C236.178 325.839 235.12 325.408 233.669 325.408C233.078 325.408 232.512 325.482 231.971 325.629C231.454 325.777 230.987 325.998 230.569 326.294C230.15 326.589 229.818 326.97 229.572 327.438C229.326 327.881 229.203 328.41 229.203 329.025V342.236H226.251V330.538C226.251 328.84 225.919 327.561 225.254 326.7C224.59 325.839 223.557 325.408 222.154 325.408C221.564 325.408 220.998 325.482 220.457 325.629C219.916 325.777 219.436 325.998 219.018 326.294C218.599 326.589 218.255 326.97 217.984 327.438C217.738 327.881 217.615 328.41 217.615 329.025V342.236H214.663ZM252.602 342.679C250.831 342.679 249.342 342.347 248.137 341.683C246.956 340.994 245.935 340.084 245.074 338.952L247.177 337.254C247.915 338.189 248.74 338.915 249.65 339.432C250.56 339.924 251.618 340.17 252.824 340.17C254.078 340.17 255.05 339.899 255.739 339.358C256.453 338.817 256.809 338.054 256.809 337.07C256.809 336.332 256.563 335.704 256.071 335.188C255.604 334.646 254.743 334.277 253.488 334.08L251.975 333.859C251.089 333.736 250.277 333.552 249.539 333.305C248.801 333.035 248.149 332.69 247.583 332.272C247.042 331.829 246.611 331.288 246.292 330.648C245.996 330.009 245.849 329.246 245.849 328.36C245.849 327.425 246.021 326.614 246.365 325.925C246.71 325.211 247.177 324.621 247.768 324.153C248.383 323.686 249.109 323.341 249.945 323.12C250.782 322.874 251.68 322.751 252.639 322.751C254.189 322.751 255.481 323.021 256.514 323.563C257.572 324.104 258.495 324.854 259.282 325.814L257.326 327.585C256.908 326.995 256.293 326.466 255.481 325.998C254.669 325.506 253.648 325.26 252.418 325.26C251.188 325.26 250.253 325.531 249.613 326.072C248.998 326.589 248.69 327.302 248.69 328.213C248.69 329.148 248.998 329.824 249.613 330.242C250.253 330.661 251.163 330.968 252.344 331.165L253.82 331.386C255.936 331.706 257.437 332.321 258.322 333.232C259.208 334.117 259.651 335.286 259.651 336.738C259.651 338.583 259.024 340.034 257.769 341.092C256.514 342.15 254.792 342.679 252.602 342.679ZM268.821 342.236C267.787 342.236 267 341.953 266.459 341.388C265.942 340.797 265.684 340.034 265.684 339.099V325.777H262.547V323.194H264.318C264.958 323.194 265.388 323.071 265.61 322.825C265.856 322.554 265.979 322.099 265.979 321.459V317.916H268.636V323.194H272.806V325.777H268.636V339.653H272.511V342.236H268.821ZM291.391 342.236C290.284 342.236 289.484 341.941 288.992 341.351C288.524 340.76 288.229 340.022 288.106 339.136H287.922C287.503 340.317 286.815 341.203 285.855 341.793C284.896 342.384 283.752 342.679 282.423 342.679C280.406 342.679 278.831 342.163 277.699 341.129C276.592 340.096 276.039 338.694 276.039 336.922C276.039 335.126 276.69 333.748 277.994 332.789C279.323 331.829 281.377 331.35 284.157 331.35H287.922V329.467C287.922 328.114 287.553 327.081 286.815 326.367C286.076 325.654 284.945 325.297 283.419 325.297C282.263 325.297 281.291 325.556 280.504 326.072C279.741 326.589 279.102 327.278 278.585 328.139L276.814 326.478C277.33 325.445 278.154 324.571 279.286 323.858C280.418 323.12 281.845 322.751 283.567 322.751C285.88 322.751 287.676 323.317 288.955 324.448C290.234 325.58 290.874 327.155 290.874 329.172V339.653H293.051V342.236H291.391ZM282.903 340.17C283.641 340.17 284.317 340.084 284.932 339.911C285.548 339.739 286.076 339.493 286.519 339.173C286.962 338.853 287.307 338.484 287.553 338.066C287.799 337.648 287.922 337.193 287.922 336.701V333.564H284.01C282.312 333.564 281.07 333.81 280.283 334.302C279.52 334.794 279.138 335.507 279.138 336.442V337.217C279.138 338.152 279.471 338.878 280.135 339.395C280.824 339.911 281.746 340.17 282.903 340.17ZM304.351 342.679C303.022 342.679 301.829 342.445 300.771 341.978C299.713 341.511 298.815 340.846 298.077 339.985C297.364 339.124 296.81 338.078 296.416 336.848C296.047 335.618 295.863 334.24 295.863 332.715C295.863 331.19 296.047 329.812 296.416 328.582C296.81 327.352 297.364 326.306 298.077 325.445C298.815 324.584 299.713 323.919 300.771 323.452C301.829 322.985 303.022 322.751 304.351 322.751C306.245 322.751 307.758 323.169 308.89 324.006C310.046 324.818 310.907 325.888 311.473 327.216L309.001 328.471C308.656 327.487 308.09 326.724 307.303 326.183C306.516 325.642 305.532 325.371 304.351 325.371C303.465 325.371 302.69 325.519 302.026 325.814C301.361 326.085 300.808 326.478 300.365 326.995C299.922 327.487 299.59 328.09 299.369 328.803C299.147 329.492 299.037 330.255 299.037 331.091V334.339C299.037 336.012 299.479 337.39 300.365 338.472C301.275 339.53 302.604 340.059 304.351 340.059C306.737 340.059 308.459 338.952 309.517 336.738L311.658 338.177C311.043 339.555 310.12 340.649 308.89 341.461C307.684 342.273 306.171 342.679 304.351 342.679ZM315.825 314.927H318.778V332.235H318.925L321.841 328.988L327.229 323.194H330.809L323.76 330.722L331.51 342.236H327.93L321.619 332.53L318.778 335.446V342.236H315.825V314.927ZM358.917 339.21C358.647 339.53 358.302 339.899 357.884 340.317C357.466 340.711 356.949 341.08 356.334 341.424C355.744 341.769 355.03 342.064 354.194 342.31C353.382 342.556 352.459 342.679 351.426 342.679C350.147 342.679 349.015 342.495 348.031 342.126C347.047 341.757 346.222 341.252 345.558 340.613C344.894 339.948 344.39 339.186 344.045 338.324C343.701 337.463 343.528 336.541 343.528 335.557C343.528 334.597 343.676 333.748 343.971 333.01C344.266 332.272 344.66 331.62 345.152 331.054C345.669 330.464 346.235 329.947 346.85 329.504C347.489 329.061 348.141 328.656 348.806 328.287C347.92 327.352 347.207 326.404 346.665 325.445C346.149 324.461 345.89 323.391 345.89 322.234C345.89 321.373 346.05 320.561 346.37 319.799C346.69 319.036 347.133 318.384 347.699 317.843C348.289 317.277 348.99 316.834 349.802 316.514C350.639 316.194 351.561 316.034 352.57 316.034C353.48 316.034 354.317 316.17 355.079 316.44C355.842 316.711 356.494 317.092 357.035 317.584C357.577 318.052 357.995 318.63 358.29 319.319C358.61 320.008 358.77 320.758 358.77 321.57C358.77 322.431 358.61 323.206 358.29 323.895C357.995 324.559 357.577 325.174 357.035 325.74C356.494 326.306 355.867 326.835 355.153 327.327C354.44 327.794 353.677 328.25 352.865 328.692L358.659 334.929C359.028 333.994 359.311 332.998 359.508 331.94C359.705 330.882 359.828 329.8 359.877 328.692H364.896V331.202H362.276C362.104 332.284 361.87 333.305 361.575 334.265C361.279 335.2 360.923 336.073 360.504 336.885L365.523 342.236H361.685L358.917 339.21ZM352.422 318.507C351.364 318.507 350.491 318.839 349.802 319.503C349.138 320.168 348.806 320.992 348.806 321.976V322.419C348.806 323.157 349.027 323.907 349.47 324.67C349.937 325.408 350.54 326.195 351.278 327.032C351.869 326.712 352.435 326.38 352.976 326.035C353.542 325.666 354.034 325.273 354.452 324.854C354.895 324.436 355.252 324.006 355.522 323.563C355.793 323.095 355.928 322.603 355.928 322.087V321.644C355.928 320.635 355.572 319.86 354.858 319.319C354.169 318.777 353.357 318.507 352.422 318.507ZM351.684 340.096C352.939 340.096 354.022 339.862 354.932 339.395C355.842 338.903 356.617 338.251 357.257 337.439L350.356 329.984C349.864 330.255 349.384 330.538 348.916 330.833C348.474 331.128 348.08 331.485 347.735 331.903C347.391 332.297 347.108 332.764 346.887 333.305C346.69 333.822 346.591 334.437 346.591 335.151V335.704C346.591 337.057 347.047 338.128 347.957 338.915C348.892 339.702 350.134 340.096 351.684 340.096ZM387.321 319.208V342.236H384.221V319.208H376.029V316.477H395.514V319.208H387.321ZM410.717 342.236C409.61 342.236 408.81 341.941 408.318 341.351C407.851 340.76 407.556 340.022 407.433 339.136H407.248C406.83 340.317 406.141 341.203 405.181 341.793C404.222 342.384 403.078 342.679 401.749 342.679C399.732 342.679 398.157 342.163 397.025 341.129C395.918 340.096 395.365 338.694 395.365 336.922C395.365 335.126 396.017 333.748 397.321 332.789C398.649 331.829 400.704 331.35 403.484 331.35H407.248V329.467C407.248 328.114 406.879 327.081 406.141 326.367C405.403 325.654 404.271 325.297 402.746 325.297C401.589 325.297 400.618 325.556 399.83 326.072C399.068 326.589 398.428 327.278 397.911 328.139L396.14 326.478C396.656 325.445 397.481 324.571 398.612 323.858C399.744 323.12 401.171 322.751 402.893 322.751C405.206 322.751 407.002 323.317 408.281 324.448C409.561 325.58 410.2 327.155 410.2 329.172V339.653H412.378V342.236H410.717ZM402.229 340.17C402.967 340.17 403.644 340.084 404.259 339.911C404.874 339.739 405.403 339.493 405.846 339.173C406.288 338.853 406.633 338.484 406.879 338.066C407.125 337.648 407.248 337.193 407.248 336.701V333.564H403.336C401.639 333.564 400.396 333.81 399.609 334.302C398.846 334.794 398.465 335.507 398.465 336.442V337.217C398.465 338.152 398.797 338.878 399.461 339.395C400.15 339.911 401.073 340.17 402.229 340.17ZM418.068 318.728C417.428 318.728 416.96 318.581 416.665 318.285C416.395 317.966 416.259 317.56 416.259 317.068V316.588C416.259 316.096 416.395 315.702 416.665 315.407C416.96 315.087 417.428 314.927 418.068 314.927C418.707 314.927 419.162 315.087 419.433 315.407C419.728 315.702 419.876 316.096 419.876 316.588V317.068C419.876 317.56 419.728 317.966 419.433 318.285C419.162 318.581 418.707 318.728 418.068 318.728ZM416.591 323.194H419.544V342.236H416.591V323.194ZM428.954 342.236C427.921 342.236 427.134 341.953 426.592 341.388C426.076 340.797 425.817 340.059 425.817 339.173V314.927H428.77V339.653H431.575V342.236H428.954ZM433.699 323.194H436.578L438.608 331.423L440.637 339.764H440.711L443.036 331.423L445.435 323.194H448.055L450.528 331.423L452.89 339.764H452.963L454.919 331.423L456.986 323.194H459.754L454.698 342.236H451.044L448.387 333.084L446.727 327.29H446.653L445.029 333.084L442.372 342.236H438.792L433.699 323.194ZM465.495 318.728C464.856 318.728 464.388 318.581 464.093 318.285C463.822 317.966 463.687 317.56 463.687 317.068V316.588C463.687 316.096 463.822 315.702 464.093 315.407C464.388 315.087 464.856 314.927 465.495 314.927C466.135 314.927 466.59 315.087 466.861 315.407C467.156 315.702 467.304 316.096 467.304 316.588V317.068C467.304 317.56 467.156 317.966 466.861 318.285C466.59 318.581 466.135 318.728 465.495 318.728ZM464.019 323.194H466.972V342.236H464.019V323.194ZM473.245 342.236V323.194H476.198V326.294H476.345C476.813 325.211 477.465 324.35 478.301 323.71C479.162 323.071 480.306 322.751 481.733 322.751C483.701 322.751 485.251 323.391 486.383 324.67C487.54 325.925 488.118 327.708 488.118 330.021V342.236H485.165V330.538C485.165 327.118 483.726 325.408 480.848 325.408C480.257 325.408 479.679 325.482 479.113 325.629C478.572 325.777 478.08 325.998 477.637 326.294C477.194 326.589 476.837 326.97 476.567 327.438C476.321 327.881 476.198 328.41 476.198 329.025V342.236H473.245ZM506.399 339.136H506.251C505.095 341.498 503.237 342.679 500.678 342.679C499.497 342.679 498.427 342.445 497.468 341.978C496.508 341.511 495.684 340.846 494.995 339.985C494.331 339.124 493.814 338.078 493.445 336.848C493.101 335.618 492.928 334.24 492.928 332.715C492.928 331.19 493.101 329.812 493.445 328.582C493.814 327.352 494.331 326.306 494.995 325.445C495.684 324.584 496.508 323.919 497.468 323.452C498.427 322.985 499.497 322.751 500.678 322.751C502.007 322.751 503.139 323.046 504.074 323.637C505.033 324.202 505.759 325.088 506.251 326.294H506.399V314.927H509.351V342.236H506.399V339.136ZM501.49 340.022C502.155 340.022 502.782 339.936 503.372 339.764C503.987 339.592 504.516 339.345 504.959 339.026C505.402 338.681 505.747 338.275 505.993 337.808C506.263 337.316 506.399 336.762 506.399 336.147V329.061C506.399 328.545 506.263 328.065 505.993 327.622C505.747 327.155 505.402 326.761 504.959 326.441C504.516 326.121 503.987 325.875 503.372 325.703C502.782 325.506 502.155 325.408 501.49 325.408C499.817 325.408 498.501 325.937 497.542 326.995C496.582 328.028 496.102 329.394 496.102 331.091V334.339C496.102 336.036 496.582 337.414 497.542 338.472C498.501 339.505 499.817 340.022 501.49 340.022ZM527.486 342.236C526.453 342.236 525.665 341.953 525.124 341.388C524.607 340.797 524.349 340.059 524.349 339.173V314.927H527.301V339.653H530.106V342.236H527.486ZM548.243 342.236C547.136 342.236 546.336 341.941 545.844 341.351C545.377 340.76 545.082 340.022 544.959 339.136H544.774C544.356 340.317 543.667 341.203 542.707 341.793C541.748 342.384 540.604 342.679 539.275 342.679C537.258 342.679 535.683 342.163 534.552 341.129C533.445 340.096 532.891 338.694 532.891 336.922C532.891 335.126 533.543 333.748 534.847 332.789C536.175 331.829 538.23 331.35 541.01 331.35H544.774V329.467C544.774 328.114 544.405 327.081 543.667 326.367C542.929 325.654 541.797 325.297 540.272 325.297C539.115 325.297 538.144 325.556 537.356 326.072C536.594 326.589 535.954 327.278 535.437 328.139L533.666 326.478C534.183 325.445 535.007 324.571 536.139 323.858C537.27 323.12 538.697 322.751 540.419 322.751C542.732 322.751 544.528 323.317 545.807 324.448C547.087 325.58 547.726 327.155 547.726 329.172V339.653H549.904V342.236H548.243ZM539.755 340.17C540.493 340.17 541.17 340.084 541.785 339.911C542.4 339.739 542.929 339.493 543.372 339.173C543.815 338.853 544.159 338.484 544.405 338.066C544.651 337.648 544.774 337.193 544.774 336.701V333.564H540.862C539.165 333.564 537.922 333.81 537.135 334.302C536.372 334.794 535.991 335.507 535.991 336.442V337.217C535.991 338.152 536.323 338.878 536.987 339.395C537.676 339.911 538.599 340.17 539.755 340.17ZM554.118 342.236V323.194H557.07V326.294H557.218C557.685 325.211 558.337 324.35 559.173 323.71C560.035 323.071 561.179 322.751 562.606 322.751C564.574 322.751 566.124 323.391 567.255 324.67C568.412 325.925 568.99 327.708 568.99 330.021V342.236H566.038V330.538C566.038 327.118 564.598 325.408 561.72 325.408C561.129 325.408 560.551 325.482 559.985 325.629C559.444 325.777 558.952 325.998 558.509 326.294C558.066 326.589 557.71 326.97 557.439 327.438C557.193 327.881 557.07 328.41 557.07 329.025V342.236H554.118ZM587.271 339.136H587.123C585.967 341.498 584.109 342.679 581.551 342.679C580.37 342.679 579.3 342.445 578.34 341.978C577.381 341.511 576.556 340.846 575.867 339.985C575.203 339.124 574.687 338.078 574.317 336.848C573.973 335.618 573.801 334.24 573.801 332.715C573.801 331.19 573.973 329.812 574.317 328.582C574.687 327.352 575.203 326.306 575.867 325.445C576.556 324.584 577.381 323.919 578.34 323.452C579.3 322.985 580.37 322.751 581.551 322.751C582.879 322.751 584.011 323.046 584.946 323.637C585.905 324.202 586.631 325.088 587.123 326.294H587.271V314.927H590.223V342.236H587.271V339.136ZM582.363 340.022C583.027 340.022 583.654 339.936 584.245 339.764C584.86 339.592 585.389 339.345 585.832 339.026C586.274 338.681 586.619 338.275 586.865 337.808C587.136 337.316 587.271 336.762 587.271 336.147V329.061C587.271 328.545 587.136 328.065 586.865 327.622C586.619 327.155 586.274 326.761 585.832 326.441C585.389 326.121 584.86 325.875 584.245 325.703C583.654 325.506 583.027 325.408 582.363 325.408C580.69 325.408 579.373 325.937 578.414 326.995C577.454 328.028 576.975 329.394 576.975 331.091V334.339C576.975 336.036 577.454 337.414 578.414 338.472C579.373 339.505 580.69 340.022 582.363 340.022ZM597.976 318.728C597.336 318.728 596.869 318.581 596.574 318.285C596.303 317.966 596.168 317.56 596.168 317.068V316.588C596.168 316.096 596.303 315.702 596.574 315.407C596.869 315.087 597.336 314.927 597.976 314.927C598.616 314.927 599.071 315.087 599.341 315.407C599.637 315.702 599.784 316.096 599.784 316.588V317.068C599.784 317.56 599.637 317.966 599.341 318.285C599.071 318.581 598.616 318.728 597.976 318.728ZM596.5 323.194H599.452V342.236H596.5V323.194ZM605.726 342.236V323.194H608.678V326.294H608.826C609.293 325.211 609.945 324.35 610.782 323.71C611.643 323.071 612.787 322.751 614.214 322.751C616.182 322.751 617.732 323.391 618.864 324.67C620.02 325.925 620.598 327.708 620.598 330.021V342.236H617.646V330.538C617.646 327.118 616.207 325.408 613.328 325.408C612.738 325.408 612.16 325.482 611.594 325.629C611.052 325.777 610.56 325.998 610.118 326.294C609.675 326.589 609.318 326.97 609.047 327.438C608.801 327.881 608.678 328.41 608.678 329.025V342.236H605.726ZM642.754 344.34C642.754 346.308 641.979 347.747 640.429 348.658C638.904 349.593 636.603 350.06 633.528 350.06C630.551 350.06 628.411 349.654 627.107 348.842C625.803 348.03 625.151 346.874 625.151 345.373C625.151 344.34 625.421 343.528 625.963 342.938C626.504 342.372 627.242 341.953 628.177 341.683V341.277C627.045 340.736 626.479 339.85 626.479 338.62C626.479 337.66 626.787 336.934 627.402 336.442C628.017 335.926 628.804 335.544 629.764 335.298V335.151C628.632 334.609 627.746 333.834 627.107 332.826C626.492 331.817 626.184 330.648 626.184 329.32C626.184 328.36 626.356 327.475 626.701 326.663C627.045 325.851 627.525 325.162 628.14 324.596C628.78 324.006 629.53 323.55 630.391 323.231C631.277 322.911 632.261 322.751 633.344 322.751C634.697 322.751 635.902 322.997 636.96 323.489V323.157C636.96 322.419 637.132 321.816 637.477 321.348C637.821 320.856 638.387 320.61 639.174 320.61H642.016V323.194H638.399V324.412C639.088 325.002 639.617 325.716 639.986 326.552C640.38 327.364 640.577 328.287 640.577 329.32C640.577 330.279 640.405 331.165 640.06 331.977C639.716 332.789 639.224 333.49 638.584 334.08C637.969 334.646 637.219 335.089 636.333 335.409C635.447 335.729 634.463 335.889 633.38 335.889C632.765 335.889 632.15 335.827 631.535 335.704C630.896 335.876 630.317 336.135 629.801 336.479C629.284 336.799 629.026 337.254 629.026 337.845C629.026 338.411 629.296 338.792 629.838 338.989C630.379 339.186 631.08 339.284 631.941 339.284H636.001C638.363 339.284 640.072 339.739 641.13 340.649C642.213 341.535 642.754 342.765 642.754 344.34ZM639.986 344.561C639.986 343.799 639.691 343.184 639.101 342.716C638.535 342.273 637.514 342.052 636.038 342.052H629.69C628.509 342.593 627.919 343.454 627.919 344.635C627.919 345.472 628.226 346.185 628.841 346.776C629.481 347.366 630.551 347.661 632.052 347.661H634.783C636.431 347.661 637.711 347.403 638.621 346.886C639.531 346.37 639.986 345.595 639.986 344.561ZM633.38 333.527C634.635 333.527 635.632 333.232 636.37 332.641C637.108 332.026 637.477 331.091 637.477 329.836V328.803C637.477 327.548 637.108 326.626 636.37 326.035C635.632 325.42 634.635 325.113 633.38 325.113C632.126 325.113 631.129 325.42 630.391 326.035C629.653 326.626 629.284 327.548 629.284 328.803V329.836C629.284 331.091 629.653 332.026 630.391 332.641C631.129 333.232 632.126 333.527 633.38 333.527ZM654.92 323.194H657.872V326.294H658.02C658.512 325.088 659.225 324.202 660.16 323.637C661.12 323.046 662.264 322.751 663.592 322.751C664.773 322.751 665.843 322.985 666.803 323.452C667.762 323.919 668.574 324.584 669.238 325.445C669.927 326.306 670.444 327.352 670.788 328.582C671.158 329.812 671.342 331.19 671.342 332.715C671.342 334.24 671.158 335.618 670.788 336.848C670.444 338.078 669.927 339.124 669.238 339.985C668.574 340.846 667.762 341.511 666.803 341.978C665.843 342.445 664.773 342.679 663.592 342.679C661.009 342.679 659.151 341.498 658.02 339.136H657.872V349.617H654.92V323.194ZM662.78 340.022C664.453 340.022 665.769 339.505 666.729 338.472C667.688 337.414 668.168 336.036 668.168 334.339V331.091C668.168 329.394 667.688 328.028 666.729 326.995C665.769 325.937 664.453 325.408 662.78 325.408C662.116 325.408 661.476 325.506 660.861 325.703C660.271 325.875 659.754 326.121 659.311 326.441C658.868 326.761 658.512 327.155 658.241 327.622C657.995 328.065 657.872 328.545 657.872 329.061V336.147C657.872 336.762 657.995 337.316 658.241 337.808C658.512 338.275 658.868 338.681 659.311 339.026C659.754 339.345 660.271 339.592 660.861 339.764C661.476 339.936 662.116 340.022 662.78 340.022ZM690.166 342.236C689.059 342.236 688.259 341.941 687.767 341.351C687.3 340.76 687.005 340.022 686.882 339.136H686.697C686.279 340.317 685.59 341.203 684.63 341.793C683.671 342.384 682.527 342.679 681.198 342.679C679.181 342.679 677.606 342.163 676.475 341.129C675.367 340.096 674.814 338.694 674.814 336.922C674.814 335.126 675.466 333.748 676.77 332.789C678.098 331.829 680.153 331.35 682.933 331.35H686.697V329.467C686.697 328.114 686.328 327.081 685.59 326.367C684.852 325.654 683.72 325.297 682.195 325.297C681.038 325.297 680.067 325.556 679.279 326.072C678.517 326.589 677.877 327.278 677.36 328.139L675.589 326.478C676.106 325.445 676.93 324.571 678.061 323.858C679.193 323.12 680.62 322.751 682.342 322.751C684.655 322.751 686.451 323.317 687.73 324.448C689.01 325.58 689.649 327.155 689.649 329.172V339.653H691.827V342.236H690.166ZM681.678 340.17C682.416 340.17 683.093 340.084 683.708 339.911C684.323 339.739 684.852 339.493 685.295 339.173C685.738 338.853 686.082 338.484 686.328 338.066C686.574 337.648 686.697 337.193 686.697 336.701V333.564H682.785C681.088 333.564 679.845 333.81 679.058 334.302C678.295 334.794 677.914 335.507 677.914 336.442V337.217C677.914 338.152 678.246 338.878 678.91 339.395C679.599 339.911 680.522 340.17 681.678 340.17ZM712.094 344.34C712.094 346.308 711.319 347.747 709.769 348.658C708.244 349.593 705.943 350.06 702.868 350.06C699.891 350.06 697.75 349.654 696.446 348.842C695.142 348.03 694.491 346.874 694.491 345.373C694.491 344.34 694.761 343.528 695.302 342.938C695.844 342.372 696.582 341.953 697.517 341.683V341.277C696.385 340.736 695.819 339.85 695.819 338.62C695.819 337.66 696.127 336.934 696.742 336.442C697.357 335.926 698.144 335.544 699.104 335.298V335.151C697.972 334.609 697.086 333.834 696.446 332.826C695.831 331.817 695.524 330.648 695.524 329.32C695.524 328.36 695.696 327.475 696.04 326.663C696.385 325.851 696.865 325.162 697.48 324.596C698.119 324.006 698.87 323.55 699.731 323.231C700.617 322.911 701.601 322.751 702.683 322.751C704.036 322.751 705.242 322.997 706.3 323.489V323.157C706.3 322.419 706.472 321.816 706.817 321.348C707.161 320.856 707.727 320.61 708.514 320.61H711.356V323.194H707.739V324.412C708.428 325.002 708.957 325.716 709.326 326.552C709.72 327.364 709.917 328.287 709.917 329.32C709.917 330.279 709.744 331.165 709.4 331.977C709.055 332.789 708.563 333.49 707.924 334.08C707.309 334.646 706.558 335.089 705.673 335.409C704.787 335.729 703.803 335.889 702.72 335.889C702.105 335.889 701.49 335.827 700.875 335.704C700.235 335.876 699.657 336.135 699.14 336.479C698.624 336.799 698.365 337.254 698.365 337.845C698.365 338.411 698.636 338.792 699.177 338.989C699.719 339.186 700.42 339.284 701.281 339.284H705.34C707.702 339.284 709.412 339.739 710.47 340.649C711.553 341.535 712.094 342.765 712.094 344.34ZM709.326 344.561C709.326 343.799 709.031 343.184 708.44 342.716C707.874 342.273 706.853 342.052 705.377 342.052H699.03C697.849 342.593 697.258 343.454 697.258 344.635C697.258 345.472 697.566 346.185 698.181 346.776C698.821 347.366 699.891 347.661 701.392 347.661H704.123C705.771 347.661 707.05 347.403 707.961 346.886C708.871 346.37 709.326 345.595 709.326 344.561ZM702.72 333.527C703.975 333.527 704.971 333.232 705.709 332.641C706.448 332.026 706.817 331.091 706.817 329.836V328.803C706.817 327.548 706.448 326.626 705.709 326.035C704.971 325.42 703.975 325.113 702.72 325.113C701.465 325.113 700.469 325.42 699.731 326.035C698.993 326.626 698.624 327.548 698.624 328.803V329.836C698.624 331.091 698.993 332.026 699.731 332.641C700.469 333.232 701.465 333.527 702.72 333.527ZM722.481 342.679C721.177 342.679 719.996 342.445 718.938 341.978C717.905 341.511 717.007 340.846 716.244 339.985C715.506 339.099 714.928 338.054 714.51 336.848C714.116 335.618 713.919 334.24 713.919 332.715C713.919 331.214 714.116 329.849 714.51 328.619C714.928 327.388 715.506 326.343 716.244 325.482C717.007 324.596 717.905 323.919 718.938 323.452C719.996 322.985 721.177 322.751 722.481 322.751C723.76 322.751 724.904 322.985 725.913 323.452C726.922 323.919 727.783 324.571 728.496 325.408C729.21 326.22 729.751 327.192 730.12 328.323C730.514 329.455 730.711 330.698 730.711 332.051V333.453H717.019V334.339C717.019 335.151 717.142 335.913 717.388 336.627C717.659 337.316 718.028 337.919 718.495 338.435C718.987 338.952 719.578 339.358 720.267 339.653C720.98 339.948 721.78 340.096 722.666 340.096C723.871 340.096 724.917 339.813 725.802 339.247C726.713 338.681 727.414 337.869 727.906 336.811L730.009 338.324C729.394 339.628 728.435 340.686 727.131 341.498C725.827 342.286 724.277 342.679 722.481 342.679ZM722.481 325.223C721.669 325.223 720.931 325.371 720.267 325.666C719.602 325.937 719.024 326.331 718.532 326.847C718.065 327.364 717.696 327.979 717.425 328.692C717.154 329.381 717.019 330.144 717.019 330.981V331.239H727.537V330.833C727.537 329.135 727.069 327.782 726.135 326.773C725.224 325.74 724.006 325.223 722.481 325.223ZM741.296 342.679C739.524 342.679 738.036 342.347 736.83 341.683C735.65 340.994 734.628 340.084 733.767 338.952L735.871 337.254C736.609 338.189 737.433 338.915 738.344 339.432C739.254 339.924 740.312 340.17 741.517 340.17C742.772 340.17 743.744 339.899 744.433 339.358C745.146 338.817 745.503 338.054 745.503 337.07C745.503 336.332 745.257 335.704 744.765 335.188C744.297 334.646 743.436 334.277 742.182 334.08L740.669 333.859C739.783 333.736 738.971 333.552 738.233 333.305C737.495 333.035 736.843 332.69 736.277 332.272C735.736 331.829 735.305 331.288 734.985 330.648C734.69 330.009 734.542 329.246 734.542 328.36C734.542 327.425 734.715 326.614 735.059 325.925C735.403 325.211 735.871 324.621 736.461 324.153C737.076 323.686 737.802 323.341 738.639 323.12C739.475 322.874 740.373 322.751 741.333 322.751C742.883 322.751 744.174 323.021 745.208 323.563C746.266 324.104 747.188 324.854 747.976 325.814L746.02 327.585C745.601 326.995 744.986 326.466 744.174 325.998C743.363 325.506 742.341 325.26 741.111 325.26C739.881 325.26 738.946 325.531 738.307 326.072C737.692 326.589 737.384 327.302 737.384 328.213C737.384 329.148 737.692 329.824 738.307 330.242C738.946 330.661 739.857 330.968 741.038 331.165L742.514 331.386C744.63 331.706 746.13 332.321 747.016 333.232C747.902 334.117 748.345 335.286 748.345 336.738C748.345 338.583 747.717 340.034 746.462 341.092C745.208 342.15 743.486 342.679 741.296 342.679ZM763.314 325.777H760.214V323.194H763.314V319.356C763.314 318.027 763.659 316.957 764.347 316.145C765.036 315.333 766.082 314.927 767.484 314.927H770.363V317.51H766.267V323.194H770.363V325.777H766.267V342.236H763.314V325.777ZM781.298 342.679C780.019 342.679 778.85 342.445 777.792 341.978C776.734 341.511 775.824 340.846 775.061 339.985C774.323 339.099 773.745 338.054 773.327 336.848C772.909 335.618 772.699 334.24 772.699 332.715C772.699 331.214 772.909 329.849 773.327 328.619C773.745 327.388 774.323 326.343 775.061 325.482C775.824 324.596 776.734 323.919 777.792 323.452C778.85 322.985 780.019 322.751 781.298 322.751C782.577 322.751 783.734 322.985 784.767 323.452C785.825 323.919 786.735 324.596 787.498 325.482C788.261 326.343 788.851 327.388 789.269 328.619C789.688 329.849 789.897 331.214 789.897 332.715C789.897 334.24 789.688 335.618 789.269 336.848C788.851 338.054 788.261 339.099 787.498 339.985C786.735 340.846 785.825 341.511 784.767 341.978C783.734 342.445 782.577 342.679 781.298 342.679ZM781.298 340.059C782.897 340.059 784.201 339.567 785.21 338.583C786.219 337.599 786.723 336.098 786.723 334.08V331.35C786.723 329.332 786.219 327.831 785.21 326.847C784.201 325.863 782.897 325.371 781.298 325.371C779.699 325.371 778.395 325.863 777.386 326.847C776.378 327.831 775.873 329.332 775.873 331.35V334.08C775.873 336.098 776.378 337.599 777.386 338.583C778.395 339.567 779.699 340.059 781.298 340.059ZM794.752 342.236V323.194H797.705V326.7H797.889C798.234 325.789 798.849 324.977 799.734 324.264C800.62 323.55 801.838 323.194 803.388 323.194H804.532V326.146H802.797C801.198 326.146 799.943 326.454 799.033 327.069C798.147 327.659 797.705 328.41 797.705 329.32V342.236H794.752ZM187.872 371.194H190.788L182.263 394.665C182.042 395.231 181.82 395.698 181.599 396.067C181.377 396.461 181.107 396.768 180.787 396.99C180.467 397.211 180.061 397.371 179.569 397.47C179.102 397.568 178.523 397.617 177.834 397.617H176.321V395.034H179.311L180.75 390.974L173.627 371.194H176.58L181.156 384.147L182.042 387.247H182.226L183.259 384.147L187.872 371.194ZM201.569 390.679C200.29 390.679 199.121 390.445 198.063 389.978C197.005 389.511 196.095 388.846 195.332 387.985C194.594 387.099 194.016 386.054 193.598 384.848C193.18 383.618 192.97 382.24 192.97 380.715C192.97 379.214 193.18 377.849 193.598 376.619C194.016 375.388 194.594 374.343 195.332 373.482C196.095 372.596 197.005 371.919 198.063 371.452C199.121 370.985 200.29 370.751 201.569 370.751C202.848 370.751 204.005 370.985 205.038 371.452C206.096 371.919 207.006 372.596 207.769 373.482C208.532 374.343 209.122 375.388 209.54 376.619C209.959 377.849 210.168 379.214 210.168 380.715C210.168 382.24 209.959 383.618 209.54 384.848C209.122 386.054 208.532 387.099 207.769 387.985C207.006 388.846 206.096 389.511 205.038 389.978C204.005 390.445 202.848 390.679 201.569 390.679ZM201.569 388.059C203.168 388.059 204.472 387.567 205.481 386.583C206.49 385.599 206.994 384.098 206.994 382.08V379.35C206.994 377.332 206.49 375.831 205.481 374.847C204.472 373.863 203.168 373.371 201.569 373.371C199.97 373.371 198.666 373.863 197.657 374.847C196.649 375.831 196.144 377.332 196.144 379.35V382.08C196.144 384.098 196.649 385.599 197.657 386.583C198.666 387.567 199.97 388.059 201.569 388.059ZM226.759 387.136H226.611C226.414 387.579 226.168 388.022 225.873 388.465C225.603 388.883 225.258 389.265 224.84 389.609C224.422 389.929 223.917 390.187 223.327 390.384C222.736 390.581 222.047 390.679 221.26 390.679C219.292 390.679 217.73 390.052 216.573 388.797C215.417 387.518 214.839 385.722 214.839 383.409V371.194H217.791V382.892C217.791 386.312 219.243 388.022 222.146 388.022C222.736 388.022 223.302 387.948 223.843 387.801C224.409 387.653 224.901 387.432 225.32 387.136C225.762 386.841 226.107 386.472 226.353 386.029C226.624 385.562 226.759 385.008 226.759 384.369V371.194H229.711V390.236H226.759V387.136ZM235.998 390.236V371.194H238.951V374.7H239.135C239.48 373.789 240.095 372.977 240.98 372.264C241.866 371.55 243.084 371.194 244.634 371.194H245.778V374.146H244.043C242.444 374.146 241.189 374.454 240.279 375.069C239.393 375.659 238.951 376.41 238.951 377.32V390.236H235.998ZM258.271 390.236V371.194H261.223V374.294H261.371C261.838 373.211 262.49 372.35 263.326 371.71C264.188 371.071 265.332 370.751 266.759 370.751C268.727 370.751 270.277 371.391 271.408 372.67C272.565 373.925 273.143 375.708 273.143 378.021V390.236H270.191V378.538C270.191 375.118 268.751 373.408 265.873 373.408C265.282 373.408 264.704 373.482 264.138 373.629C263.597 373.777 263.105 373.998 262.662 374.294C262.219 374.589 261.863 374.97 261.592 375.438C261.346 375.881 261.223 376.41 261.223 377.025V390.236H258.271ZM286.405 390.679C285.101 390.679 283.92 390.445 282.862 389.978C281.829 389.511 280.931 388.846 280.168 387.985C279.43 387.099 278.852 386.054 278.434 384.848C278.04 383.618 277.843 382.24 277.843 380.715C277.843 379.214 278.04 377.849 278.434 376.619C278.852 375.388 279.43 374.343 280.168 373.482C280.931 372.596 281.829 371.919 282.862 371.452C283.92 370.985 285.101 370.751 286.405 370.751C287.684 370.751 288.828 370.985 289.837 371.452C290.846 371.919 291.707 372.571 292.42 373.408C293.134 374.22 293.675 375.192 294.044 376.323C294.438 377.455 294.635 378.698 294.635 380.051V381.453H280.943V382.339C280.943 383.151 281.066 383.913 281.312 384.627C281.583 385.316 281.952 385.919 282.419 386.435C282.911 386.952 283.502 387.358 284.191 387.653C284.904 387.948 285.704 388.096 286.589 388.096C287.795 388.096 288.841 387.813 289.726 387.247C290.637 386.681 291.338 385.869 291.83 384.811L293.933 386.324C293.318 387.628 292.359 388.686 291.055 389.498C289.751 390.286 288.201 390.679 286.405 390.679ZM286.405 373.223C285.593 373.223 284.855 373.371 284.191 373.666C283.526 373.937 282.948 374.331 282.456 374.847C281.989 375.364 281.62 375.979 281.349 376.692C281.078 377.381 280.943 378.144 280.943 378.981V379.239H291.461V378.833C291.461 377.135 290.993 375.782 290.058 374.773C289.148 373.74 287.93 373.223 286.405 373.223ZM296.705 390.236L303.754 380.641L297 371.194H300.469L305.304 378.279H305.415L310.434 371.194H313.718L307.002 380.42L313.866 390.236H310.397L305.452 382.782H305.341L299.99 390.236H296.705ZM321.979 390.236C320.945 390.236 320.158 389.953 319.617 389.388C319.1 388.797 318.842 388.034 318.842 387.099V373.777H315.705V371.194H317.476C318.116 371.194 318.546 371.071 318.768 370.825C319.014 370.554 319.137 370.099 319.137 369.459V365.916H321.794V371.194H325.964V373.777H321.794V387.653H325.669V390.236H321.979ZM339.431 371.194H342.384V374.294H342.531C343.023 373.088 343.737 372.202 344.672 371.637C345.631 371.046 346.775 370.751 348.104 370.751C349.285 370.751 350.355 370.985 351.314 371.452C352.274 371.919 353.086 372.584 353.75 373.445C354.439 374.306 354.956 375.352 355.3 376.582C355.669 377.812 355.854 379.19 355.854 380.715C355.854 382.24 355.669 383.618 355.3 384.848C354.956 386.078 354.439 387.124 353.75 387.985C353.086 388.846 352.274 389.511 351.314 389.978C350.355 390.445 349.285 390.679 348.104 390.679C345.52 390.679 343.663 389.498 342.531 387.136H342.384V397.617H339.431V371.194ZM347.292 388.022C348.965 388.022 350.281 387.505 351.241 386.472C352.2 385.414 352.68 384.036 352.68 382.339V379.091C352.68 377.394 352.2 376.028 351.241 374.995C350.281 373.937 348.965 373.408 347.292 373.408C346.627 373.408 345.988 373.506 345.373 373.703C344.782 373.875 344.266 374.121 343.823 374.441C343.38 374.761 343.023 375.155 342.753 375.622C342.507 376.065 342.384 376.545 342.384 377.061V384.147C342.384 384.762 342.507 385.316 342.753 385.808C343.023 386.275 343.38 386.681 343.823 387.026C344.266 387.345 344.782 387.592 345.373 387.764C345.988 387.936 346.627 388.022 347.292 388.022ZM360.839 390.236V371.194H363.791V374.7H363.975C364.32 373.789 364.935 372.977 365.821 372.264C366.706 371.55 367.924 371.194 369.474 371.194H370.618V374.146H368.884C367.284 374.146 366.03 374.454 365.119 375.069C364.234 375.659 363.791 376.41 363.791 377.32V390.236H360.839ZM381.405 390.679C380.126 390.679 378.957 390.445 377.9 389.978C376.842 389.511 375.931 388.846 375.169 387.985C374.431 387.099 373.852 386.054 373.434 384.848C373.016 383.618 372.807 382.24 372.807 380.715C372.807 379.214 373.016 377.849 373.434 376.619C373.852 375.388 374.431 374.343 375.169 373.482C375.931 372.596 376.842 371.919 377.9 371.452C378.957 370.985 380.126 370.751 381.405 370.751C382.685 370.751 383.841 370.985 384.874 371.452C385.932 371.919 386.843 372.596 387.605 373.482C388.368 374.343 388.959 375.388 389.377 376.619C389.795 377.849 390.004 379.214 390.004 380.715C390.004 382.24 389.795 383.618 389.377 384.848C388.959 386.054 388.368 387.099 387.605 387.985C386.843 388.846 385.932 389.511 384.874 389.978C383.841 390.445 382.685 390.679 381.405 390.679ZM381.405 388.059C383.005 388.059 384.309 387.567 385.317 386.583C386.326 385.599 386.83 384.098 386.83 382.08V379.35C386.83 377.332 386.326 375.831 385.317 374.847C384.309 373.863 383.005 373.371 381.405 373.371C379.806 373.371 378.502 373.863 377.494 374.847C376.485 375.831 375.981 377.332 375.981 379.35V382.08C375.981 384.098 376.485 385.599 377.494 386.583C378.502 387.567 379.806 388.059 381.405 388.059ZM394.86 371.194H397.812V393.189C397.812 394.517 397.48 395.587 396.816 396.399C396.151 397.211 395.106 397.617 393.679 397.617H391.76V395.034H394.86V371.194ZM396.336 366.728C395.696 366.728 395.229 366.581 394.933 366.285C394.663 365.966 394.528 365.56 394.528 365.068V364.588C394.528 364.096 394.663 363.702 394.933 363.407C395.229 363.087 395.696 362.927 396.336 362.927C396.976 362.927 397.431 363.087 397.701 363.407C397.997 363.702 398.144 364.096 398.144 364.588V365.068C398.144 365.56 397.997 365.966 397.701 366.285C397.431 366.581 396.976 366.728 396.336 366.728ZM411.245 390.679C409.941 390.679 408.76 390.445 407.702 389.978C406.669 389.511 405.771 388.846 405.008 387.985C404.27 387.099 403.692 386.054 403.274 384.848C402.88 383.618 402.683 382.24 402.683 380.715C402.683 379.214 402.88 377.849 403.274 376.619C403.692 375.388 404.27 374.343 405.008 373.482C405.771 372.596 406.669 371.919 407.702 371.452C408.76 370.985 409.941 370.751 411.245 370.751C412.525 370.751 413.669 370.985 414.677 371.452C415.686 371.919 416.547 372.571 417.261 373.408C417.974 374.22 418.515 375.192 418.884 376.323C419.278 377.455 419.475 378.698 419.475 380.051V381.453H405.783V382.339C405.783 383.151 405.906 383.913 406.152 384.627C406.423 385.316 406.792 385.919 407.26 386.435C407.752 386.952 408.342 387.358 409.031 387.653C409.744 387.948 410.544 388.096 411.43 388.096C412.635 388.096 413.681 387.813 414.567 387.247C415.477 386.681 416.178 385.869 416.67 384.811L418.774 386.324C418.159 387.628 417.199 388.686 415.895 389.498C414.591 390.286 413.041 390.679 411.245 390.679ZM411.245 373.223C410.433 373.223 409.695 373.371 409.031 373.666C408.367 373.937 407.788 374.331 407.296 374.847C406.829 375.364 406.46 375.979 406.189 376.692C405.919 377.381 405.783 378.144 405.783 378.981V379.239H416.301V378.833C416.301 377.135 415.834 375.782 414.899 374.773C413.988 373.74 412.771 373.223 411.245 373.223ZM431.425 390.679C430.097 390.679 428.904 390.445 427.846 389.978C426.788 389.511 425.89 388.846 425.152 387.985C424.438 387.124 423.885 386.078 423.491 384.848C423.122 383.618 422.938 382.24 422.938 380.715C422.938 379.19 423.122 377.812 423.491 376.582C423.885 375.352 424.438 374.306 425.152 373.445C425.89 372.584 426.788 371.919 427.846 371.452C428.904 370.985 430.097 370.751 431.425 370.751C433.32 370.751 434.833 371.169 435.965 372.006C437.121 372.818 437.982 373.888 438.548 375.216L436.075 376.471C435.731 375.487 435.165 374.724 434.378 374.183C433.591 373.642 432.606 373.371 431.425 373.371C430.54 373.371 429.765 373.519 429.101 373.814C428.436 374.085 427.883 374.478 427.44 374.995C426.997 375.487 426.665 376.09 426.443 376.803C426.222 377.492 426.111 378.255 426.111 379.091V382.339C426.111 384.012 426.554 385.39 427.44 386.472C428.35 387.53 429.679 388.059 431.425 388.059C433.812 388.059 435.534 386.952 436.592 384.738L438.733 386.177C438.117 387.555 437.195 388.649 435.965 389.461C434.759 390.273 433.246 390.679 431.425 390.679ZM447.107 390.236C446.074 390.236 445.287 389.953 444.745 389.388C444.229 388.797 443.97 388.034 443.97 387.099V373.777H440.833V371.194H442.605C443.245 371.194 443.675 371.071 443.897 370.825C444.143 370.554 444.266 370.099 444.266 369.459V365.916H446.923V371.194H451.093V373.777H446.923V387.653H450.798V390.236H447.107ZM461.558 390.679C459.787 390.679 458.299 390.347 457.093 389.683C455.912 388.994 454.891 388.084 454.03 386.952L456.133 385.254C456.872 386.189 457.696 386.915 458.606 387.432C459.516 387.924 460.574 388.17 461.78 388.17C463.035 388.17 464.006 387.899 464.695 387.358C465.409 386.817 465.766 386.054 465.766 385.07C465.766 384.332 465.519 383.704 465.027 383.188C464.56 382.646 463.699 382.277 462.444 382.08L460.931 381.859C460.045 381.736 459.233 381.552 458.495 381.305C457.757 381.035 457.105 380.69 456.539 380.272C455.998 379.829 455.568 379.288 455.248 378.648C454.953 378.009 454.805 377.246 454.805 376.36C454.805 375.425 454.977 374.614 455.322 373.925C455.666 373.211 456.133 372.621 456.724 372.153C457.339 371.686 458.065 371.341 458.901 371.12C459.738 370.874 460.636 370.751 461.595 370.751C463.145 370.751 464.437 371.021 465.47 371.563C466.528 372.104 467.451 372.854 468.238 373.814L466.282 375.585C465.864 374.995 465.249 374.466 464.437 373.998C463.625 373.506 462.604 373.26 461.374 373.26C460.144 373.26 459.209 373.531 458.569 374.072C457.954 374.589 457.647 375.302 457.647 376.213C457.647 377.148 457.954 377.824 458.569 378.242C459.209 378.661 460.119 378.968 461.3 379.165L462.776 379.386C464.892 379.706 466.393 380.321 467.279 381.232C468.164 382.117 468.607 383.286 468.607 384.738C468.607 386.583 467.98 388.034 466.725 389.092C465.47 390.15 463.748 390.679 461.558 390.679ZM475.524 390.679C474.737 390.679 474.158 390.482 473.789 390.089C473.445 389.695 473.273 389.178 473.273 388.539V388.059C473.273 387.419 473.445 386.903 473.789 386.509C474.158 386.115 474.737 385.919 475.524 385.919C476.311 385.919 476.877 386.115 477.221 386.509C477.59 386.903 477.775 387.419 477.775 388.059V388.539C477.775 389.178 477.59 389.695 477.221 390.089C476.877 390.482 476.311 390.679 475.524 390.679Z" fill="white"/>
</svg>
