<svg xmlns="http://www.w3.org/2000/svg" width="372" height="90"><g clip-path="url(#clip0)" fill="#f1f0e4"  ><path d="M66.532 38.502c.144 7.938-3.492 13.32-4.644 15.192-.99 1.62-3.384 4.77-7.974 9.648C48.118 69.498 30.028 88.722 28.822 90H77.89L66.568 38.484l-.036.018zm4.518 26.28l.414 1.836c-4.86 5.256-12.294 9.18-20.952 9.18-1.854 0-3.798-.18-5.94-.63.432-.468.864-.918 1.242-1.332a26.1 26.1 0 004.608.414 26.996 26.996 0 0020.628-9.468zM.004 0v90H26.86l26.568-28.26-.036-.036c-4.266 3.006-9.702 4.644-15.534 4.644-10.836 0-20.376-6.426-24.516-14.418l-.036.036 5.634 19.026h-1.53s-2.79-9.63-5.184-18.036c-1.8-6.354-2.916-11.07-2.898-15.246.054-14.382 11.358-27.558 26.388-28.53.414-.036 1.692-.162 3.6-.162 11.574 0 47.268.27 50.706.288V0H.004zm31.608 66.924c2.16 1.872 5.562 4.212 9.792 5.724-.36.378-.738.792-1.152 1.224-4.212-1.674-8.334-4.266-11.556-7.74a27.57 27.57 0 002.916.792zm14.472-56.52c4.428 1.242 8.604 3.528 11.916 6.606a26.187 26.187 0 00-2.916-.612c-4.644-3.672-10.71-5.868-17.028-5.868-14.94 0-27.18 12.186-27.18 27.162 0 14.976 12.186 27.162 27.162 27.162 14.976 0 27.162-12.186 27.162-27.162 0-5.796-2.178-11.592-5.184-15.678.72.216 1.584.576 2.592 1.17 2.034 3.078 3.906 8.1 5.526 15.804 1.692 8.082 10.386 46.8 11.34 50.994h10.53V10.638l-43.92-.27v.036zm-30.24 26.658c0-3.636 2.754-6.048 6.48-6.048 1.458 0 3.114.45 4.05.846-.198.432-.36.99-.414 1.35l-.108.036c-.72-.792-1.872-1.476-3.582-1.476-2.16 0-4.662 1.764-4.662 5.256 0 3.402 2.538 5.22 4.824 5.22 2.034 0 3.024-.954 3.906-1.692l.072.072-.252 1.332c-.396.306-1.8 1.17-3.906 1.17-3.816-.018-6.408-2.412-6.408-6.066zm8.928 22.626c-2.016-4.104-2.934-8.262-3.042-12.222.504 0 1.098.018 1.62.018.18 3.798 1.044 8.532 4.014 13.68a9.073 9.073 0 01-2.592-1.476zM35.59 42.894c-.612-.036-1.458-.054-2.25-.072-.468 0-.9-.018-1.26-.018h-.144c-1.026 0-2.61.036-3.636.09.072-1.476.144-2.934.144-4.392v-2.898c0-1.458-.072-2.916-.144-4.356 1.008.054 2.574.09 3.6.09 1.026 0 2.898-.036 3.492-.09a4.907 4.907 0 00-.036.576c0 .234.018.468.036.576a68.204 68.204 0 00-5.292-.216c-.018.72-.054 3.798-.054 4.23 1.998 0 3.276-.09 4.266-.162a3.777 3.777 0 00-.054.648c0 .162.018.414.054.594-1.17-.126-3.78-.144-4.266-.144-.036.558 0 4.212.018 4.536 1.242-.018 4.392-.108 5.544-.216a5.513 5.513 0 00-.036.648c0 .252-.018.396.018.576zm9.918-.054c-.162 0-.738 0-1.062.054-.666-1.008-2.808-4.23-4.266-5.724h-.864v1.35c0 1.458.072 2.916.144 4.374-.288-.054-.81-.054-.918-.054-.108 0-.63 0-.918.054.072-1.458.144-2.916.144-4.374v-2.898c0-1.458-.072-2.916-.144-4.374.648.054 1.458.09 2.106.09.648 0 1.278-.09 1.926-.09 1.908 0 3.654.558 3.654 2.682 0 2.25-2.232 3.06-3.528 3.222.828 1.026 3.798 4.644 4.77 5.742-.324-.054-.9-.054-1.044-.054zm12.78.216h-.558c-.684-.918-7.758-8.316-8.388-8.964-.018.63-.018 1.926-.018 3.186 0 1.674.126 4.248.198 5.616a3.913 3.913 0 00-.72-.054c-.306 0-.54.036-.738.054.144-1.782.18-4.68.18-7.416 0-2.124-.036-3.294-.054-4.374h.558c.72.774 7.758 8.082 8.388 8.73.018-.63.018-1.728.018-2.988 0-1.674-.126-4.248-.198-5.616.18.036.432.054.72.054.306 0 .54-.018.738-.054-.144 1.782-.18 4.68-.18 7.416 0 2.124.036 3.33.054 4.41zM72.832 28.08c3.132 3.852 5.688 9.936 6.048 15.048h.054l2.61-27.018h1.476s-1.674 17.46-2.646 26.154c-1.224 10.872-2.772 15.39-5.742 20.124l-.45-2.07c2.304-4.068 2.97-7.596 3.276-9.468.936-5.814-.396-13.752-4.446-19.944-4.536-6.93-12.654-12.042-22.608-12.042-8.172 0-15.282 3.6-20.25 9.198l-1.206-.954c5.256-5.958 12.888-9.756 21.456-9.756 8.982.018 16.974 4.05 22.428 10.728zM43.69 34.164c0-1.674-1.476-2.214-2.61-2.214-.774 0-1.278.054-1.638.09-.054 1.242-.108 2.376-.108 3.582v.936c.162.018.954.018 1.134.018 1.386-.054 3.222-.486 3.222-2.412zm150.173 7.284c-1.929-13.932-12.646-22.016-26.548-22.016-16.382 0-28.722 11.942-28.722 32.213 0 20.24 12.187 32.212 28.722 32.212 14.912 0 24.802-9.645 26.548-21.618l-11.452-.06c-1.439 7.348-7.441 11.482-14.943 11.482-10.166 0-17.454-7.625-17.454-22.016 0-14.147 7.227-22.016 17.485-22.016 7.624 0 13.595 4.317 14.912 11.82h11.452zM204.266 83h41.031v-9.523h-29.671V56.36h27.313v-9.523h-27.313V29.812h29.426V20.29h-40.786V83zm52.376 0h11.36V60.035h11.575L291.886 83h12.677l-13.565-24.864c7.379-2.97 11.268-9.278 11.268-17.79 0-11.973-7.716-20.056-22.108-20.056h-23.516V83zm11.36-32.396V29.782h10.411c8.482 0 12.279 3.889 12.279 10.564 0 6.675-3.797 10.258-12.218 10.258h-10.472zm96.255-30.314h-11.299v42.746h-.551L322.889 20.29h-10.166V83h11.36V40.285h.521L354.152 83h10.105V20.29z"/></g><defs><clipPath id="clip0"><path fill="#f1f0e4"   transform="transhuttle(.004)" d="M0 0h371.053v90H0z"/></clipPath></defs></svg>