<svg width="456" height="141" viewBox="0 0 456 141" fill="none" xmlns="http://www.w3.org/2000/svg">
<path fill-rule="evenodd" clip-rule="evenodd" d="M101.7 17.1C101.7 29.3 101.9 41.3 101.7 53.6C101.5 62 99.7 70.3 96.6 78.1C89.3 96.4 75.3 111.7 59.5 122.6C58.2 123.5 56.8 124.4 55.5 125.2C46.2 119.2 37.9 111.5 30.7 103.1C18.9 89.1 10.4 71.9 10 52.8V52.6V15H101.7V17.1ZM11.6 52.2C11.8 74.5 24.4 95.8 40.4 111C45.1 115.5 50 119.6 55.4 123.2H55.5C64.1 117.9 71.9 110.9 78.7 103.4C91.2 89.4 100 71.6 100.1 52.1C100.1 40.4 100.1 28.7 100.1 16.9V16.4H11.6V50.8V52.2Z" fill="#f1f0e4" />
<path fill-rule="evenodd" clip-rule="evenodd" d="M422.2 28.2C417.8 28.2 412 28.5999 409.9 28.5999C408.7 28.5999 404 28.3999 402.6 28.3999V29.4999C405 29.9999 406.4 30.7999 406.4 33.0999V65.4999C406.4 67.7999 405 68.8 402.5 69.2V70.3999C403.9 70.3999 408.2 70.2 409.5 70.2C411.5 70.2 417 70.5999 421.4 70.5999C436.8 70.5999 446.2 61.4999 446.2 49.0999C446.2 36.4999 437.2 28.2 422.2 28.2ZM240 28.2999C237.7 28.2999 231.9 28.5999 229.8 28.5999C228.5 28.5999 224.1 28.3999 222.7 28.3999V29.4999C225.4 29.8999 226.4 31.2 226.4 33.2V65.3999C226.4 67.6999 225 68.8 222.7 69.2V70.3999C224.1 70.3999 228.6 70.2 229.7 70.2C231 70.2 235.6 70.3999 237 70.3999V69.2C234.5 68.7 233.1 67.4999 233.1 65.3999V51.0999C233.8 51.1999 234.4 51.2999 235.1 51.3999C238.3 51.8999 240.1 53.4 241.5 55.2C243.8 58.1 248 63.9999 250.2 66.7999C252.9 69.9999 255.5 71.2 259 71.2C260.6 71.2 262.7 71 264 70.7V69.7999C261.3 69.6999 258.7 66.8999 256.8 64.4999C254.8 62.0999 249.8 55.0999 248 52.9999C246.5 51.2999 245.1 50.4999 245.1 50.4999C251.5 48.8999 255.7 45.1999 255.7 39.5999C255.7 32.4999 250 28.2999 240 28.2999ZM372.4 28.2999C370.1 28.2999 364.3 28.5999 362.2 28.5999C360.9 28.5999 356.5 28.3999 355.1 28.3999V29.4999C357.8 29.8999 358.8 31.2 358.8 33.2V65.3999C358.8 67.6999 357.4 68.8 355.1 69.2V70.3999C356.5 70.3999 361 70.2 362.1 70.2C363.4 70.2 368 70.3999 369.4 70.3999V69.2C366.9 68.7 365.5 67.4999 365.5 65.3999V51.0999C366.2 51.1999 366.8 51.2999 367.5 51.3999C370.7 51.8999 372.5 53.4 373.9 55.2C376.2 58.1 380.2 63.9999 382.5 66.7999C385.1 69.9999 387.9 71.2 391.3 71.2C392.9 71.2 395 71 396.3 70.7V69.7999C393.6 69.6999 391.1 66.8999 389.1 64.4999C387.1 62.0999 382.2 55.0999 380.4 52.9999C378.9 51.2999 377.5 50.4999 377.5 50.4999C383.9 48.8999 388.1 45.1999 388.1 39.5999C388 32.4999 382.4 28.2999 372.4 28.2999ZM192.3 28.2999C192.3 28.2999 191.6 30.9999 191 32.3999L177.6 64.7C176.6 67 175.2 68.6999 172.5 69.2999V70.3999L178.6 70.2999C179.5 70.2999 183.1 70.3999 184.5 70.3999V69.2999C182.1 68.6999 181.5 67.6999 181.5 66.5999C181.5 65.7999 181.9 64.6999 182.2 63.8999L185 56.9999H200.7L203.7 63.8999C204.1 64.8999 204.5 65.8999 204.5 66.7999C204.5 67.7999 203.9 68.8999 201.8 69.3999V70.4999C203.4 70.4999 207.9 70.3999 209 70.3999C210.1 70.3999 214.8 70.4999 216.4 70.4999V69.3999C213.6 68.6999 212.5 67.0999 211.5 64.7999L197.2 32.3999C196.6 31.0999 196 28.2999 196 28.2999H192.3ZM325.3 28.2999C325.3 28.2999 324.6 30.9999 324.1 32.3999L310.7 64.7C309.7 67 308.3 68.6999 305.7 69.2999V70.3999L311.9 70.2999C312.8 70.2999 316.3 70.3999 317.7 70.3999V69.2999C315.4 68.6999 314.8 67.6999 314.8 66.5999C314.8 65.7999 315.1 64.6999 315.5 63.8999L318.3 56.9999H334L337 63.8999C337.4 64.8999 337.8 65.8999 337.8 66.7999C337.8 67.7999 337.2 68.8999 335.1 69.3999V70.4999C336.6 70.4999 341.2 70.3999 342.3 70.3999C343.4 70.3999 348.2 70.4999 349.7 70.4999V69.3999C346.9 68.6999 345.8 67.0999 344.8 64.7999L330.6 32.3999C330 31.0999 329.3 28.2999 329.3 28.2999H325.3ZM121.2 28.4999V29.5999C123.3 30.0999 124.6 31 124.6 33.2V65.7999C124.6 67.9999 123.2 68.8999 121.2 69.3999V70.4999L127.7 70.3999C129 70.3999 133.7 70.4999 134.7 70.4999V69.3999C132.6 68.8999 131.3 68.0999 131.3 65.7999V50.3999H155.6V65.7999C155.6 67.9999 154.2 68.8999 152.3 69.3999V70.4999C153.3 70.4999 157.9 70.3999 159.2 70.3999L165.9 70.4999V69.3999C163.8 68.8999 162.4 67.9999 162.4 65.7999V33.2C162.4 31 163.9 30.0999 165.9 29.5999V28.4999L159.2 28.7C157.9 28.7 153.3 28.4999 152.3 28.4999V29.5999C154.4 30.0999 155.6 31 155.6 33.2V46.7999H131.3V33.2C131.3 31 132.8 30.0999 134.7 29.5999V28.4999C133.7 28.4999 129 28.7 127.7 28.7C126.7 28.6 122.2 28.4999 121.2 28.4999ZM262.8 28.5999V29.7999C265.2 30.2999 266.6 31.7999 267.5 33.8999L284 70.7999H287.2L302.3 35.2C303.7 31.9 305.3 30.4999 307.8 29.7999V28.5999C306.3 28.5999 302.4 28.7999 301.4 28.7999C300.4 28.7999 297.1 28.5999 295.7 28.5999V29.7999C297.4 30.0999 298.6 30.9999 298.6 32.2999C298.6 33.4999 298 34.9999 297.2 36.9999L287 61.5999L276.2 36.9999C275 34.3999 274.4 33.0999 274.4 32.0999C274.4 30.6999 276 30 277.3 29.7V28.4999C275.8 28.4999 271.3 28.7 270.3 28.7C269.2 28.8 264.3 28.5999 262.8 28.5999ZM238 30.9999C244.9 30.9999 248.7 34.5 248.7 40.2C248.7 44.2 246.2 48.7 238.4 48.7C236.5 48.7 234.5 48.5999 233.2 48.4999V31.4999C234.8 31.1999 236.4 30.9999 238 30.9999ZM370.4 30.9999C377.3 30.9999 381.1 34.5 381.1 40.2C381.1 44.2 378.6 48.7 370.8 48.7C368.9 48.7 366.9 48.5999 365.6 48.4999V31.4999C367.1 31.1999 368.8 30.9999 370.4 30.9999ZM420.2 30.9999C431.9 30.9999 438.8 38.6999 438.8 49.5999C438.8 60.0999 432.3 67.7 419.7 67.7C417.5 67.7 414.7 67.4999 413.2 67.2999V31.4999C414.8 31.1999 417.8 30.9999 420.2 30.9999ZM192.6 38.0999L199.3 53.7H186.4L192.6 38.0999ZM325.6 38.0999L332.2 53.7H319.3L325.6 38.0999Z" fill="#f1f0e4" />
<path fill-rule="evenodd" clip-rule="evenodd" d="M55.5002 15.6H10.4002L10.2002 51.7C10.2002 96 54.6002 124.2 55.0002 124.4L55.1002 124.5C55.2002 124.5 55.5002 124.3 55.5002 124.3C63.1002 119.4 100.7 92.7 100.7 51.9V15.6H55.5002Z" fill="#f1f0e4" />
<path fill-rule="evenodd" clip-rule="evenodd" d="M78.1006 58.1999C78.1006 58.1999 77.3006 60.6999 73.9006 58.0999L62.1006 57.7999C62.1006 57.7999 60.6006 58.2999 60.3006 56.6999C60.3006 56.6999 60.6006 53.4999 60.4006 53.1999C60.4006 53.1999 60.5006 52.2999 58.9006 52.2999C58.9006 52.2999 56.5006 52.5999 56.5006 50.4999C56.5006 50.4999 56.1006 48.2999 59.4006 48.2999C59.4006 48.2999 60.5006 48.7999 60.5006 47.4999C60.5006 47.4999 60.4006 38.3999 60.4006 37.6999C60.4006 37.6999 60.7006 36.8999 59.1006 36.6999C59.1006 36.6999 56.8006 37.1999 56.5006 35.6999C56.5006 35.6999 56.4006 33.3999 57.9006 33.1999C57.9006 33.1999 59.8006 33.2999 60.1006 32.8999C60.1006 32.8999 60.5006 33.1999 60.5006 31.4999L60.6006 28.5999C60.6006 28.5999 60.8006 27.7999 62.0006 27.8999C62.0006 27.8999 64.2006 27.9999 64.5006 27.7999C64.5006 27.7999 65.0006 27.1999 65.1006 26.8999C65.1006 26.8999 66.2006 26.7999 66.4006 27.0999C66.4006 27.0999 68.1006 28.1999 74.5006 27.7999C74.5006 27.7999 75.5006 27.7999 75.7006 28.0999C75.7006 28.0999 76.9006 28.9999 77.6006 27.9999C77.6006 27.9999 78.7006 27.7999 81.8006 27.8999C81.8006 27.8999 85.2006 28.7999 87.6006 26.7999L88.4006 26.8999C88.4006 26.8999 89.4006 28.4999 90.1006 27.9999C90.1006 27.9999 92.2006 27.7999 92.6006 28.1999C92.6006 28.1999 93.3006 29.1999 92.9006 31.9999C92.9006 31.9999 92.5006 33.1999 94.5006 33.1999C94.5006 33.1999 96.8006 32.7999 96.5006 34.8999C96.5006 34.8999 97.1006 37.3999 93.3006 36.9999C93.3006 36.9999 92.8006 37.6999 92.9006 38.1999C92.9006 38.1999 92.8006 46.1999 92.8006 47.0999C92.8006 47.0999 92.7006 48.3999 94.4006 48.2999C94.4006 48.2999 96.6006 48.1999 96.7006 50.1999C96.7006 50.1999 97.0006 52.8999 93.8006 52.3999C93.8006 52.3999 92.8006 52.4999 92.7006 53.1999L92.6006 56.6999C92.6006 56.6999 92.7006 58.4999 90.7006 57.9999C90.4006 57.9999 79.8006 58.1999 78.9006 57.8999C78.7006 57.9999 78.2006 57.8999 78.1006 58.1999Z" fill="white"/>
<path fill-rule="evenodd" clip-rule="evenodd" d="M55.5004 69.8999C55.5004 69.8999 56.0004 69.6999 56.1004 69.2999C56.1004 69.2999 57.6004 69.1999 57.8004 68.8999L62.4004 69.2999C62.4004 69.2999 67.0004 69.5999 68.9004 68.1999C68.9004 68.1999 69.6004 68.1999 70.1004 68.3999C70.1004 68.3999 71.1004 68.5999 71.4004 68.9999L74.1004 68.8999C74.1004 68.8999 75.6004 69.3999 75.5004 70.3999V71.6999C75.5004 71.6999 75.2004 74.1999 75.9004 74.3999H77.9004C77.9004 74.3999 79.6004 75.1999 79.4004 76.0999C79.4004 76.0999 79.5004 77.4999 78.0004 77.7999C78.0004 77.7999 76.5004 78.1999 76.0004 78.1999C76.0004 78.1999 75.5004 78.7999 75.4004 79.5999L75.2004 88.7999C75.2004 88.7999 75.1004 89.7999 76.5004 89.5999C76.5004 89.5999 78.7004 89.3999 79.3004 90.5999C79.3004 90.5999 79.9004 92.5999 78.7004 92.9999L77.9004 93.3999L76.1004 93.6999C76.1004 93.6999 75.3004 93.7999 75.3004 95.0999V97.4999C75.3004 97.4999 75.4004 99.1999 74.0004 99.1999L72.0004 99.2999C72.0004 99.2999 71.5004 99.6999 70.5004 99.3999C70.5004 99.3999 58.6004 99.5999 58.2004 99.4999L56.8004 99.7999C56.8004 99.7999 55.3004 101.2 54.0004 100.1L53.0004 99.2999C53.0004 99.2999 52.3004 99.3999 52.0004 99.3999C51.7004 99.2999 38.8004 99.4999 38.8004 99.4999C38.8004 99.4999 36.1004 99.7999 35.9004 98.8999C35.9004 98.8999 35.6004 95.2999 35.7004 94.8999C35.7004 94.8999 35.7004 93.8999 35.1004 93.7999C35.1004 93.7999 32.4004 93.6999 32.3004 93.3999C32.3004 93.3999 30.8004 92.3999 31.2004 91.2999C31.2004 91.2999 31.7004 89.8999 33.2004 89.7999C33.2004 89.7999 35.4004 90.1999 35.4004 89.4999C35.4004 89.4999 35.5004 89.0999 35.5004 88.3999C35.5004 88.3999 35.6004 80.0999 35.6004 79.4999C35.6004 79.4999 35.8004 78.3999 34.9004 78.3999C34.9004 78.3999 33.9004 78.6999 33.3004 78.2999C33.3004 78.2999 31.6004 78.3999 31.3004 76.9999C31.3004 76.9999 31.0004 76.1999 31.4004 75.4999C31.4004 75.4999 32.2004 73.9999 34.4004 74.4999C34.4004 74.4999 35.7004 74.8999 35.8004 73.8999L35.7004 70.4999C35.7004 70.4999 35.4004 69.5999 37.2004 69.0999C37.2004 69.0999 39.4004 69.6999 40.1004 68.5999C40.1004 68.5999 40.9004 67.0999 41.5004 68.0999C41.5004 68.0999 42.8004 69.3999 46.5004 69.1999C46.5004 69.1999 52.8004 68.6999 52.9004 68.9999C52.9004 68.9999 54.4004 69.1999 54.9004 69.6999L55.5004 69.8999ZM36.4004 58.1999C36.4004 58.1999 35.6004 60.6999 32.2004 58.0999L20.4004 57.7999C20.4004 57.7999 18.9004 58.2999 18.6004 56.6999C18.6004 56.6999 18.9004 53.4999 18.7004 53.1999C18.7004 53.1999 18.8004 52.2999 17.2004 52.2999C17.2004 52.2999 14.8004 52.5999 14.8004 50.4999C14.8004 50.4999 14.4004 48.1999 17.7004 48.2999C17.7004 48.2999 18.7004 48.7999 18.8004 47.4999C18.8004 47.4999 18.7004 38.3999 18.7004 37.6999C18.7004 37.6999 19.0004 36.8999 17.4004 36.6999C17.4004 36.6999 15.1004 37.1999 14.8004 35.5999C14.8004 35.5999 14.7004 33.2999 16.2004 33.0999C16.2004 33.0999 18.1004 33.1999 18.4004 32.7999C18.4004 32.7999 18.8004 33.0999 18.7004 31.3999L18.8004 28.4999C18.8004 28.4999 19.0004 27.6999 20.2004 27.7999C20.2004 27.7999 22.4004 27.8999 22.7004 27.6999C22.7004 27.6999 23.2004 27.0999 23.3004 26.7999C23.3004 26.7999 24.4004 26.6999 24.6004 26.9999C24.6004 26.9999 26.3004 28.0999 32.7004 27.6999C32.7004 27.6999 33.7004 27.6999 33.9004 27.9999C33.9004 27.9999 35.1004 28.8999 35.8004 27.8999C35.8004 27.8999 36.9004 27.6999 40.0004 27.7999C40.0004 27.7999 43.4004 28.6999 45.8004 26.7999L46.6004 26.8999C46.6004 26.8999 47.6004 28.4999 48.3004 27.9999C48.3004 27.9999 50.4004 27.7999 50.8004 28.1999C50.8004 28.1999 51.5004 29.2999 51.1004 31.9999C51.1004 31.9999 50.7004 33.1999 52.7004 33.1999C52.7004 33.1999 55.0004 32.7999 54.7004 34.8999C54.7004 34.8999 55.3004 37.3999 51.5004 36.9999C51.5004 36.9999 51.0004 37.6999 51.1004 38.1999C51.1004 38.1999 51.0004 46.1999 51.0004 47.0999C51.0004 47.0999 50.9004 48.3999 52.6004 48.2999C52.6004 48.2999 54.8004 48.1999 54.9004 50.1999C54.9004 50.1999 55.2004 52.8999 52.0004 52.3999C52.0004 52.3999 51.0004 52.4999 50.9004 53.1999L50.8004 56.6999C50.8004 56.6999 50.9004 58.4999 48.9004 57.9999C48.6004 57.9999 38.0004 58.1999 37.1004 57.8999C37.0004 57.9999 36.6004 57.8999 36.4004 58.1999Z" fill="white"/>
<path fill-rule="evenodd" clip-rule="evenodd" d="M78.1006 58.1999C78.1006 58.1999 77.3006 60.6999 73.9006 58.0999L62.1006 57.7999C62.1006 57.7999 60.6006 58.2999 60.3006 56.6999C60.3006 56.6999 60.6006 53.4999 60.4006 53.1999C60.4006 53.1999 60.5006 52.2999 58.9006 52.2999C58.9006 52.2999 56.5006 52.5999 56.5006 50.4999C56.5006 50.4999 56.1006 48.2999 59.4006 48.2999C59.4006 48.2999 60.5006 48.7999 60.5006 47.4999C60.5006 47.4999 60.4006 38.3999 60.4006 37.6999C60.4006 37.6999 60.7006 36.8999 59.1006 36.6999C59.1006 36.6999 56.8006 37.1999 56.5006 35.6999C56.5006 35.6999 56.4006 33.3999 57.9006 33.1999C57.9006 33.1999 59.8006 33.2999 60.1006 32.8999C60.1006 32.8999 60.5006 33.1999 60.5006 31.4999L60.6006 28.5999C60.6006 28.5999 60.8006 27.7999 62.0006 27.8999C62.0006 27.8999 64.2006 27.9999 64.5006 27.7999C64.5006 27.7999 65.0006 27.1999 65.1006 26.8999C65.1006 26.8999 66.2006 26.7999 66.4006 27.0999C66.4006 27.0999 68.1006 28.1999 74.5006 27.7999C74.5006 27.7999 75.5006 27.7999 75.7006 28.0999C75.7006 28.0999 76.9006 28.9999 77.6006 27.9999C77.6006 27.9999 78.7006 27.7999 81.8006 27.8999C81.8006 27.8999 85.2006 28.7999 87.6006 26.7999L88.4006 26.8999C88.4006 26.8999 89.4006 28.4999 90.1006 27.9999C90.1006 27.9999 92.2006 27.7999 92.6006 28.1999C92.6006 28.1999 93.3006 29.1999 92.9006 31.9999C92.9006 31.9999 92.5006 33.1999 94.5006 33.1999C94.5006 33.1999 96.8006 32.7999 96.5006 34.8999C96.5006 34.8999 97.1006 37.3999 93.3006 36.9999C93.3006 36.9999 92.8006 37.6999 92.9006 38.1999C92.9006 38.1999 92.8006 46.1999 92.8006 47.0999C92.8006 47.0999 92.7006 48.3999 94.4006 48.2999C94.4006 48.2999 96.6006 48.1999 96.7006 50.1999C96.7006 50.1999 97.0006 52.8999 93.8006 52.3999C93.8006 52.3999 92.8006 52.4999 92.7006 53.1999L92.6006 56.6999C92.6006 56.6999 92.7006 58.4999 90.7006 57.9999C90.4006 57.9999 79.8006 58.1999 78.9006 57.8999C78.7006 57.9999 78.2006 57.8999 78.1006 58.1999Z" fill="#f1f0e4" />
<path fill-rule="evenodd" clip-rule="evenodd" d="M76.5999 54.8C76.5999 54.8 75.2999 54.8 75.2999 56.6C75.2999 56.6 75.3999 57.9 76.7999 57.9C76.7999 57.9 78.0999 57.7 77.8999 56.3C77.9999 56.3 77.2999 54.5 76.5999 54.8ZM92.4999 36.1C92.4999 36.1 91.7999 36.5 91.9999 37.4L91.7999 47.6C91.7999 47.6 91.6999 49.3 93.2999 49.3C93.2999 49.3 94.9999 49.2 95.3999 49.8C95.3999 49.8 96.5999 51.6 93.9999 51.4C93.9999 51.4 92.3999 51.3 91.9999 51.6C91.9999 51.6 91.6999 51.9 91.4999 55.2C91.4999 55.2 91.5999 57.2 90.1999 56.9C90.1999 56.9 80.4999 57 79.4999 56.8C79.4999 56.8 78.4999 57.1 78.3999 56.3C78.3999 56.3 78.3999 55.7 79.3999 55.7L89.1999 55.6C89.1999 55.6 90.0999 56.1 90.0999 54.4C90.0999 54.4 90.4999 46.8 90.4999 38.4C90.4999 35.9 90.5999 33.3 90.4999 30.8C90.4999 30.8 90.2999 29.7 89.9999 29.5C89.9999 29.5 89.9999 28.4 91.1999 28.8C91.1999 28.8 92.2999 28.9 91.9999 30.5L92.0999 32.9C92.0999 32.9 91.8999 34 93.7999 33.7C93.7999 33.7 95.6999 34 95.7999 34.7C95.7999 34.7 96.3999 36.1 94.0999 36H92.4999V36.1ZM62.6999 56.9C61.2999 56.8 61.3999 55.8 61.3999 55.8V53.1C61.4999 51.7 59.9999 51.4 59.9999 51.4C57.9999 51.8 57.4999 50.6 57.4999 50.6C57.3999 49.1 59.7999 49.3 59.7999 49.3C61.7999 49.3 61.1999 47.5 61.1999 47.5L61.2999 36.9C61.1999 35.9 58.5999 35.9 58.5999 35.9C56.9999 36.2 57.3999 34.6 57.3999 34.6C58.1999 33.8 59.8999 33.9 59.8999 33.9C61.3999 34 61.3999 32.4 61.3999 32.4L61.4999 29.5C63.0999 28 63.3999 29.2 63.3999 29.2C62.4999 30.6 62.6999 34 62.6999 34L62.5999 33.7C62.6999 34 62.4999 53.8 62.4999 53.8C62.5999 56 64.0999 55.5 64.0999 55.5L73.1999 55.6C73.9999 55.6 74.0999 56.2 74.0999 56.2C74.0999 56.9 73.4999 56.8 73.4999 56.8H62.6999V56.9ZM64.5999 53.8C64.5999 53.8 64.2999 54.8 65.3999 54.6H72.5999L74.5999 55C74.5999 55 76.5999 54.5 74.5999 53.4C74.5999 53.4 68.1999 53.5 67.5999 53.3L65.9999 52.9C65.9999 52.9 65.2999 52.7 64.5999 53.8ZM77.5999 54.1C77.5999 54.1 78.1999 53.4 78.6999 53.4C78.6999 53.4 85.6999 54 86.8999 53.2C86.8999 53.2 87.9999 53 88.1999 53.2C88.1999 53.2 89.1999 54 89.1999 54.5C89.1999 54.5 89.0999 55.1 87.8999 54.8C87.8999 54.8 79.9999 54.9 79.5999 54.9C79.5999 54.9 77.3999 55.4 77.5999 54.1ZM63.5999 53.7C63.4999 53.7 63.2999 53.7 63.1999 52.9L63.2999 31.9C63.2999 31.9 63.3999 29.3 64.7999 29.4C64.7999 29.4 64.8999 30.8 64.8999 31.2C64.8999 31.5 64.6999 51.5 64.6999 51.5C64.6999 51.5 64.9999 52.9 63.5999 53.7ZM89.9999 33.1L89.6999 52.3C89.5999 53 89.4999 53.4 89.4999 53.4C88.5999 53.6 87.9999 51.6 87.9999 51.6L88.0999 29.5C89.2999 27.8 89.9999 31.2 89.9999 31.2V33.1ZM76.9999 29.8C76.9999 29.8 76.7999 40.4 76.8999 40.7L76.7999 49.6L76.4999 52.7C76.4999 52.7 76.8999 53.3 77.2999 52.9C77.2999 52.9 79.4999 52.3 80.8999 52.6C80.8999 52.6 85.3999 53 86.2999 52.3C86.2999 52.3 86.9999 52.7 87.1999 51.5C87.1999 51.5 87.4999 31.9 87.2999 31.5C87.2999 31.5 87.5999 28.7 87.3999 28.4C87.3999 28.4 87.2999 27.8 86.0999 28.3C86.0999 28.3 86.1999 28.9 79.5999 28.6C79.5999 28.8 77.0999 28.7 76.9999 29.8ZM65.8999 28.7L65.6999 51.2C65.6999 51.2 65.5999 52.2 67.3999 52.5C67.3999 52.5 69.3999 52.7 69.8999 52.5C69.8999 52.5 71.1999 52.4 74.6999 52.6C74.6999 52.6 75.4999 53.4 75.5999 52.4C75.5999 52.4 76.1999 34.2 75.8999 30.4C75.8999 30.4 75.7999 28.8 74.5999 28.7C74.5999 28.7 69.2999 29.1 68.7999 28.7L66.6999 28.1C66.6999 28.1 65.7999 28.1 65.8999 28.7Z" fill="white"/>
<path fill-rule="evenodd" clip-rule="evenodd" d="M72.0006 35.6999C74.8006 36.5999 74.4006 38.5999 74.4006 38.5999C74.6006 40.5999 72.4006 41.4999 72.4006 41.4999L72.3006 42.5999L74.3006 45.7999C74.6006 46.0999 74.6006 46.3999 74.6006 46.3999C74.3006 47.1999 73.2006 46.3999 73.2006 46.3999L70.7006 42.4999C70.5006 42.1999 70.1006 42.6999 70.1006 42.6999L70.0006 44.8999L70.6006 45.8999C71.0006 46.4999 70.3006 46.8999 70.3006 46.8999L68.1006 46.6999C67.7006 46.4999 68.1006 45.7999 68.1006 45.7999C68.7006 45.4999 68.7006 44.4999 68.7006 44.4999L68.6006 40.3999L68.7006 37.4999C68.7006 37.0999 68.1006 36.4999 68.1006 36.4999C67.6006 36.3999 67.8006 35.7999 67.8006 35.7999C67.9006 35.3999 69.1006 35.6999 69.1006 35.6999H72.0006V35.6999ZM79.5006 36.1999C79.3006 35.5999 80.7006 35.5999 80.7006 35.5999L81.4006 35.6999C81.9006 35.5999 82.4006 35.7999 82.4006 35.7999C82.9006 36.5999 82.0006 36.9999 82.0006 36.9999L81.7006 37.8999C81.6006 38.6999 81.7006 45.2999 81.7006 45.2999C81.8006 45.5999 82.4006 46.2999 82.4006 46.2999C82.4006 46.8999 81.6006 46.7999 81.6006 46.7999L79.6006 46.8999C79.0006 46.7999 79.2006 46.0999 79.2006 46.0999C79.9006 45.7999 80.1006 44.4999 80.1006 44.4999V37.5999L79.5006 36.1999ZM70.1006 37.1999C70.2006 38.6999 70.2006 40.7999 70.2006 40.7999C71.5006 41.8999 72.3006 40.3999 72.3006 40.3999C74.0006 38.6999 72.3006 37.1999 72.0006 36.7999C71.7006 36.3999 70.3006 36.6999 70.3006 36.6999L70.1006 37.1999ZM55.5006 69.8999C55.5006 69.8999 56.0006 69.6999 56.1006 69.2999C56.1006 69.2999 57.6006 69.1999 57.8006 68.8999L62.4006 69.2999C62.4006 69.2999 67.0006 69.5999 68.9006 68.1999C68.9006 68.1999 69.6006 68.1999 70.1006 68.3999C70.1006 68.3999 71.1006 68.5999 71.4006 68.9999L74.1006 68.8999C74.1006 68.8999 75.6006 69.3999 75.5006 70.3999V71.6999C75.5006 71.6999 75.2006 74.1999 75.9006 74.3999H77.9006C77.9006 74.3999 79.6006 75.1999 79.4006 76.0999C79.4006 76.0999 79.5006 77.4999 78.0006 77.7999C78.0006 77.7999 76.5006 78.1999 76.0006 78.1999C76.0006 78.1999 75.5006 78.7999 75.4006 79.5999L75.2006 88.7999C75.2006 88.7999 75.1006 89.7999 76.5006 89.5999C76.5006 89.5999 78.7006 89.3999 79.3006 90.5999C79.3006 90.5999 79.9006 92.5999 78.7006 92.9999L77.9006 93.3999L76.1006 93.6999C76.1006 93.6999 75.3006 93.7999 75.3006 95.0999V97.4999C75.3006 97.4999 75.4006 99.1999 74.0006 99.1999L72.0006 99.2999C72.0006 99.2999 71.5006 99.6999 70.5006 99.3999C70.5006 99.3999 58.6006 99.5999 58.2006 99.4999L56.8006 99.7999C56.8006 99.7999 55.3006 101.2 54.0006 100.1L53.0006 99.2999C53.0006 99.2999 52.3006 99.3999 52.0006 99.3999C51.7006 99.2999 38.8006 99.4999 38.8006 99.4999C38.8006 99.4999 36.1006 99.7999 35.9006 98.8999C35.9006 98.8999 35.6006 95.2999 35.7006 94.8999C35.7006 94.8999 35.7006 93.8999 35.1006 93.7999C35.1006 93.7999 32.4006 93.6999 32.3006 93.3999C32.3006 93.3999 30.8006 92.3999 31.2006 91.2999C31.2006 91.2999 31.7006 89.8999 33.2006 89.7999C33.2006 89.7999 35.4006 90.1999 35.4006 89.4999C35.4006 89.4999 35.5006 89.0999 35.5006 88.3999C35.5006 88.3999 35.6006 80.0999 35.6006 79.4999C35.6006 79.4999 35.8006 78.3999 34.9006 78.3999C34.9006 78.3999 33.9006 78.6999 33.3006 78.2999C33.3006 78.2999 31.6006 78.3999 31.3006 76.9999C31.3006 76.9999 31.0006 76.1999 31.4006 75.4999C31.4006 75.4999 32.2006 73.9999 34.4006 74.4999C34.4006 74.4999 35.7006 74.8999 35.8006 73.8999L35.7006 70.4999C35.7006 70.4999 35.4006 69.5999 37.2006 69.0999C37.2006 69.0999 39.4006 69.6999 40.1006 68.5999C40.1006 68.5999 40.9006 67.0999 41.5006 68.0999C41.5006 68.0999 42.8006 69.3999 46.5006 69.1999C46.5006 69.1999 52.8006 68.6999 52.9006 68.9999C52.9006 68.9999 54.4006 69.1999 54.9006 69.6999L55.5006 69.8999Z" fill="#f1f0e4" />
<path fill-rule="evenodd" clip-rule="evenodd" d="M55.0999 96.0999C55.0999 96.0999 56.2999 96.2999 56.2999 97.3999C56.2999 98.4999 56.3999 99.1999 55.6999 99.2999C54.9999 99.3999 54.1999 99.1999 53.9999 98.2999C53.7999 97.4999 54.0999 96.2999 55.0999 96.0999ZM38.7999 70.7999C38.7999 70.7999 37.9999 72.3 37.9999 72.7L37.8999 77.3999C37.8999 77.3999 37.7999 80.3999 37.8999 80.7999C37.9999 81.0999 37.7999 89.9999 37.7999 89.9999C37.7999 89.9999 37.6999 91.7 37.7999 92.2V95.9999C37.7999 95.9999 37.6999 97.6999 38.8999 97.2999C38.8999 97.2999 51.1999 97 51.9999 97.2C51.9999 97.2 53.0999 97.3999 52.6999 97.9999C52.6999 97.9999 52.6999 98.4999 51.8999 98.3999C51.8999 98.3999 46.0999 99 40.7999 98.7C40.7999 98.7 37.2999 98.8999 37.0999 98.4999C37.0999 98.4999 36.4999 98.3999 36.4999 96.3999C36.4999 96.3999 36.4999 94.5 36.3999 94.2C36.3999 94.2 36.4999 93.1999 34.7999 92.9999C34.7999 92.9999 32.2999 93.3999 32.2999 91.9999C32.2999 91.9999 32.5999 90.8999 34.9999 91.0999C34.9999 91.0999 36.7999 91.3999 36.3999 89.9999L36.5999 79.5999C36.5999 79.5999 36.7999 77.8 35.5999 77.7C35.5999 77.7 34.4999 77.5999 34.0999 77.7999C34.0999 77.7999 32.0999 77.7999 32.1999 76.5999C32.1999 76.5999 32.8999 75.2999 34.8999 75.5999C34.8999 75.5999 36.3999 75.8999 36.4999 74.0999C36.4999 74.0999 36.3999 70.4999 37.2999 70.3999C37.4999 70.2999 39.2999 70.2999 38.7999 70.7999ZM72.8999 70.2999C73.0999 70.1999 74.0999 69.9999 74.2999 70.3999C74.2999 70.3999 74.8999 72.0999 74.3999 73.0999C74.3999 73.0999 74.2999 75.0999 75.2999 75.0999C75.2999 75.0999 75.6999 75.4999 76.5999 75.2999C76.5999 75.2999 78.3999 75.4999 78.3999 76.0999C78.3999 76.0999 78.3999 77.4 77.0999 77.2L75.3999 77.2999C75.3999 77.2999 74.2999 77.4999 74.3999 78.7999C74.4999 80.0999 74.2999 89.7 74.2999 89.7C74.2999 89.7 74.2999 90.7999 76.0999 90.7999C76.0999 90.7999 78.2999 90.6999 78.2999 91.3999C78.2999 91.3999 78.8999 92.7999 77.2999 92.8999C77.2999 92.8999 74.3999 92.8 74.5999 93.7C74.5999 93.7 74.3999 95.6999 74.1999 95.9999C74.1999 95.9999 74.4999 97.5999 74.0999 97.8999C74.0999 97.8999 73.8999 98.8 71.9999 98.7C71.9999 98.7 59.8999 98.5999 58.0999 98.7999C58.0999 98.7999 56.9999 98.7 57.2999 97.7C57.2999 97.7 58.0999 97.2999 58.6999 97.3999C59.2999 97.4999 67.4999 97.2999 67.4999 97.2999C67.4999 97.2999 71.0999 97.5999 71.5999 97.0999L72.3999 96.7999C72.3999 96.7999 72.7999 96.3999 72.7999 95.7999C72.7999 95.1999 72.8999 93.2999 72.8999 93.2999L73.0999 92.5999C73.0999 92.5999 72.9999 91.9 73.0999 73.2C73.0999 73.2 73.3999 71.6999 72.4999 70.7999C72.4999 70.7999 72.4999 70.1999 72.7999 70.2999H72.8999ZM67.3999 94.8999C67.4999 94.8999 69.0999 94.8999 69.5999 94.2999C69.5999 94.2999 70.0999 94.2 70.3999 94.7L71.3999 95.7999C71.3999 95.7999 71.4999 96.4999 70.2999 96.3999C70.0999 96.3999 58.8999 96.3999 58.4999 96.4999C58.4999 96.4999 56.2999 96.8 56.4999 95.7C56.4999 95.7 57.7999 94.8999 58.2999 94.9999C58.2999 94.9999 64.6999 95.3999 66.5999 95.0999C67.4999 94.8999 67.6999 94.8999 67.6999 94.8999H67.3999ZM40.8999 93.9999C40.8999 93.9999 41.0999 94.1999 41.3999 94.3999C41.7999 94.6999 42.5999 94.9999 43.4999 94.9999L52.9999 95.0999H53.0999C53.0999 95.0999 54.1999 95.2 54.0999 95.7C54.0999 95.7 53.9999 96.4999 52.6999 96.2999L41.1999 96.2L39.9999 96.2999C39.9999 96.2999 39.1999 96.1999 40.4999 94.4999L40.8999 93.9999ZM40.1999 92.9999C40.1999 93.4999 40.0999 94.3999 39.1999 94.9999C39.1999 94.9999 38.5999 95.7999 38.5999 94.5999L38.8999 72.9999C38.8999 72.9999 38.9999 71.4 39.9999 70.7C39.9999 70.7 40.4999 70.6999 40.3999 71.4999L40.1999 92.7V92.9999ZM71.5999 94.9999C71.1999 94.7999 70.2999 93.2 70.2999 93.2L70.3999 92.7L70.4999 71.2C70.4999 70.1 71.3999 70.7999 71.3999 70.7999L72.1999 72.2999C71.9999 73.3999 72.1999 74.0999 72.1999 74.0999L72.0999 94.2999C72.2999 95.6999 71.6999 95.0999 71.5999 94.9999ZM54.7999 83.4999C54.7999 83.4999 54.8999 85.1999 54.6999 86.7999C54.5999 87.6999 54.9999 91.7999 54.5999 93.8999C54.5999 93.8999 54.4999 94.5999 53.0999 93.9999C53.0999 93.9999 44.0999 94.1999 43.8999 93.8999C43.8999 93.8999 41.3999 94 41.1999 92.7C41.1999 92.7 41.4999 83.1 41.2999 82.7C41.2999 82.7 41.1999 77.3999 41.2999 76.9999C41.2999 76.9999 41.4999 72.1999 41.3999 71.5999C41.3999 71.5999 41.4999 70.4999 41.2999 69.8999C41.2999 69.8999 41.2999 69.1999 42.4999 69.5999C42.4999 69.5999 42.8999 70.3999 45.1999 69.9999C45.1999 69.9999 46.8999 70.2999 48.4999 70.0999C48.4999 70.0999 52.0999 69.7999 52.9999 70.0999C52.9999 70.0999 54.3999 69.7999 54.7999 71.3999L54.6999 75.7L55.0999 77.0999L55.5999 76.7999L55.7999 75.7L55.8999 71.0999C55.8999 71.0999 56.1999 70.2999 57.2999 70.0999C57.2999 70.0999 59.0999 69.8999 59.2999 69.9999C59.5999 70.0999 63.3999 70.2999 64.3999 70.0999C65.3999 69.8999 65.6999 70.8 68.7999 69.2C68.7999 69.2 69.5999 69.2999 69.5999 69.7999C69.5999 69.7999 69.2999 75.7999 69.5999 76.8999C69.5999 76.8999 69.5999 87.7999 69.3999 88.5999L69.4999 92.0999C69.4999 92.0999 69.5999 93.5999 67.1999 93.7999C67.1999 93.7999 68.6999 94 59.0999 93.7C59.0999 93.7 57.5999 93.5999 55.8999 94.3999C55.8999 94.3999 55.5999 94.2999 55.5999 93.3999C55.5999 93.3999 55.8999 90.0999 55.5999 86.8999L55.4999 83.2999L54.7999 83.4999Z" fill="white"/>
<path fill-rule="evenodd" clip-rule="evenodd" d="M48.5004 78.4999C48.5004 78.4999 48.7004 83.6999 48.5004 84.3999L48.4004 85.4999C48.4004 85.4999 48.7004 86.2999 49.1004 86.4999C49.1004 86.4999 49.5004 87.4999 48.6004 87.3999C48.6004 87.3999 46.9004 87.2999 46.4004 87.2999C46.4004 87.2999 45.4004 87.2999 46.4004 85.9999C46.4004 85.9999 46.7004 85.4999 46.7004 84.1999C46.7004 84.1999 46.7004 78.2999 46.8004 77.9999C46.8004 77.9999 46.9004 77.1999 46.4004 76.9999L45.6004 77.0999L44.6004 78.0999C44.6004 78.0999 44.4004 79.1999 43.9004 77.9999V77.3999L44.5004 75.6999L44.9004 75.5999C44.9004 75.5999 45.5004 75.9999 46.1004 76.1999H49.4004L50.6004 75.5999C50.6004 75.5999 51.1004 75.6999 51.0004 76.2999C51.0004 76.2999 51.2004 77.8999 50.3004 78.0999C50.3004 78.0999 49.7004 77.8999 49.5004 77.0999C49.4004 77.3999 48.5004 76.8999 48.5004 78.4999ZM63.9004 76.6999C63.9004 76.6999 61.2004 76.4999 61.2004 79.3999C61.2004 79.3999 60.9004 81.3999 63.9004 82.5999C63.9004 82.5999 66.1004 83.5999 65.9004 84.9999C65.9004 84.9999 65.6004 87.3999 63.3004 86.1999C63.3004 86.1999 62.2004 85.5999 62.3004 84.9999C62.3004 84.9999 61.9004 84.1999 61.5004 84.3999C61.5004 84.3999 61.0004 84.4999 61.2004 86.8999C61.2004 86.8999 61.2004 87.7999 62.2004 86.8999L62.8004 86.9999C62.8004 86.9999 64.7004 88.4999 66.3004 86.5999C66.3004 86.5999 68.1004 84.9999 66.8004 82.9999C66.8004 82.9999 65.9004 81.5999 64.3004 80.8999C64.3004 80.8999 62.8004 80.1999 62.4004 78.9999C62.4004 78.9999 62.9004 76.8999 64.8004 77.9999C64.8004 77.9999 65.5004 78.7999 65.9004 78.9999C65.9004 78.9999 66.5004 78.9999 66.3004 77.6999L66.2004 76.6999C66.2004 76.6999 66.1004 75.8999 65.1004 76.6999C65.1004 76.6999 64.2004 76.9999 63.9004 76.6999ZM55.4004 75.1999C55.9004 75.5999 56.0004 76.2999 56.0004 76.2999C57.4004 79.9999 58.6004 85.3999 58.6004 85.3999C58.9004 86.0999 59.6004 86.6999 59.6004 86.6999C60.8004 87.0999 59.6004 87.4999 59.6004 87.4999C59.1004 87.6999 57.5004 87.3999 57.5004 87.3999C56.7004 87.1999 57.0004 86.9999 57.0004 86.9999C57.4004 86.6999 57.1004 85.1999 57.1004 85.1999C57.0004 84.5999 56.4004 83.6999 56.4004 83.6999C56.1004 83.5999 55.6004 84.1999 55.6004 84.1999C55.6004 84.1999 54.8004 84.4999 54.8004 84.1999C54.7004 83.8999 54.2004 83.6999 54.2004 83.6999C53.4004 83.6999 53.0004 85.7999 53.0004 85.7999C53.5004 87.5999 53.0004 87.2999 53.0004 87.2999C52.6004 87.8999 51.2004 87.4999 51.2004 87.4999C50.6004 87.2999 51.0004 86.8999 51.0004 86.8999C51.8004 86.7999 52.0004 85.8999 52.0004 85.8999C52.4004 85.3999 54.6004 76.2999 54.6004 76.2999C54.8004 75.6999 54.9004 74.7999 55.4004 75.1999ZM54.3004 79.7999C54.2004 80.1999 53.7004 82.0999 53.7004 82.0999L54.1004 82.7999C54.1004 82.7999 55.2004 82.8999 55.6004 82.8999C56.0004 82.8999 56.1004 82.5999 56.1004 82.1999C56.1004 81.8999 55.3004 79.7999 55.3004 79.7999L54.9004 79.3999L54.3004 79.7999ZM36.4004 58.1999C36.4004 58.1999 35.6004 60.6999 32.2004 58.0999L20.4004 57.7999C20.4004 57.7999 18.9004 58.2999 18.6004 56.6999C18.6004 56.6999 18.9004 53.4999 18.7004 53.1999C18.7004 53.1999 18.8004 52.2999 17.2004 52.2999C17.2004 52.2999 14.8004 52.5999 14.8004 50.4999C14.8004 50.4999 14.4004 48.1999 17.7004 48.2999C17.7004 48.2999 18.7004 48.7999 18.8004 47.4999C18.8004 47.4999 18.7004 38.3999 18.7004 37.6999C18.7004 37.6999 19.0004 36.8999 17.4004 36.6999C17.4004 36.6999 15.1004 37.1999 14.8004 35.5999C14.8004 35.5999 14.7004 33.2999 16.2004 33.0999C16.2004 33.0999 18.1004 33.1999 18.4004 32.7999C18.4004 32.7999 18.8004 33.0999 18.7004 31.3999L18.8004 28.4999C18.8004 28.4999 19.0004 27.6999 20.2004 27.7999C20.2004 27.7999 22.4004 27.8999 22.7004 27.6999C22.7004 27.6999 23.2004 27.0999 23.3004 26.7999C23.3004 26.7999 24.4004 26.6999 24.6004 26.9999C24.6004 26.9999 26.3004 28.0999 32.7004 27.6999C32.7004 27.6999 33.7004 27.6999 33.9004 27.9999C33.9004 27.9999 35.1004 28.8999 35.8004 27.8999C35.8004 27.8999 36.9004 27.6999 40.0004 27.7999C40.0004 27.7999 43.4004 28.6999 45.8004 26.7999L46.6004 26.8999C46.6004 26.8999 47.6004 28.4999 48.3004 27.9999C48.3004 27.9999 50.4004 27.7999 50.8004 28.1999C50.8004 28.1999 51.5004 29.2999 51.1004 31.9999C51.1004 31.9999 50.7004 33.1999 52.7004 33.1999C52.7004 33.1999 55.0004 32.7999 54.7004 34.8999C54.7004 34.8999 55.3004 37.3999 51.5004 36.9999C51.5004 36.9999 51.0004 37.6999 51.1004 38.1999C51.1004 38.1999 51.0004 46.1999 51.0004 47.0999C51.0004 47.0999 50.9004 48.3999 52.6004 48.2999C52.6004 48.2999 54.8004 48.1999 54.9004 50.1999C54.9004 50.1999 55.2004 52.8999 52.0004 52.3999C52.0004 52.3999 51.0004 52.4999 50.9004 53.1999L50.8004 56.6999C50.8004 56.6999 50.9004 58.4999 48.9004 57.9999C48.6004 57.9999 38.0004 58.1999 37.1004 57.8999C37.0004 57.9999 36.6004 57.8999 36.4004 58.1999Z" fill="#f1f0e4" />
<path fill-rule="evenodd" clip-rule="evenodd" d="M23.2006 29.2999C23.2006 29.2999 23.3006 30.6999 23.3006 30.9999C23.3006 31.2999 23.1006 51.2999 23.1006 51.2999C23.1006 51.2999 23.3006 52.7999 22.0006 53.5999C22.0006 53.5999 21.7006 53.6999 21.6006 52.7999L21.7006 31.7999C21.7006 31.7999 21.8006 29.1999 23.2006 29.2999ZM46.4006 29.5999L46.3006 51.6999C46.3006 51.6999 46.9006 53.6999 47.8006 53.4999C47.8006 53.4999 47.9006 53.0999 48.0006 52.3999L48.3006 31.2999C48.3006 31.1999 47.6006 27.8999 46.4006 29.5999Z" fill="#f1f0e4" stroke="#5b5f78" stroke-width="0.0605494"/>
<path fill-rule="evenodd" clip-rule="evenodd" d="M34.6997 54.9999C34.6997 54.9999 33.3997 54.9999 33.3997 56.6999C33.3997 56.6999 33.4997 57.9999 34.8997 57.9999C34.8997 57.9999 36.1997 57.7999 35.9997 56.3999C36.0997 56.4999 35.3997 54.6999 34.6997 54.9999ZM50.7997 36.0999C50.7997 36.0999 50.0997 36.4999 50.2997 37.3999L50.0997 47.5999C50.0997 47.5999 49.9997 49.3999 51.5997 49.2999C51.5997 49.2999 53.3997 49.1999 53.6997 49.7999C53.6997 49.7999 54.8997 51.5999 52.2997 51.3999C52.2997 51.3999 50.6997 51.2999 50.2997 51.5999C50.2997 51.5999 49.9997 51.9999 49.7997 55.1999C49.7997 55.1999 49.8997 57.1999 48.4997 56.9999C48.4997 56.9999 38.7997 57.0999 37.8997 56.8999C37.8997 56.8999 36.8997 57.1999 36.7997 56.3999C36.7997 56.3999 36.7997 55.7999 37.7997 55.7999L47.5997 55.6999C47.5997 55.6999 48.4997 56.1999 48.4997 54.4999C48.4997 54.4999 48.8997 46.8999 48.8997 38.3999C48.8997 35.8999 48.9997 33.2999 48.8997 30.7999C48.8997 30.7999 48.6997 29.7999 48.3997 29.4999C48.3997 29.4999 48.3997 28.3999 49.5997 28.7999C49.5997 28.7999 50.5997 28.8999 50.3997 30.4999L50.4997 32.9999C50.4997 32.9999 50.2997 33.9999 52.1997 33.7999C52.1997 33.7999 54.0997 34.0999 54.1997 34.7999C54.1997 34.7999 54.7997 36.1999 52.4997 36.0999H50.7997ZM20.9997 56.8999C19.5997 56.7999 19.6997 55.7999 19.6997 55.7999V53.0999C19.7997 51.6999 18.2997 51.3999 18.2997 51.3999C16.2997 51.7999 15.7997 50.5999 15.7997 50.5999C15.6997 49.0999 18.0997 49.2999 18.0997 49.2999C20.0997 49.2999 19.4997 47.4999 19.4997 47.4999L19.5997 36.8999C19.4997 35.8999 16.8997 35.8999 16.8997 35.8999C15.2997 36.1999 15.6997 34.5999 15.6997 34.5999C16.4997 33.7999 18.1997 33.8999 18.1997 33.8999C19.6997 33.9999 19.6997 32.3999 19.6997 32.3999L19.7997 29.4999C21.3997 27.9999 21.6997 29.1999 21.6997 29.1999C20.7997 30.5999 20.9997 33.9999 20.9997 33.9999L20.8997 33.6999C20.9997 34.0999 20.7997 53.7999 20.7997 53.7999C20.8997 55.9999 22.3997 55.4999 22.3997 55.4999L31.4997 55.5999C32.2997 55.5999 32.3997 56.1999 32.3997 56.1999C32.3997 56.8999 31.7997 56.7999 31.7997 56.7999L20.9997 56.8999ZM23.4997 54.7999C22.4997 54.9999 22.6997 53.9999 22.6997 53.9999C23.2997 52.7999 23.9997 53.0999 23.9997 53.0999C24.2997 53.1999 25.5997 53.4999 25.5997 53.4999C26.1997 53.5999 32.5997 53.5999 32.5997 53.5999C34.5997 54.6999 32.5997 55.1999 32.5997 55.1999L30.5997 54.7999H23.4997ZM35.6997 54.2999C35.6997 54.2999 36.2997 53.5999 36.7997 53.5999C36.7997 53.5999 43.7997 54.1999 44.9997 53.3999C44.9997 53.3999 46.0997 53.1999 46.2997 53.3999C46.2997 53.3999 47.3997 54.1999 47.3997 54.6999C47.3997 54.6999 47.2997 55.2999 46.0997 54.9999C46.0997 54.9999 38.1997 55.0999 37.7997 55.0999C37.6997 55.0999 35.4997 55.5999 35.6997 54.2999ZM23.1997 29.2999C23.1997 29.2999 23.2997 30.6999 23.2997 30.9999C23.2997 31.2999 23.0997 51.2999 23.0997 51.2999C23.0997 51.2999 23.2997 52.7999 21.9997 53.5999C21.9997 53.5999 21.6997 53.6999 21.5997 52.7999L21.6997 31.7999C21.6997 31.7999 21.7997 29.1999 23.1997 29.2999ZM46.3997 29.5999L46.2997 51.6999C46.2997 51.6999 46.8997 53.6999 47.7997 53.4999C47.7997 53.4999 47.8997 53.0999 47.9997 52.3999L48.2997 31.2999C48.2997 31.1999 47.5997 27.8999 46.3997 29.5999ZM35.2997 29.6999C35.2997 29.6999 35.0997 40.2999 35.1997 40.5999L35.0997 49.4999L34.7997 52.5999C34.7997 52.5999 35.1997 53.1999 35.5997 52.7999C35.5997 52.7999 37.7997 52.1999 39.1997 52.4999C39.1997 52.4999 43.6997 52.8999 44.5997 52.1999C44.5997 52.1999 45.2997 52.4999 45.4997 51.3999C45.4997 51.3999 45.7997 31.7999 45.5997 31.3999C45.5997 31.3999 45.8997 28.5999 45.6997 28.2999C45.6997 28.2999 45.5997 27.6999 44.3997 28.1999C44.3997 28.1999 44.4997 28.7999 37.8997 28.5999C37.9997 28.6999 35.3997 28.5999 35.2997 29.6999ZM24.1997 28.6999L23.9997 51.1999C23.9997 51.1999 23.8997 52.1999 25.6997 52.4999C25.6997 52.4999 27.6997 52.6999 28.1997 52.4999C28.1997 52.4999 29.4997 52.3999 32.9997 52.5999C32.9997 52.5999 33.7997 53.3999 33.8997 52.3999C33.8997 52.3999 34.4997 34.1999 34.1997 30.3999C34.1997 30.3999 34.0997 28.7999 32.8997 28.6999C32.8997 28.6999 27.5997 29.0999 27.0997 28.6999L24.9997 28.0999C24.9997 28.0999 24.0997 28.0999 24.1997 28.6999Z" fill="white"/>
<path fill-rule="evenodd" clip-rule="evenodd" d="M37.1998 37.3L37.0998 44.7L36.8998 45.3C36.8998 45.3 36.1998 46.2 36.6998 46.3C36.6998 46.3 36.0998 46.7 41.1998 46.8C41.1998 46.8 43.1998 47.1 42.6998 44.6C42.6998 44.6 42.4998 43.7 41.7998 45C41.7998 45 41.5998 46.1 39.0998 45.8C39.0998 45.8 38.4998 45.3 38.4998 44.8V41.7C38.4998 41.7 38.3998 40.9 39.5998 41C39.5998 41 40.8998 41.8 41.0998 41.5C41.0998 41.5 41.5998 40.4 41.0998 39.7C41.0998 39.7 40.4998 39.6 40.3998 39.9C40.3998 39.9 39.9998 40.7 38.7998 40.2C38.7998 40.2 38.1998 39.1 38.5998 38.2C38.5998 38.2 38.4998 36.4 39.6998 36.6C39.6998 36.6 41.0998 36.9 41.1998 37.3C41.1998 37.3 41.4998 38.1 41.8998 37.2L41.4998 36C41.4998 36 41.2998 35.5 40.8998 35.6C40.8998 35.6 38.4998 36 38.1998 35.7L36.2998 35.9C36.2998 35.9 35.9998 36.6 36.8998 36.9C36.9998 36.9 37.1998 37.1 37.1998 37.3ZM33.0998 36.2L32.4998 37.5C32.4998 37.5 30.9998 44.3 30.0998 45.7C30.0998 45.7 29.9998 47.1 28.7998 46C28.7998 46 26.0998 37.4 25.8998 37.1L24.9998 36.5C24.9998 36.5 24.3998 35.7 25.3998 35.7L27.9998 35.8C27.9998 35.8 28.7998 36.5 27.6998 37.3C27.6998 37.3 27.7998 38.4 29.2998 42.7C29.2998 42.7 29.6998 44.3 30.1998 43.1L31.5998 38.1L31.1998 36.6C31.1998 36.6 30.7998 35.9 31.3998 35.8C31.4998 35.8 32.8998 35.7 33.0998 36.2Z" fill="#f1f0e4" />
<path fill-rule="evenodd" clip-rule="evenodd" d="M178.5 92.5C178.5 91.6 177.9 90.9 176.6 90.6V90L180.3 90.1C180.9 90.1 183.1 90 183.8 90V90.6C182.6 90.8 182 91.5 182 92.5V104.4C182 108.2 184.1 110.3 188.4 110.3C192.1 110.3 195.1 108.6 195.1 104.7V92.4C195.1 91.5 194.5 90.8 193.1 90.5V89.9C193.6 89.9 195.5 90 196.2 90L199.3 89.9V90.5C197.9 90.8 197.3 91.4 197.3 92.4V104C197.3 109.2 194.3 112.2 187.7 112.2C181.6 112.2 178.5 109.4 178.5 104.5V92.5ZM204.6 111.3C206 111 206.6 110.3 206.6 109.4V92.9C206.6 91.5 205.9 90.9 204.6 90.5V89.9C205.3 90 206.5 90 207.1 90C207.7 90 208.5 90 209.1 89.9L223.4 106.7V92.3C223.4 91.4 222.8 90.7 221.4 90.4V89.8C221.9 89.8 223.8 89.9 224.4 89.9L227.5 89.8V90.4C226.1 90.7 225.5 91.3 225.5 92.3V112.1H224.6C224.1 112 223 111.4 221.5 109.7L208.7 94.8V109.3C208.7 110.2 209.2 110.9 210.6 111.2V111.8C210.1 111.8 208.2 111.7 207.6 111.7L204.6 111.8V111.3ZM317.5 106.8H318.1C318.4 108 319.1 109.2 320.1 109.8C321.1 110.5 322.7 110.9 324 110.9C326.9 110.9 328.7 109.5 328.7 107.2C328.7 104.9 326.4 103.7 323.6 102.3C321.5 101.3 317.4 99.5 317.4 95.6C317.4 91.9 320.2 89.6 324.7 89.6C327.7 89.6 329.1 90.3 331.1 90.2V94.7H330.5C329.7 92.1 327.3 91.1 324.7 91.1C321.8 91.1 320.7 92.8 320.7 94.5C320.7 96.9 323.1 98.2 325.8 99.4C328.8 100.8 332.1 102.5 332.1 106.3C332.1 109.9 329.3 112.5 324.1 112.5C321 112.5 319.2 111.6 317.6 111.4L317.5 106.8ZM379 102.8L373.2 93.5C372.2 91.9 371.4 91 370.3 90.6V90C371.1 90 373.3 90.1 373.9 90.1C374.5 90.1 376.8 90 377.6 90V90.6C376.9 90.7 376.5 91.1 376.5 91.7C376.5 92.2 376.8 92.8 377.2 93.4C377.5 93.9 381.5 100.5 381.5 100.5L385.6 93.4C386 92.7 386.3 92 386.3 91.5C386.3 91.1 386 90.7 385.3 90.6V90C386 90 387.5 90.1 387.9 90.1C388.4 90.1 390.1 90 390.8 90V90.6C389.2 91.3 388.2 92.6 387.3 94.3L382 103.2L379 102.8ZM382.3 101.9V109.4C382.3 110.1 382.9 111.1 384.1 111.3V111.9L380.4 111.8C379.8 111.8 377.6 111.9 376.8 111.9V111.3C378.1 111.1 378.7 110.1 378.7 109.4V102.3" fill="#f1f0e4" />
<path fill-rule="evenodd" clip-rule="evenodd" d="M270.7 89.9001H284.4C284.8 89.9001 285.6 89.9001 286 89.7001H286.6L286.5 94.1001H285.9C285.4 92.7001 284.8 91.6001 282.2 91.6001H276.3V99.3001H280.9C281.6 99.3001 282.4 99.2001 282.7 99.2001C283.7 99.0001 284.2 98.4001 284.4 97.5001H285C285 98.2001 285 99.7001 285 100.1C285 100.6 285 102.2 285 102.9H284.4C284.1 102 283.7 101.4 282.7 101.1C282.4 101 281.5 100.9 280.9 100.9H276.3V110H282.7C285.5 110 286.3 108.8 287 107.2L287.6 107.3L287 111.9C284.9 111.7 283.6 111.7 281.3 111.7H274.5L270.7 111.8V111.2C271.9 111 272.6 110.4 272.6 109.2V92.4001C272.6 91.4001 272 90.7001 270.7 90.5001V89.9001ZM235.8 92.6001C235.8 91.5001 235.1 90.9001 233.8 90.6001V90.0001L237.6 90.1001C238.2 90.1001 240.6 90.0001 241.4 90.0001V90.6001C240.1 90.9001 239.4 91.4001 239.4 92.6001V109.3C239.4 110.4 240.1 111 241.4 111.3V111.9L237.6 111.8C237 111.8 234.5 111.9 233.8 111.9V111.3C235.1 111 235.8 110.5 235.8 109.3V92.6001ZM339.5 92.6001C339.5 91.5001 338.8 90.9001 337.5 90.6001V90.0001L341.3 90.1001C341.9 90.1001 344.3 90.0001 345.1 90.0001V90.6001C343.8 90.9001 343.1 91.4001 343.1 92.6001V109.3C343.1 110.4 343.8 111 345.1 111.3V111.9L341.3 111.8C340.7 111.8 338.2 111.9 337.5 111.9V111.3C338.8 111 339.5 110.5 339.5 109.3V92.6001ZM358.5 90.0001C351 90.0001 349.8 89.9001 348.3 89.8001V94.3001H348.9C349.5 92.3001 350.6 91.8001 352 91.8001H356.7V109.2C356.7 110.4 356.1 111 354.7 111.2V111.8C355.4 111.8 357.9 111.7 358.5 111.7L362.3 111.8V111.2C361 110.9 360.3 110.3 360.3 109.2V91.8001H365C366.5 91.8001 367.6 92.3001 368.1 94.3001H368.7V89.8001C367.1 89.9001 365.9 90.0001 358.5 90.0001Z" fill="#f1f0e4" />
<path fill-rule="evenodd" clip-rule="evenodd" d="M298.7 109.3C298.7 110.4 299.4 111 300.7 111.3V111.9L296.9 111.8C296.3 111.8 294 111.9 293.2 111.9V111.3C294.4 111.1 295.1 110.5 295.1 109.3V92.5C295.1 91.5 294.5 90.8 293.2 90.6V90L296.9 90.1C298 90.1 301 89.9 302.2 89.9C307.4 89.9 310.4 92.1 310.4 95.8C310.4 98.7 308.2 100.7 304.9 101.5C304.9 101.5 305.7 101.9 306.4 102.8C307.3 103.9 309.8 107.5 310.9 108.7C311.9 110 313.3 111.4 314.7 111.4V111.9C314 112 312.9 112.2 312.1 112.2C310.3 112.2 308.9 111.6 307.5 109.9C306.3 108.4 304.3 105.4 303.1 103.9C302.3 102.9 301.4 102.2 299.7 101.9C299.4 101.8 299.1 101.8 298.7 101.8V109.3ZM298.7 100.3C299.4 100.4 300.4 100.4 301.4 100.4C305.5 100.4 306.8 98 306.8 95.9C306.8 92.9 304.8 91.1 301.2 91.1C300.5 91.1 299.4 91.2 298.6 91.3V100.3H298.7ZM246.7 92.7C246.2 91.6 245.5 90.9 244.2 90.6V90C245 90 247.7 90.1 248.3 90.1C248.8 90.1 251.2 90 252 90V90.6C251.3 90.7 250.5 91.1 250.5 91.9C250.5 92.4 250.8 93.1 251.4 94.5L257.1 107.4L262.5 94.5C262.9 93.5 263.2 92.7 263.2 92C263.2 91.3 262.6 90.8 261.7 90.7V90.1C262.4 90.1 264.2 90.2 264.7 90.2C265.2 90.2 267.2 90.1 268 90.1V90.7C266.7 91.1 265.9 91.8 265.1 93.5L257.2 112.1H255.4L246.7 92.7Z" fill="#f1f0e4" />
</svg>
