<svg width="404" height="81" viewBox="0 0 404 81" fill="none" xmlns="http://www.w3.org/2000/svg">
<path d="M55.6712 65.329L33.7225 35.0222V57.0656H42.5024V78.8326H1.89832V57.0656H10.1286V23.173H1.89832V1.40446H33.7928L55.7787 31.9873L77.8119 1.40446H109.704V23.173H101.473V57.0656H109.704V78.8326H69.1022V57.0656H77.8796V35.0222L55.6712 65.329V65.329Z" fill="#f1f0e4" />
<path d="M272.739 2.46863C268.478 2.46863 264.81 5.07167 264.81 9.71895C264.81 14.5408 268.651 16.124 270.696 16.8625C271.682 17.2493 272.739 17.5653 273.73 17.9498C274.926 18.4476 277.637 19.5697 277.637 22.384C277.637 25.0616 275.315 26.1843 272.668 26.1843C268.936 26.1843 266.642 24.0021 265.267 19.9588L263.999 20.0952L264.36 24.9902L266.432 26.5052C267.415 27.1374 269.496 28.4735 272.878 28.4735C278.127 28.4735 281.651 24.9233 281.651 20.6299C281.651 17.6386 280.029 15.4566 278.057 14.2937C277.038 13.6969 275.878 13.3054 274.467 12.8525C271.683 11.9348 268.757 10.9441 268.757 7.99064C268.757 6.02076 270.306 4.75443 272.948 4.75443C274.923 4.75443 276.614 5.47378 277.81 7.02136C278.796 8.32826 279.117 9.08164 279.539 10.6999L280.766 10.4567L279.959 3.06629L278.448 4.15365C276.336 2.81608 274.397 2.46916 272.738 2.46916L272.739 2.46863ZM369.644 2.64187C361.653 2.60412 357.108 8.7291 357.108 15.5206C357.108 23.4423 362.758 28.65 369.979 28.65C376.568 28.65 382.415 24.1468 382.415 15.5574C382.415 8.02517 377.166 2.67716 369.643 2.64168L369.644 2.64187ZM320.855 2.95887V4.33005C323.25 4.47159 323.284 4.54104 325.079 7.21617L331.696 17.4594V21.8199C331.663 24.5327 331.662 25.1655 331.099 25.727C330.603 26.22 329.865 26.2924 327.929 26.5047V27.8427H340.177V26.5047C336.483 26.2924 336.447 25.9422 336.447 21.4366V16.2579L340.317 9.78527C343.169 5.14044 343.906 4.4031 346.406 4.33006V2.95888H336.694V4.33006C338.418 4.43622 339.436 4.47205 339.436 5.66807C339.436 6.23423 339.089 6.97261 338.452 8.20411L334.936 14.3891L331.132 8.16712C330.499 7.11028 330.044 6.33563 330.044 5.66807C330.044 4.47204 331.203 4.40319 333.808 4.33006V2.95888H320.855L320.855 2.95887ZM240.656 2.98467V4.32637C242.696 4.49858 243.367 4.74716 243.542 6.11776C243.648 6.9269 243.682 7.97961 243.682 10.9685V19.9586C243.682 20.9801 243.68 22.1367 243.645 23.158C243.61 25.8285 243.331 26.2554 240.656 26.4607V27.8429H251.032V26.4607C248.04 26.397 248.037 25.6285 248.002 19.9292L248.006 16.7004C250.365 16.7381 250.856 16.5432 252.333 19.6712L253.708 22.5941C255.68 26.7791 257.616 28.3996 262.296 28.3996C262.86 28.3996 263.384 28.3673 263.914 28.3296V27.4855C261.907 27.2095 261.065 26.5357 259.48 23.6152L255.079 15.9631C258.493 14.9039 259.97 11.7891 259.97 9.3946C259.97 5.94815 258.037 3.029 251.913 3.029L240.656 2.98477L240.656 2.98467ZM218.809 2.98835V4.32635C220.605 4.50564 221.378 4.60928 221.625 5.76756C221.8 6.54133 221.836 9.28572 221.836 10.2718V19.0076C221.836 19.6752 221.801 22.668 221.766 23.2649C221.695 25.9778 221.378 26.2203 218.809 26.4681V27.843H237.748C237.748 26.0501 238.062 23.0902 238.275 21.4036H237.077C236.23 25.8386 233.733 25.6204 230.14 25.6204C226.832 25.6204 226.166 24.742 226.166 23.1214V16.1734H228.842C231.904 16.1734 232.783 16.4356 232.783 19.2216H233.981V11.0165H232.783C232.537 13.234 232.079 13.958 228.875 13.958H226.166V5.2037H229.229C233.449 5.2037 234.963 5.5226 235.525 8.90077H236.653L236.509 2.98848H218.809L218.809 2.98835ZM296.174 2.98835L295.964 9.95861H297.269C297.479 5.52364 299.34 5.62763 302.156 5.62763H305.256V23.9322C305.256 25.9066 304.624 26.7534 302.333 26.7889V27.843H312.614L312.61 26.7889C310.322 26.7535 309.69 25.9067 309.69 23.9322V5.62763H312.787C315.603 5.62763 317.468 5.52368 317.678 9.95861H318.983L318.769 2.98835H296.173H296.174ZM122.34 2.99573V4.33005C124.206 4.4362 124.979 4.75584 125.19 6.30578C125.26 6.938 125.261 8.12887 125.296 10.8064V16.4349C125.296 20.4499 125.332 24.1836 129.027 26.6819C131.35 28.2318 134.164 28.4365 135.54 28.4365C137.262 28.4365 143.777 28.0891 145.466 21.4035C145.889 19.6083 145.989 17.738 146.06 15.8413C146.095 14.7868 146.378 7.88763 146.414 7.28617C146.555 4.82807 147.048 4.297 149.37 4.33003V2.99571H139.9V4.33003C142.12 4.50932 143.279 4.57626 143.42 6.82909C143.456 7.64059 143.457 10.5964 143.457 11.5139C143.457 14.3991 143.423 18.7614 142.72 21.0827C141.876 24.0032 139.922 25.8523 136.369 25.8523C135.277 25.8523 133.114 25.6142 131.843 23.7624C130.248 21.4294 130.192 18.8311 130.192 15.8043V9.96206C130.227 4.68256 130.224 4.57763 133.531 4.32984V2.99552H122.34L122.34 2.99573ZM151.249 2.99573V4.33005C152.905 4.47159 153.467 4.72061 154.842 5.98505C154.807 8.55639 154.7 23.2994 154.349 24.9535C154.068 26.3618 153.292 26.3992 151.249 26.5053V27.8433H161.385V26.5053C157.585 26.1208 157.305 25.9792 157.305 21.9643V9.07813L167.121 21.1903C168.246 22.5633 169.375 23.973 170.501 25.3813L172.716 28.1606H174.198L174.551 8.97886C174.587 4.93077 174.83 4.3663 177.541 4.33082V2.9965H167.755V4.33082C171.699 4.47236 171.803 4.68437 171.839 8.62859V19.7492L164.905 11.1573C161.246 6.61851 160.788 5.95006 158.709 2.99656H151.249L151.249 2.99573ZM180.218 2.99573V4.33005C183.138 4.75467 183.138 4.89106 183.174 10.0691V20.1318V23.3017C183.138 25.9083 182.643 26.1863 180.218 26.5049V27.8429H190.535V26.5049C188.603 26.3634 187.897 26.0119 187.722 24.4997C187.651 23.759 187.615 20.9772 187.615 20.095V10.0691C187.615 4.7543 187.614 4.6154 190.535 4.33005V2.99573H180.218H180.218ZM192.901 2.99573V4.33005C195.399 4.72165 195.609 5.2834 197.298 9.99907L204.092 28.3368H205.43L212.997 10.2756C215.037 5.35217 215.356 4.6839 217.748 4.33005V2.99573H209.053V4.33005C210.601 4.36543 212.363 4.43444 212.363 6.23199C212.363 6.86421 211.941 7.9899 211.622 8.86749L206.558 21.9269L202.227 9.29495C201.559 7.21674 201.379 6.61793 201.379 5.91494C201.379 4.47121 202.684 4.4031 204.689 4.32997V2.99565H192.901L192.901 2.99573ZM283.278 2.99573V4.33005C286.201 4.75467 286.204 4.89106 286.242 10.0691V20.1318V23.3017C286.204 25.9083 285.708 26.1863 283.278 26.5049V27.8429H293.595V26.5049C291.663 26.3634 290.957 26.0119 290.783 24.4997C290.712 23.759 290.676 20.9772 290.676 20.095V10.0691C290.676 4.7543 290.675 4.6154 293.595 4.33005V2.99573H283.278H283.278ZM383.629 3.17265V4.50698C385.424 4.68154 386.196 4.78991 386.442 5.94819C386.621 6.72431 386.655 9.46767 386.655 10.4562L386.652 19.1884C386.652 19.856 386.616 22.8452 386.578 23.442C386.512 26.1479 386.192 26.3974 383.625 26.6452V28.0163H393.917V26.6452C391.348 26.3975 391.031 26.1478 390.961 23.442L390.976 16.3502H393.725C396.502 16.3502 397.979 16.6159 398.156 19.3948H399.358V11.1935H398.156C398.014 13.8711 397.279 14.135 394.252 14.135H390.976L390.979 5.53187C391.862 5.42335 392.354 5.38812 393.939 5.38812C398.797 5.38812 400.361 5.366 401.013 9.25843H402.247L401.857 3.1729H383.629L383.629 3.17265ZM369.678 4.92718C371.749 4.86349 373.327 6.12395 374.127 6.98029C375.953 8.92885 376.847 11.6772 376.946 14.883C377.045 18.1174 376.684 20.5921 374.926 23.2908C373.391 25.6215 371.412 26.3211 370.006 26.3613C368.602 26.3613 366.607 25.7279 365 23.442C363.163 20.7998 362.726 18.3419 362.726 15.1006C362.726 11.8971 363.532 9.11229 365.299 7.10938C366.075 6.23182 367.606 4.92737 369.678 4.92737V4.92718ZM249.537 5.18536C254.111 5.18536 255.564 7.67951 255.413 10.567C255.309 12.5557 253.171 14.7747 250.345 14.7653C249.642 14.7653 248.69 14.6551 248.022 14.5183V5.32924C248.515 5.22308 248.903 5.18548 249.537 5.18548L249.537 5.18536ZM347.633 38.2268C345.769 39.6163 344.544 40.2537 340.18 41.688L340.762 42.5947L330.597 70.4935C329.158 74.4284 327.879 75.2318 323.94 75.3922V77.4159H339.435V75.3922C337.147 75.286 334.323 75.1276 334.323 72.4619C334.323 71.6693 334.536 70.9197 334.802 70.1176L335.967 66.8703H349.222L350.349 70.7074C350.562 71.3986 350.777 72.1993 350.777 72.9447C350.777 75.0206 348.805 75.2318 346.251 75.3922V77.4159H362.72H363.818H378.053V75.3922C372.302 74.8048 371.876 74.5926 371.876 68.5252V49.0264L386.73 67.3494C388.436 69.4301 390.136 71.5555 391.839 73.6856L395.197 77.895H397.434L397.965 48.879C398.017 42.7597 398.392 41.9006 402.492 41.8534V39.8262H387.689V41.8534C393.652 42.0658 393.812 42.3832 393.866 48.3445V65.1674L383.376 52.1743C377.839 45.3071 377.146 44.2989 374.006 39.8262H362.72V41.8534C365.223 42.0658 366.073 42.437 368.149 44.3525C368.095 48.2379 367.935 70.5434 367.405 73.0515C367.019 74.9776 365.945 75.1961 363.475 75.3405C359.808 74.878 359.088 73.7067 357.644 69.3212L349.34 43.7626C348.488 41.1016 348.381 40.7834 347.633 38.2262L347.633 38.2268ZM306.877 38.8645C296.667 38.8645 288.52 46.6899 288.52 58.72C288.52 68.5665 294.703 78.3697 307.64 78.3697C315.019 78.3697 319.188 75.7572 322.111 73.9502V71.1267C322.208 63.993 322.207 63.0345 325.609 62.8222V60.7985H310.467V62.8222C314.638 63.2515 315.284 63.3546 315.454 68.1412C315.511 69.7972 315.358 70.7008 314.688 71.7129C314.494 71.9252 312.336 74.8534 308.167 74.8534C300.835 74.8534 296.575 67.4551 296.575 58.8305C296.575 48.019 302.037 42.4832 308.602 42.4832C312.386 42.4832 314.783 44.0529 316.029 45.2773C318.855 48.1009 320.009 50.6819 320.773 52.9183L322.306 52.6529L322.019 40.8836L320.058 43.1209C316.991 41.2573 313.298 38.8635 306.877 38.8635V38.8645ZM210.411 38.9198C197.718 38.9198 191.496 48.9332 191.496 59.0999C191.496 70.0693 198.833 78.425 210.161 78.425C220.532 78.425 224.528 71.7682 226.196 69.0553L223.958 67.3598C221.986 70.1812 219.519 73.8509 212.945 73.8509C204.242 73.8509 199.841 66.0772 199.841 57.8206C199.841 48.0754 205.205 42.5458 211.982 42.5458C215.927 42.5458 218.709 44.9903 219.874 46.217C222.301 48.878 223.262 50.6318 223.918 52.8185L225.587 52.4942L225.385 41.1008L222.804 43.4451C220.632 41.7466 217.088 38.9188 210.412 38.9188L210.411 38.9198ZM123.824 39.8265V41.8538C127.176 41.901 127.923 42.1711 127.923 45.8936C127.923 47.2264 127.925 49.0371 127.871 50.2616L127.34 66.0191C127.284 68.095 127.126 71.2388 127.02 72.2484C126.805 74.8056 125.632 75.2321 122.596 75.3926V77.4162H135.645V75.3926C131.651 75.0741 131.225 74.3807 131.225 70.7077L131.505 48.6027L143.577 77.8943H146.88L160.028 48.982V67.8882C159.973 74.8638 159.975 75.0744 155.236 75.3929V77.4166H171.686V75.3929C168.704 75.1264 167.641 74.5944 167.429 71.825C167.268 69.9072 167.215 66.7153 167.215 64.1581V48.6659C167.163 42.8084 167.213 42.3286 171.686 42.0644V39.8271H160.241L147.358 68.3638L135.641 39.8271H123.823L123.824 39.8265ZM175.371 39.8265V41.8538C179.79 42.4907 179.788 42.702 179.842 50.5269V65.7574V70.5418C179.788 74.4861 179.047 74.9138 175.371 75.3926V77.4162H190.978V75.3926C188.05 75.1802 186.983 74.6436 186.717 72.3553C186.611 71.2394 186.558 67.0312 186.558 65.6985V50.5269C186.558 42.4896 186.559 42.2784 190.978 41.8538V39.8265H175.371H175.371ZM228.972 39.8265V41.8538C231.9 42.1157 232.962 42.4359 233.174 44.6699C233.335 45.8424 233.336 48.2921 233.336 50.7407V66.502C233.336 67.8302 233.337 69.1611 233.285 70.4939C233.285 74.1102 233.23 75.0198 228.972 75.3926V77.4162H245.062V75.3926C240.216 74.8618 240.11 74.8624 240.056 67.0327V60.14C243.304 59.9773 245.837 59.8747 249.083 59.8747C252.171 59.8747 254.649 60.0339 257.631 60.14V67.0327C257.631 69.7503 257.63 71.1869 257.524 72.2484C257.201 74.8622 256.191 74.961 252.411 75.3926V77.4162H268.711V75.3926C265.941 75.126 264.823 74.7561 264.557 72.7791C264.396 71.668 264.343 66.9276 264.343 65.4367V49.5686C264.343 42.4371 264.342 42.3847 268.711 41.8538V39.8265H252.411V41.8538C257.523 42.3303 257.576 42.5945 257.631 49.4616V55.7756C254.434 55.9337 251.905 56.041 248.71 56.041C245.571 56.041 243.304 55.9337 240.056 55.7756V50.582C240.056 48.3434 240.11 45.5746 240.377 44.3527C240.749 42.2767 241.919 42.172 245.061 41.8536V39.8264H228.972L228.972 39.8265ZM271.822 39.8265V41.8538C276.245 42.4907 276.246 42.702 276.3 50.5269V65.7574V70.5418C276.246 74.4861 275.499 74.9138 271.822 75.3926V77.4162H287.446V75.3926C284.521 75.1802 283.459 74.6436 283.193 72.3553C283.084 71.2394 283.027 67.0312 283.027 65.6985V50.5269C283.027 42.4896 283.028 42.2784 287.446 41.8538V39.8265H271.822V39.8265ZM342.883 47.2428L348.158 62.8235H337.358L342.883 47.2428H342.883Z" fill="#f1f0e4" />
</svg>
