<svg xmlns="http://www.w3.org/2000/svg" width="411" height="90"><g clip-path="url(#clip0)" fill="#f1f0e4"  ><path d="M141.054 39.488c5.232-.698 6.365-2.955 6.365-8.488V9.405c0-2.793-1.619-5.103-6.365-5.264V2.637h16.235l10.41 27.45h.378l9.709-27.45h15.102V4.14c-4.53.161-5.501.967-5.501 2.9v29.546c0 1.988.971 2.74 5.501 2.901v1.504h-18.986v-1.504c3.722-.161 5.016-.806 5.016-2.9V7.256h-.323l-12.298 33.735h-2.967L149.954 7.257h-.378V31c0 5.533 1.079 7.736 6.527 8.488v1.504H141v-1.504h.054zm54.747 0c4.639-.161 5.61-.913 5.61-2.9V7.041c0-1.934-.971-2.74-5.61-2.901V2.637h19.795V4.14c-4.638.161-5.609.967-5.609 2.9v29.546c0 1.988.971 2.74 5.609 2.901v1.504h-19.795v-1.504zm31.068-28.578h-.162V31c0 5.533 1.241 7.897 6.904 8.488v1.504h-15.48v-1.504c5.232-.698 6.365-2.955 6.365-8.488V9.943c0-3.116-1.618-5.534-6.365-5.802V2.637h12.999l20.928 27.128h.162V12.682c0-5.48-1.672-7.897-7.228-8.487V2.69h15.534v1.505c-5.178.752-6.095 3.008-6.095 8.487v28.955h-3.721L226.869 10.91zm34.628 28.578c4.531-.161 5.502-.913 5.502-2.9V7.041c0-1.934-.971-2.74-5.502-2.901V2.637h33.172l.27 13-1.78.053c-3.075-7.574-5.07-11.28-11.92-11.28h-5.664v15.954h1.996c4.207 0 6.203-1.182 7.929-6.715h1.456v15.364H285.5c-1.726-5.533-3.722-6.769-7.929-6.769h-1.996V39.22h5.34c8.145 0 10.518-3.814 13.808-12.194l1.78.108-.378 13.86h-34.574v-1.505h-.054zm52.427-2.901c0 2.095 1.457 2.74 5.232 2.901v1.504H299.9v-1.504c4.531-.161 5.502-.913 5.502-2.9V7.041c0-1.934-.971-2.74-5.502-2.901V2.637h19.094c11.597 0 15.373 4.405 15.373 9.347 0 4.673-2.859 8.219-11.381 9.562v.161c8.037.215 10.086 3.545 10.626 8.326l.485 4.405c.485 4.137 1.348 4.835 5.663 4.996v1.504a47.89 47.89 0 01-5.285.323c-7.66 0-8.954-2.095-9.332-6.93l-.377-4.62c-.432-5.587-1.996-7.198-8.145-7.198h-2.751v14.074h.054zm3.452-15.74c6.635 0 8.145-2.363 8.145-8.38 0-5.157-1.996-8.058-8.63-8.058h-2.913v16.439h3.398zM340.03 8.869c-1.186-3.116-2.211-4.03-6.202-4.674V2.691h20.011v1.504c-5.178.269-5.988 1.397-5.017 4.029l9.116 24.764h.323l7.983-21.487c1.834-4.942 1.187-6.446-4.045-7.306V2.691h13.754v1.504c-3.937.806-5.124 2.417-7.282 8.112l-11.38 29.384h-4.693L340.03 8.869zm63.756 26.214L391.919 2.637h-13.97V4.14c4.963.752 6.904 2.202 4.855 7.628l-7.551 19.5c-2.104 5.318-3.614 7.306-7.336 8.219v1.504h13.377v-1.504c-4.963-.752-5.664-2.203-3.614-7.628l1.942-5.103h12.459l2.967 8.54c1.025 2.794.054 3.922-5.232 4.191v1.504h20.119v-1.504c-4.208-.698-5.071-1.504-6.149-4.405zM380.215 24.93l5.555-14.934h.378l5.178 14.934h-11.111zm25.512-22.938c2.75 0 5.07 2.149 5.07 4.996 0 2.9-2.32 5.05-5.07 5.05-2.751 0-5.071-2.15-5.071-5.05 0-2.794 2.32-4.996 5.071-4.996zm0 9.347c2.319 0 4.153-1.88 4.153-4.297 0-2.418-1.834-4.244-4.153-4.244-2.374 0-4.154 1.88-4.154 4.244 0 2.417 1.78 4.297 4.154 4.297zm-1.996-7.252h2.265c1.403 0 2.05.537 2.05 1.665 0 1.075-.701 1.504-1.564 1.612l1.672 2.578h-.971l-1.618-2.524h-.971v2.524h-.917V4.087h.054zm.917 2.632h.971c.809 0 1.564-.054 1.564-.967 0-.806-.647-.913-1.295-.913h-1.24v1.88zM146.502 80.422V66.83c0-1.236-.701-1.719-3.506-1.827v-.859h10.842v.86c-2.751.107-3.291.537-3.291 1.826v13.215c0 4.566 2.751 6.231 6.527 6.231 1.726 0 3.182-.537 4.207-1.558 1.187-1.181 1.834-2.632 1.834-5.21v-9.67c0-3.223-.917-4.458-4.261-4.888v-.806h9.115v.806c-3.128.483-3.614 1.665-3.614 4.888v10.207c0 4.405-2.804 7.682-8.684 7.682-5.771 0-9.169-2.579-9.169-7.306zm33.171-12.14h-.054v13.16c0 3.278.647 4.46 4.045 4.89v.805h-9.061v-.806c3.128-.483 3.829-1.611 3.829-4.888V68.174c0-1.719-1.024-3.17-3.829-3.223v-.86h7.066l12.945 17.244h.054v-11.55c0-3.222-.917-4.458-4.261-4.888v-.805h9.115v.805c-3.128.484-3.668 1.666-3.668 4.889v17.78h-1.564l-14.617-19.284zm27.131 18.049c2.912-.108 3.614-.59 3.614-1.827V66.831c0-1.236-.702-1.719-3.614-1.827v-.859h11.219v.86c-2.913.107-3.56.59-3.56 1.826v17.673c0 1.236.647 1.72 3.56 1.827v.86h-11.219v-.86zm20.712-18.479c-.755-1.934-1.348-2.471-3.83-2.901v-.806h10.95v.806c-3.075.161-3.56.86-2.967 2.47l5.61 15.526h.215l5.071-13.538c1.186-3.115.755-3.975-2.374-4.458v-.806h8.091v.806c-2.373.483-3.128 1.504-4.423 4.888l-7.012 17.835h-1.834l-7.497-19.822zm26.16 18.479c2.859-.108 3.56-.59 3.56-1.827V66.831c0-1.236-.701-1.719-3.56-1.827v-.859h19.256l.108 7.252-.863.054c-1.619-4.298-2.805-6.232-6.797-6.232h-4.153v9.616h1.726c2.589 0 3.776-.644 4.747-4.136h.809v9.347h-.809c-.971-3.492-2.158-4.19-4.747-4.19h-1.726v10.368h4.046c4.692 0 6.202-2.15 7.928-6.77l.863.055-.215 7.789h-20.227v-.967h.054zm37.109-1.88c0 1.29.647 1.72 3.398 1.827v.859H283.18v-.86c2.859-.107 3.56-.59 3.56-1.826V66.778c0-1.236-.701-1.72-3.56-1.827v-.86h10.518c6.904 0 9.223 2.58 9.223 5.587 0 2.794-1.726 4.943-6.634 5.802v.107c4.692.269 5.663 2.203 6.095 5.211l.323 2.471c.432 2.525.971 2.955 3.668 3.062v.806c-.863.161-1.888.215-2.643.215-4.261 0-5.016-1.182-5.286-4.19l-.269-2.847c-.324-3.385-1.349-4.19-5.124-4.19h-2.266v8.326zm2.535-9.347c4.315 0 5.286-1.826 5.286-5.21 0-3.117-1.348-4.782-5.609-4.782h-2.158v9.992h2.481zm21.09 4.727h.863c1.888 4.19 4.262 6.822 7.498 6.822 3.236 0 4.746-2.148 4.746-4.19 0-2.74-1.834-3.76-5.987-5.157-3.344-1.181-6.796-2.256-6.796-6.553 0-4.352 3.344-7.091 7.821-7.091 1.942 0 3.668.483 4.801.967l1.132-1.182h.755v7.144h-.917c-1.564-3.814-3.613-5.962-6.256-5.962-2.266 0-4.154 1.45-4.154 4.028 0 2.633 1.996 3.546 5.826 4.782 3.182 1.074 6.526 2.256 6.526 6.607 0 3.653-2.157 7.628-7.983 7.628-1.887 0-4.045-.537-5.447-1.236l-1.78 1.397h-.755v-8.004h.107zm24.596 6.5c2.913-.108 3.614-.59 3.614-1.827V66.831c0-1.236-.701-1.719-3.614-1.827v-.859h11.219v.86c-2.912.107-3.559.59-3.559 1.826v17.673c0 1.236.647 1.72 3.559 1.827v.86h-11.219v-.86zm24.057 0c3.02-.054 3.829-.59 3.829-1.827V65.166h-1.294c-2.805 0-4.315 2.095-6.149 6.392l-.863-.054.162-7.359h20.28l.216 7.36-.863.053c-1.726-4.136-3.29-6.392-6.149-6.392h-1.348v19.338c0 1.236.863 1.773 3.883 1.827v.86h-11.758v-.86h.054zm39.428-17.405c1.564-2.686 1.457-3.492-1.618-3.975v-.806h7.929v.806c-2.158.376-3.128 1.074-4.908 4.029l-4.801 8.004v7.467c0 1.235.647 1.719 3.56 1.826v.86h-11.219v-.86c2.913-.107 3.614-.59 3.614-1.826v-6.876l-5.879-10.207c-.917-1.504-1.565-2.041-3.614-2.417v-.806h10.733v.806c-3.182.161-3.398.967-2.535 2.525l4.693 8.38 4.045-6.93zM89.718 45.288c-.127-.126-.475-.472-.633-.567-.157-.126-.316-.85-.347-.912-.158-.567-.158-1.134-.316-1.669-.063-.252-.063-.535-.063-.598.031-.094.379.032.474-.063.126-.126.094-.283.031-.346-.063-.094-.253-.346-.221-.472s0-.22-.063-.346c-.063-.157-.127-.283-.158-.44-.063-.221-.095-.441-.253-.63-.158-.19-.284-.504-.41-.724-.032-.063-.064-.095-.064-.158-.095-.22-.348-.314-.442-.535-.095-.314-.159-.63-.285-.944-.063-.189-.442-1.038-.537-1.164-.158-.315-.569-.724-.885-.913-.063-.032-.095-.126-.126-.22-.127-.315-.253-.599-.474-.85-.032-.063-.064-.126-.127-.19-.347-.534-1.738-1.95-2.149-2.454-.126-.157-.347-.252-.505-.378-.032-.031-.57-.378-.633-.283-.031.063.064.22 0 .189-.094-.032-.537-.756-.6-.787-.063-.032-.032.031-.063.094-.032.063.442.787.347.819-.063.031-.031.031-.094.031-.095-.031-.854-1.101-.917-1.101-.063.031-.505-.63-.505-.535 0 .063.41.85.474.85.094.062.663.944.6 1.038-.284-.252-.664-.755-.853-.693-.063.032.347.536.063.63-.095-.094-1.454-1.574-1.58-1.605-.221-.032.474.566.41.66-.094.158 1.044 1.417 1.044 1.606 0 .157-.348.252-.57.252-.03 0-.126.031-.094.063 0 .031.031.063.063.126.095.157.664 1.07.727 1.227.063.189.126.315.158.504.063.22.158.472.284.692a.582.582 0 01.064.22c0 .063.031.158 0 .22 0 .032-.032.032-.032.064l.063.031c.032 0 .127.032.19.157.126.22.063.567-.127.724a.24.24 0 01-.126.063h-.095c-.063 0-.126-.031-.19-.094l-.031-.032c.032.032.032.095.032.126.063.22.094.473.094.693.064.063.127.126.127.252 0 .094.031.22 0 .314a.531.531 0 000 .315c0 .126.031.252 0 .41a.915.915 0 01.158.503c0 .063 0 .126.031.157 0 .063.032.095.064.158 0 .031.031.063.031.094v-.031c.064-.063.158-.126.253-.126a.37.37 0 01.348.283c.031.22.031.44.031.692l.032.252c0 .032 0 .063-.032.095-.031.031-.031.094-.063.157a.332.332 0 01-.284.157c-.064 0-.158-.031-.19-.094 0 .126-.031.189-.095.252a.507.507 0 01.127.22l.031.032c.063.062.158.188.158.314 0 .189-.031.346-.063.504-.032.126-.032.189 0 .283.095.346.032.661-.19 1.007l-.031.032c.19.126.284.346.253.598-.032.189.063.535.126.85.063.314.126.597.126.818 0 .157-.063.315-.126.44-.032.126-.095.252-.095.347 0 .314-.031.63-.158 1.007a.693.693 0 000 .44.536.536 0 01-.031.378c-.032.095-.063.158-.063.22 0 .252-.032.504-.095.693 0 0 .031.031.031.063.032.063.064.126.095.22.032.19-.031.346-.063.472-.126.315-.032.41.032.504.031.031.063.063.063.094a.3.3 0 01-.063.315c.031.032.031.063.031.095 0 .062 0 .157-.126.283-.032 0-.032.031-.032.031.032.126 0 .283-.19.378v.063c-.031.378-.19.724-.347 1.038-.063.126-.095.252-.158.378h.063c.095 0 .19.063.221.158l.063.125-.094.126s0 .032-.032.063c-.032.126-.095.315-.38.378l-.03.063c-.127.346-.285.692-.412 1.039.032-.032.032-.063.064-.063a.422.422 0 01.316-.126c.031 0 .063.031.126.031.032-.157.126-.315.221-.44a.584.584 0 01.38-.158h.063c.158.032.22.126.284.22.032.032.032.063.063.063.063.063.095.19.063.252-.031.063-.031.095-.063.126a6.15 6.15 0 01-.19.44.498.498 0 01-.41.221h-.063c-.064 0-.095-.031-.158-.063l-.095.189c-.032.063-.032.094-.063.126-.095.189-.158.41-.19.63.032 0 .063-.032.126-.032a.29.29 0 01.222.094c.063.063.19.22.126.378a1.77 1.77 0 01-.126.378c-.032.094-.127.157-.19.189l-.063.031c-.032.032-.063.032-.095.032-.063 0-.095 0-.126-.032l-.032-.031c-.032 0-.032-.032-.063-.032a1.282 1.282 0 01-.222.346c.032.315-.094.598-.19.819-.094.22-.189.409-.284.566-.094.158-.19.315-.22.44-.032.064-.032.095-.032.127-.095.409-.443.787-.632.975v.126a.835.835 0 01-.095.378c-.032.031-.032.063-.063.094a.247.247 0 01.126.126l.032.095c.031.031.031.094.031.126 0 .063-.031.094-.031.157-.127.283-.253.567-.38.818-.094.19-.22.252-.316.252h-.031c.031.063.063.095.063.157a.75.75 0 01-.158.441c-.063.095-.19.095-.221.095h-.095c-.032.126-.126.251-.316.314-.126.032-.126.063-.095.126.032.22-.063.44-.316.567-.158.094-.19.157-.221.283 0 .063-.032.126-.032.157a.898.898 0 01-.22.315l-.064.063c-.063.22-.158.346-.285.504l-.031.031c-.158.189-.19.22-.158.315a.435.435 0 010 .283.392.392 0 01-.253.189c-.095.031-.126.094-.221.252l-.032.031c.063.126.095.284.032.41a.5.5 0 01-.253.314c-.032.032-.063.063-.126.095-.127.094-.253.188-.475.22-.031 0-.094.031-.126.094l-.126.19c-.095.157-.19.282-.285.408-.063.095-.063.126-.063.158-.032.22-.19.377-.38.377h-.062a.288.288 0 01-.253-.126c-.032-.031-.032-.031-.032-.062-.031.031-.095.094-.19.094-.094 0-.126-.032-.189-.063h-.19l-.094-.157s0-.032-.032-.032a.846.846 0 01-.316.41c-.032.03-.095.094-.127.125a1.033 1.033 0 01-.473.346c-.032 0-.064.032-.064.032.032.189-.094.346-.252.41-.253.093-.38.314-.538.629-.063.125-.221.251-.505.346 0 .031.031.063.031.094a.286.286 0 01-.126.252l-.095.094c-.126.095-.284.22-.506.22-.126 0-.22.158-.316.284l-.031.063c-.095.126-.19.252-.348.346-.031.063-.031.158-.031.189v.063c-.032.283-.285.346-.411.41-.032 0-.032.03-.064.03v.064c.095.125.127.251.095.377-.031.126-.094.252-.22.315-.032.032-.064.032-.096.126a.511.511 0 01-.379.346c.063.22-.126.346-.19.41l-.031.062c-.032.063-.063.126-.127.158-.158.157-.316.22-.41.22-.127 0-.317-.063-.475-.315 0 0-.031 0-.031-.031-.063-.032-.127-.063-.158-.126.031.063.095.126.095.22.031.252-.158.378-.285.41h-.031v.125a.562.562 0 01-.285.378c-.158.094-.347.126-.505.157h-.032c-.032 0-.063 0-.095-.031a.663.663 0 01-.19-.126.301.301 0 01-.063-.283c0-.063.032-.126.095-.158 0 0 .032-.031.063-.031.064-.032.095-.063.158-.126a1.79 1.79 0 01.411-.252c.032 0 .064 0 .095-.031 0-.158.095-.315.284-.347.032 0 .095-.031.095-.031.095 0 .158.031.221.094a.365.365 0 01-.063-.314c.063-.19.253-.22.348-.252-.032-.095 0-.22.063-.315a.529.529 0 01.348-.252c.031 0 .031 0 .063-.031v-.126c0-.095.032-.283.19-.378a.584.584 0 00.22-.252c.032-.031.064-.063.064-.094.032-.063.126-.126.253-.189.031 0 .031-.031.063-.031.063-.095.158-.158.221-.252.063-.063.127-.126.19-.22.031-.063.063-.095.095-.158.063-.157.126-.315.347-.44 0 0 .032-.032.032-.063.063-.22.253-.378.41-.504.064-.063.159-.126.19-.157.316-.41.664-.882.98-1.385.063-.126.158-.22.221-.346.127-.19.253-.347.348-.535.253-.441.474-.85.727-1.197l.031-.063a2.35 2.35 0 01.474-.755l.032-.031c.063-.063.126-.19.284-.19h.064l.094.064c.032.031.064.031.064.063a.986.986 0 01.347-.284c-.095-.251.095-.472.158-.535l.095-.094c.095-.126.19-.252.348-.346.063-.032.126-.095.252-.126a.45.45 0 01.032-.41l-.032.032c-.031.032-.063.032-.126.063h-.158a.348.348 0 01-.19-.094c-.031-.063-.126-.158-.094-.315.126-.346.284-.63.474-.85.063-.063.126-.094.252-.094h.064c.158.031.252.157.252.283a.843.843 0 01-.126.41v-.032a.34.34 0 00.095-.22.416.416 0 01.284-.315c.095-.032.158-.095.222-.284.031-.094.094-.188.19-.22a.435.435 0 010-.283c.03-.095.094-.158.22-.22 0-.032.032-.126.032-.126a.247.247 0 01-.126-.126c-.032.063-.064.126-.127.189s-.158.063-.253.063h-.063a.393.393 0 01-.253-.19.534.534 0 010-.314c.032-.095.095-.157.127-.252.031-.063.126-.126.284-.126.127 0 .221.063.253.158v-.032l.063-.063.127-.031a.34.34 0 01.19.063c.094-.158.189-.284.347-.347.19-.094.284-.22.316-.377.031-.126.095-.22.158-.315.158-.252.221-.472.284-.755.032-.158.095-.252.253-.315.032 0 .063-.032.063-.063.032-.189.127-.346.222-.504.063-.126.126-.252.157-.346a2.14 2.14 0 01.317-.66 2.24 2.24 0 00.316-.599c.063-.283.19-.504.316-.724.063-.094.094-.189.158-.283.126-.252.19-.535.284-.787.063-.283.158-.566.285-.85.41-.912.663-1.636.821-2.36 0-.032 0-.063.032-.095-.064-.22.063-.409.126-.535a.687.687 0 01.095-.157c.063-.346.095-.661.126-.944 0-.19 0-.378.095-.567v-.031c0-.063 0-.126.032-.22.063-.221.063-.441.063-.693v-.41a2.26 2.26 0 01.253-.818v-.125c0-.378.031-.756.095-1.165 0-.063.031-.283.22-.378-.062-.031-.094-.126-.126-.22-.031-.126-.063-.315-.063-.22 0 .125-.126.22-.19.251-.063.032-.126.032-.157.032h-.064l-.094-.032s-.19-.094-.222-.283l-.031-.094.063-.095c.031-.094-.063-.566-.127-.692-.157-.094-.157-.189-.157-.283a.34.34 0 01.252-.315c0-.063 0-.094-.031-.126-.032-.032-.032-.094-.064-.22v-.22c-.031 0-.031-.032-.063-.064-.063-.063-.063-.157-.031-.283.031-.126.094-.189.22-.22-.03-.063-.03-.126-.03-.22 0-.095 0-.095-.032-.126-.158-.158-.285-.441-.158-.63.094-.157.094-.189.063-.252-.127-.189-.063-.409.031-.566.127-.19.127-.41.127-.693v-.189c-.095-.031-.127-.125-.127-.251 0-.095.064-.158.127-.22 0-.127 0-.22.031-.315a.892.892 0 000-.41.348.348 0 010-.251c.032-.22 0-.472-.063-.724-.031-.126-.031-.252-.063-.346 0-.095-.032-.19-.032-.284-.031-.22-.063-.409-.031-.66 0-.284.095-.567.095-.85l-.032-.284c0-.063 0-.126-.032-.157-.063-.189-.094-.504-.126-.724a3.585 3.585 0 00-.284-.818c-.032-.063-.032-.095-.063-.158 0-.031 0-.031-.032-.063l-.063-.031c-.095.126 0 .22.063.315.126.346.19.724.253 1.07a.644.644 0 010 .346c0 .031-.032.063-.064.063-.031 0-.094 0-.094-.063-.032-.095-.032-.157-.032-.252a.506.506 0 00-.095-.283c0-.032-.063-.032-.063-.032s-.031 0-.031.032c0 .031-.032.063-.032.094 0 .378.063.756 0 1.133-.032.063.032.158.063.252a.644.644 0 010 .346c0 .032-.031.032-.063.032s-.063-.032-.063-.063a.453.453 0 01-.063-.22c0-.315-.032-.661-.032-.976 0-.063-.095-.126-.158-.126-.032 0-.063.063-.063.094 0 .063.063.63.063.693-.032.378.221 1.825.221 2.423 0 .284-.095.567-.095.85 0 .252.127.472.095.724-.031.252.063.567.032.818-.032.22 0 .473-.127.693-.031.031-.031.126-.031.157-.032.472.126 1.133.031 1.605-.158.724-.252 1.668-.41 2.487-.19.881-.506 1.73-.633 2.612 0 .032-.031.095-.031.126-.158.283-.19.63-.253.944-.032.22-.095.41-.19.598-.126.19-.094.441-.284.63-.032 0-.032.063 0 .094.032.315-.158.598-.221.913 0 .032-.158.252-.19.283-.031.032-.19-.189-.221-.189-.063 0-.063-.063-.032-.094a.92.92 0 00.127-.504c0-.063.031-.126.031-.22.222-.692.411-1.385.632-2.109.064-.252.19-.472.253-.724.19-.692.348-1.416.537-2.108.032-.19.095-.347.127-.535.095-.567.095-1.606.19-2.172.063-.315-.032-.63 0-.944.063-.567.157-1.102.252-1.637.032-.22-.063-.44-.063-.661 0-.031-.032-.063-.032-.063-.031 0-.063.032-.063.032-.063.346-.158.724-.19 1.101-.031.283-.031.535-.094.787-.063.315-.063.63-.127.913-.031.126-.094.157-.22.126-.032 0-.032-.032-.064-.063-.095-.032-.126 0-.126.094 0 .126.031.22.19.189.126 0 .157.031.157.126 0 .252-.063.504-.126.755-.032.095.095.661-.032.724-.19.063-.095.252-.095.41-.031.408-.063.818-.284 1.195 0 .032-.032.063 0 .095 0 .283-.126.535-.126.818a.52.52 0 01-.158.378.603.603 0 00-.127.377c0 .126-.063.315-.031.41 0 .094.031.22-.032.283a.58.58 0 00-.158.504c0 .062-.032.062-.063.094-.064 0-.127.031-.158-.032-.032-.063-.032-.094-.064-.157-.094-.22.064-.41.127-.598.032-.126.126-.315.158-.378a.783.783 0 00.095-.535c-.032-.126.031-.252.158-.346.031-.031 0-.094-.063-.094h-.19c-.19.22-.316.44-.316.755 0 .189-.474 1.133-.348 1.416.032.063-.095.473-.095.535 0 .19.159.315.19.252.063-.094.126-.252.221-.503 0-.032.032-.032.064-.063h.063c.031.063.063.157.094.22 0 .094-.031.126-.063.189l-.094.126c-.19.252-.095.566-.127.85 0 .094.032.126-.063.22-.127.126-.063.283-.127.44-.031.158-.094.22-.094.41v.094c0 .063 0 .126-.032.157-.126.19-.19.347-.126.567.031.063-.032.157-.127.189-.063 0-.095-.063-.063-.189 0-.031.032-.063.032-.094 0-.032-.032-.063-.064-.095h-.063c-.126.126-.253.252-.253.44 0 .064-.19.41-.19.536 0 .094 0 .157-.03.189-.19.283-.285.598-.412.881-.094.189-.158.41-.158.63 0 .094-.031.125-.063.188-.158.19-.19.41-.19.63 0 .063.032.157 0 .22-.126.22-.568 1.542-.695 1.763-.094.188-.727 1.794-.821 1.951a.235.235 0 000 .283c.063.095-.032.252-.095.315a.695.695 0 01-.158.094c-.158.095-.253.473-.285.63-.063.346-.252.755-.347.818-.064.063-.158.315-.158.315-.127.063-.411.535-.474.567-.19.251-.38.85-.474.85-.095.03-.095.125-.158.188-.127.158-.253.284-.316.472-.095.22-.253.441-.443.63-.095.126-.19.189-.221.346a.507.507 0 01-.126.22c0-.063-.127.095-.127.158-.095.126-.19.283-.284.409-.032.031-.285.378-.253.378 0 .031-.032.031-.032.063-.126.188-.284.314-.41.503-.253.346-.475.724-.79 1.007-.064.063-.159.158-.159.252-.063.189-.19.283-.347.378-.127.094-.253.157-.253.314-.032.19-.284.126-.348.284-.031.063-.063.094-.094.157l-.285.378c-.158.126-.253.315-.38.472-.094.126-.157.252-.283.378-.158.126-.285.314-.443.44-.221.19-.41.44-.664.598-.22.126-.41.315-.569.535-.252.315-.474.661-.853.882l-.094.094c-.095.157-.253.283-.38.378-.316.252-.6.535-.916.755-.095.063-.19.126-.253.22-.19.158-.348.347-.537.504-.19.157-.38.315-.538.535-.031.063-.094.094-.157.126-.158.126-.38.157-.506.283-.158.126-.285.284-.443.378-.22.126-.442.252-.632.44-.316.315-.695.536-1.074.787-.316.22-.632.41-.948.63h-.19v.126c-.031.031-.095.063-.126.094-.253-.031-.253-.031-.253.095v.063c-.443.251-.853.598-1.359.755-.158.032-.253.157-.41.252-.475.252-.98.472-1.423.787-.284.189-.6.346-.948.377-.095.032-.19.063-.221.158-.063.157-.127.157-.253.063-.032-.032-.095-.032-.126-.032-.158.063-.316.095-.474.189-.317.189-.664.315-.98.44-.19.095-.38.19-.537.347-.095.094-.222.157-.348.22a1.933 1.933 0 00-.442.22.528.528 0 01-.348.126c-.126 0-.221.063-.253.19-.032.094-.126.157-.19.157-.284 0-.474.157-.726.251-.158.063-.316.158-.506.063-.063-.031-.095 0-.158.063-.126.126-.221.252-.442.284-.127 0-1.233.535-1.328.503-.22 0-.41.095-.6.189-.221.094-.443.378-.569.252a.287.287 0 00-.221-.095.877.877 0 00-.411.095c-.127.063-.221.126-.348.126-.158-.032-.41.126-.442.157-.063.032-.442.283-.6.315-.127.031-.917.283-1.043.157-.032-.031-.095-.031-.127-.031-.221.031-.41.189-.632.063-.031-.032-.095.031-.158.063-.126.063-.41-.032-.442-.032-.443.095-.885.157-1.296.252a5.61 5.61 0 01-1.612.157c-.663 0-1.359 0-2.022-.031-.664 0-1.39-.095-2.054-.189-.917-.126-2.623-.504-3.54-.692-.031 0-.095.063-.095.094s.127.126.158.157c.221.095 1.17.441 1.36.535.094.032.126.063.094.158-.253.094-.822-.063-.98-.095-.031 0-.063.032-.063.032 0 .031.285.189.285.22.158.032.663.472.853.504 0 0 .126.063.221.063.158.063.38.063.537.126.285.125.57.283.854.377.19.063.41.126.6.22.348.158.664.315 1.011.41.316.094.6.22.885.283.727.126 1.485.535 2.212.567.348.125.506.125.885.283.032.031.253.063.285.063.821.063 1.58.189 2.37.346.663.126 1.453.126 2.117.189.695.094 1.264.094 1.96.22.695.126 1.706-.031 2.401.095.727.126 1.454-.032 2.18.031h.159c.41 0 .79-.031 1.2-.031.127 0 .285 0 .443.031.727.094 1.454-.346 2.18-.346.064 0 .159 0 .222-.032.221-.094.442-.094.664-.126.6-.031.98-.283 1.58-.314.98-.063 1.485-.346 2.433-.598.253-.063.537-.126.79-.19.474-.094.948-.188 1.39-.282.475-.126.949-.252 1.423-.41.474-.157.948-.377 1.422-.598.158-.063.284-.094.442-.157.57-.22 1.106-.472 1.675-.692.6-.22 1.17-.441 1.738-.756a.665.665 0 01.348-.126c.316-.063.632-.22.885-.409a2.04 2.04 0 01.505-.283c.222-.095.411-.189.6-.315.064-.031.159-.094.19-.157.095-.126.19-.22.348-.19.095 0 .127-.03.158-.125 0-.031.032-.094.063-.094.222-.095.38-.284.6-.41.475-.251 1.297-.692 1.739-1.007.79-.598 1.296-.85 2.054-1.448.41-.346.853-.629 1.233-.975.22-.19.474-.378.695-.567.095-.094.158-.157.253-.22.063-.032.158-.094.22-.126.475-.535 1.075-.913 1.55-1.48.189-.22.442-.408.663-.597.19-.19.38-.378.537-.598.348-.41.79-.787 1.138-1.228.095-.094.158-.252.253-.346.347-.315.758-.724 1.011-1.07.316-.41.537-.661.822-1.102.22-.314.505-.598.6-.975 0-.032.032-.095.063-.095.222-.157.316-.409.443-.63.158-.346.6-.566.695-.944.284-.314.41-.692.664-1.038.19-.252.22-.378.379-.63.158-.252.41-.44.537-.692.158-.346.348-.787.569-1.102.19-.283.253-.598.506-.818.031-.032.031-.094.031-.126 0-.189.127-.346.19-.504.19-.377.284-.755.506-1.133a5.11 5.11 0 00.347-.724.446.446 0 00.063-.188c0-.063 0-.126.032-.22.253-.473.569-.976.758-1.48a6.76 6.76 0 00.253-.787 8.47 8.47 0 00.474-1.133c.064-.157-.095-.346-.095-.535 0-.094.032-.157.064-.252.063-.126.252-.724.252-.786.032-.252.158-.284.064-.567-.095-.252-.095-.535.19-.692.063-.032.252-.315.284-.441.126-.41.063-.693.19-1.133.063-.19.094-.346.03-.567-.03-.063 0-.126.032-.22.19-.472-.094-.944-.063-1.448.032-.44-.031-.913.127-1.353.031-.063 0-.126 0-.22v-.378c.031-.535.031-1.07.063-1.574.031-.41.221-.787.221-1.196 0-.504 0-1.039-.031-1.542-.032-.346-.064-.661.063-.976-.158-.063-.127-.157-.221-.22zm-13.495 10.48c.064.095.064.221.032.284v.031c.032-.031.032-.031.095-.063l-.032-.031a.582.582 0 01.063-.598 2.63 2.63 0 00.253-.378c0-.031.032-.031.032-.063-.127-.44.031-.818.221-1.101.032-.032.063-.095.095-.126l.031-.032v-.031c-.094-.032-.158-.126-.22-.22-.127-.284-.096-.567.03-.756.096-.126.127-.189.127-.252 0-.22.19-.346.285-.346a.286.286 0 01-.127-.252v-.126a.66.66 0 01.063-.472c.032-.063.064-.157.095-.22v-.189c0-.157 0-.346.158-.566.221-.315.316-.567.285-.85-.032-.189.063-.378.158-.535l.094-.189c.032-.126.064-.252.095-.346.032-.22.253-.315.474-.315.064 0 .095 0 .127.031.19.063.284.22.252.441a7.32 7.32 0 01-.126.818c0 .095-.032.19-.032.284-.031.283-.094.598-.094.912 0 .126-.032.252-.063.347-.032.063-.032.094-.032.157a.39.39 0 01-.38.378 1.693 1.693 0 01-.22.409.434.434 0 01-.095.126c.063-.032.126-.032.158-.032a.51.51 0 01.284.095c.095.063.158.126.158.22.032.094 0 .157-.063.252-.063.094-.126.126-.19.126a.401.401 0 01-.284.126c-.032 0-.095 0-.127-.032h.032c.158 0 .253.063.348.126.063.063.126.157.094.346v.095c0 .063-.031.126-.031.189a.422.422 0 01-.253.22v.063c.032.126.127.377-.126.566v.063a.644.644 0 01-.222.315.575.575 0 01-.22.535c.03.378-.159.693-.317.944a.492.492 0 01-.253.19c.032.062.032.094.032.157 0 .094-.032.188-.063.283-.032.126-.127.189-.253.22h-.063a.34.34 0 01-.19-.063l-.031-.031c-.032-.032-.095-.095-.127-.19-.031-.062-.031-.094-.031-.157a.656.656 0 01-.19.063h-.095a.288.288 0 01-.253-.126c-.094-.094-.063-.22-.063-.251 0-.095.032-.158.032-.22a.397.397 0 01.379-.284c.158-.094.221-.031.284.032zm-.98-2.612c0-.094 0-.157.032-.22.032-.157.19-.252.348-.252.19 0 .347.126.347.283.032.158-.031.284-.126.41 0 .094 0 .22-.031.346-.064.157-.19.283-.38.283-.126 0-.19-.063-.284-.126-.063-.094-.127-.22-.095-.346a.717.717 0 01.19-.378zm-2.37 6.264l.032-.063c.063-.126.063-.158.063-.19-.063-.188 0-.408.19-.503.095-.031.126-.126.19-.315l.031-.125c.253-.598.474-1.07.695-1.543.158-.314.253-.566.348-.818.095-.252.19-.535.316-.755.032-.095.063-.158.095-.252.031-.063.063-.157.221-.22.063-.032.095-.032.158-.032.126 0 .221.063.316.157l.032.032a.435.435 0 010 .283.453.453 0 00-.064.22c-.031.095-.031.19-.094.315-.032.095-.064.158-.095.252l-.127.378a3.21 3.21 0 01-.284.692.972.972 0 00-.158.535.808.808 0 01-.158.44c-.032.064-.063.095-.095.158-.095.158-.158.252-.19.346v.063c0 .032-.031.063-.031.095-.126.157-.19.315-.253.503-.063.158-.095.315-.19.441l-.031.031c-.063.095-.127.22-.19.315 0 .032-.031.032-.031.063-.032.032-.127.22-.38.22h-.063a.238.238 0 01-.22-.157c-.159-.157-.127-.315-.032-.566zm-.79 1.794a.24.24 0 01.127-.063c.031-.158.126-.284.221-.41 0 0 .126-.157.316-.157h.127c.063.032.284.126.19.472a.972.972 0 01-.348.504.583.583 0 01-.222.378c-.063.031-.126.063-.19.063-.126 0-.252-.095-.315-.22-.127-.221-.064-.441.094-.567zm-39.502 26.06l-.095.063c-.064.032-.095.032-.127.063-.031 0-.063.032-.095.032h-.158c-.031 0-.094-.032-.158-.032a.444.444 0 01-.22-.189H31.6c-.063-.031-.127-.031-.19-.031-.158-.032-.316-.032-.474-.126-.063-.032-.126-.032-.221-.032s-.158-.031-.221-.031a.427.427 0 01-.285-.283.253.253 0 01.095-.284c.095-.063.127-.094.221-.125.032 0 .064-.032.127-.032h.126c.095 0 .127.032.158.032.253.031.632.094.948.314.063.032.095.095.127.158h.094a.7.7 0 01.253.031c.095.032.158.095.221.126l.064.063c.063.063.095.126.063.189 0 0-.063.063-.127.094zm4.36 1.605a.902.902 0 01-.284.063h-.095c-.126-.031-.284-.063-.41-.094h-.032c-.38-.063-.758-.126-1.138-.346-.063-.032-.126-.032-.221-.063-.063 0-.095-.032-.126-.032-.316-.094-.316-.283-.316-.409v-.031c-.032.031-.064.063-.127.063-.126.063-.253.063-.38.063h-.03a.362.362 0 01-.222-.095h-.095a.375.375 0 01-.379-.315c-.032-.157.032-.283.158-.346a.45.45 0 01.19-.063c.095 0 .19.032.253.063a.36.36 0 01.252-.094h.158c.127 0 .222.031.316.094a.34.34 0 01.095.22c0 .064 0 .095-.031.126a.342.342 0 01.22-.094c.127 0 .222.032.317.032l.221.03c-.032 0-.032 0-.063-.03-.127-.063-.19-.158-.19-.252 0-.095 0-.252.158-.347.158-.094.38-.22.632-.22h.095c.095 0 .19.063.221.095l.063.031c.064.032.095.094.095.126 0 .063 0 .126-.031.157l-.032.032a.591.591 0 01-.19.22c-.19.126-.379.158-.568.189h.031c.127 0 .221.031.348.031.253.032.6.095.916.347h.032c.063 0 .095.031.158.031.158.063.253.22.221.378.063.252-.031.378-.19.44zm18.52-8.938c-.095.126-.222.157-.316.189-.064.126-.19.189-.222.22a1.217 1.217 0 01-.379.157l-.126.063c-.032.032-.095.032-.158.032h-.063a.238.238 0 01-.064.126c-.126.126-.316.22-.474.314-.031 0-.095.032-.126.032a.288.288 0 01-.253-.126c-.063-.063-.095-.189-.095-.283a.49.49 0 01.19-.252l.379-.189.095-.031h.126c0-.032.032-.063.063-.095.19-.252.411-.409.696-.409a.493.493 0 01.41-.252.59.59 0 01.222.063.237.237 0 01.158.22c.063.032.031.158-.063.22zm11.692-11.268a.344.344 0 01.348-.283h.063c0-.032.032-.063.032-.063.031-.032.031-.063.031-.095.064-.126.127-.314.285-.409.031-.031.063-.031.095-.031.19 0 .316.094.316.22 0 .031.031.157-.032.283 0 0-.031.032-.031.063a.784.784 0 01-.253.378c-.032.252-.222.41-.348.535l-.063.063a.24.24 0 01-.127.063h-.031c-.127 0-.348-.095-.348-.283.032-.19.032-.315.063-.441zm-4.36 6.42l-.127.127a1.55 1.55 0 01-.537.44l-.032.032a.305.305 0 01-.032.283c-.031.095-.126.157-.252.157h-.253c-.095 0-.095.032-.127.063-.126.284-.284.41-.568.441v.032c-.032.03-.064.094-.095.125a.485.485 0 01-.348.158h-.031a.401.401 0 01-.285.126h-.032a.307.307 0 01-.316-.252c-.031-.126-.063-.378.285-.504.221-.22.442-.409.632-.598l.095-.063c.158-.126.316-.283.442-.409.095-.094.221-.189.316-.283.19-.157.411-.346.57-.535.094-.095.189-.22.284-.284.157-.157.252-.251.316-.409.031-.094.126-.22.284-.22.032 0 .063 0 .158-.126a.852.852 0 01.158-.189c.095-.063.158-.157.253-.22.253-.22.505-.44.663-.724l.032-.031.032-.032c.094-.063.19-.157.284-.22.095-.095.221-.189.348-.283a.984.984 0 01.158-.315c.126-.126.22-.252.252-.41.032-.188.19-.283.38-.314.031 0 .094 0 .19-.157.094-.19.252-.347.442-.535l.031-.032a.508.508 0 01.348-.22h.032c.094 0 .19.031.22.094.096.157.159.346-.062.567-.032.094-.158.283-.158.283-.032.063-.095.126-.127.22a.473.473 0 01-.221.283c-.095.063-.158.158-.221.252-.158.378-.474.535-.759.63 0 .063 0 .189-.063.283-.063.063-.126.126-.221.126v.063c-.032.031-.032.063-.032.094-.19.41-.505.819-.916 1.196-.474.41-.948.85-1.39 1.29zm10.776-3.524a.286.286 0 01-.158.031.406.406 0 01-.316-.126.68.68 0 01-.158-.44c0-.284.316-.756.505-.819.095-.031.158-.063.222-.063.157 0 .41.063.505.535.032.315-.38.819-.6.882zm2.718-4.029h-.064a.99.99 0 01-.284.535c-.126.315-.38.535-.6.724-.032.031-.095.063-.127.094a.677.677 0 01-.316.472l-.032.032c0 .094 0 .157-.031.22a.562.562 0 01-.253.22h-.221s-.063-.03-.095-.03c-.158-.064-.253-.158-.253-.316-.031-.126.032-.251.127-.346.063-.063.158-.094.22-.126 0-.031 0-.094.032-.126.064-.126.127-.251.253-.377 0-.095.063-.22.19-.315.158-.094.221-.252.316-.472a.53.53 0 00.063-.158c.063-.157.19-.283.284-.409a.688.688 0 01.253-.157.284.284 0 01.19-.189c.063-.031.126-.031.19-.031.094 0 .19.031.284.094.063.063.158.157.158.283 0 .19-.126.346-.284.378zm1.611-2.203a.512.512 0 01-.095.189.384.384 0 01-.126.126.34.34 0 01-.19.063h-.031c-.032 0-.095 0-.127-.032a.342.342 0 01-.22.094c-.032 0-.096 0-.127-.031-.19-.063-.253-.22-.221-.41.031-.22.094-.534.316-.786a.85.85 0 01.252-.22c.064-.063.158-.063.19-.063a.36.36 0 01.253.094c.126.126.095.283.063.378a.239.239 0 01-.063.126l.095.094c.126.126.063.283.031.378zm4.298-19.703a.34.34 0 01.19.063l.031.031c.158.22.032 1.29-.063 1.637a.323.323 0 01-.158.189.174.174 0 01-.158.094h-.031c-.064 0-.095-.031-.127-.063l-.031-.031c-.032-.032-.095-.063-.127-.157-.031-.063-.031-.126-.031-.19l.031-.22c.032-.409.063-.85.221-1.196.032-.094.127-.157.253-.157zm-.885-7.931c-.158 0-.316-.095-.347-.252l-.064-.126c-.031-.126-.094-.252-.126-.41-.031-.157-.031-.314-.031-.471v-.126c0-.126.094-.22.126-.252l.031-.032a.242.242 0 01.158-.063c.032 0 .095 0 .127.032l.031.031s.095.063.127.126c0 0 .031.032.031.063.032.063.095.158.095.284 0 .251.095.472.158.66a.432.432 0 010 .284.49.49 0 01-.252.188c0 .063-.032.063-.064.063zm.664 10.229c.063 0 .126 0 .158.031 0 0 .032.032.063.032.063.031.19.125.19.283 0 .22-.095.409-.348.503-.031 0-.031 0-.063.032h-.063c-.19 0-.348-.22-.348-.378-.063-.346.19-.503.411-.503zm-.348 3.147v-.126c0-.094.032-.189.032-.283a7.57 7.57 0 01.158-.724c.032-.094.063-.189.095-.252.095-.126.221-.189.316-.189h.063c.158.063.284.19.253.378l-.032.126c-.031.189-.063.346-.095.535l-.031.094a3.285 3.285 0 00-.127.535c-.031.126-.158.315-.316.315h-.031c-.127 0-.316-.094-.316-.346.031 0 .031-.032.031-.063zm.38 5.32h-.064a.37.37 0 01-.284-.347c.031-.252.126-.472.221-.661.095-.126.19-.189.285-.189.126.032.22.063.252.126.064.063.064.157.064.283v.032a.85.85 0 01-.253.63c-.032.094-.127.125-.221.125zm1.896 11.613v.157c0 .032 0 .095-.032.158-.158.283-.347.566-.537.881l-.127.189c-.094.157-.284.252-.505.252-.063 0-.127 0-.158-.032a.422.422 0 01-.221-.252.623.623 0 01.031-.346c.285-.44.506-.787.727-1.07.221-.315.348-.409.506-.409.094 0 .19.063.252.126.095.063.095.189.064.346zm.853-34.023c-.063.157-.221.22-.316.251-.032 0-.063.032-.095.032l-.031.031h-.095a.174.174 0 01-.158-.094l-.032-.032-.095-.094c-.094-.126-.22-.22-.284-.378-.063-.094-.063-.22 0-.377.031-.063.095-.22.253-.284.031 0 .094-.031.126-.031.253 0 .506.189.632.346.095.252.127.44.095.63zm4.487 12.054c0 .095 0 .189-.063.315-.031.126-.158.189-.22.22l-.032.032-.032.031a.242.242 0 01-.158.063h-.032a.174.174 0 01-.158-.094l-.031-.032c.031.126.063.252.095.44.031.127.063.347.063.567.031.315.031.441.063.504v.063l-.032 1.07c0 .189 0 .378-.031.566l-.19 2.11-.284 1.92a5.55 5.55 0 01-.222 1.132l-.094.378c-.032.189-.064.378-.127.566-.063.315-.126.63-.221.945-.063.252-.158.503-.221.787-.063.22-.127.472-.222.724l-.063.283c-.031.094-.095.189-.126.283l-.095.189c-.063.346-.19.787-.41.913-.032.031-.127.031-.159.031-.063 0-.19-.063-.22-.126-.064-.094-.032-.189 0-.315l.126-.629c0-.063.031-.157.063-.22a.582.582 0 00.063-.22c0-.095.032-.221.032-.315.031-.284.126-.567.19-.85.062-.22.094-.44.157-.661.032-.252.095-.535.158-.787.063-.283.126-.535.158-.787l.126-.787c.032-.157.032-.314.064-.44 0-.126.031-.252.031-.347.064-.535.127-1.101.222-1.668v-.094c.031-.535.094-1.07.158-1.605 0-.126 0-.22-.032-.378-.032-.157-.032-.315-.032-.472.032-.315.064-.598.095-.913a7.95 7.95 0 01.127-.913c.031-.157.031-.314.063-.472l.031-.44c0-.284.032-.347.064-.378.031-.063.126-.094.19-.094.094 0 .157.031.189.125 0-.157-.032-.314 0-.503 0-.126.063-.22.126-.315l.032-.063.031-.094a.213.213 0 01.19-.126c.063 0 .126.031.19.094l.063.063c.031.032.031.032.031.063a.507.507 0 01.127.22c.031.095.031.19.031.284v.126l.159.031zM73.19 64.078c.031-.063.063-.095.094-.158 0 .032 0 .063-.031.095 0 .031-.032.063-.064.063zm4.613-25.557c-.063-.126-.347-.284-.347-.378.19-.094.095-.283.095-.44 0-.126-.032-.284.031-.41.095-.22.032-.44.032-.66v-.127c0-.409-.032-.566 0-.503.095.126.126.346.158.504 0 .314.126.535.063.85.032.566.19 1.353.127 1.92 0 .062-.032.094-.064.157l-.031.031c-.032 0-.064 0-.064-.032-.063-.094-.094-.188-.031-.283.19-.252.126-.44.031-.63zm11.346 3.462c.094.472 0 .66 0 .724-.032.126 0 .283.031.44 0 .032.032.22.063.41.159.912.285 1.007.317 1.038.063.063.252.063.284-.094v-.032c0-.031.032-.251 0-.283 0-.031-.348-2.423-.506-2.58 0-.032-.031-.032-.063-.032l-.126.063v.031c0 .032-.032.095 0 .315zm-11.44-6.232c.094 0 .126-.157.126-.283v-.189s0-.378-.063-.504c-.032-.094-.063-.094-.095-.094h-.032c-.031 0-.063.031-.094.063-.032.126.031.252.031.346 0 .126.032.252 0 .378v.063c-.031.063-.063.157.063.22h.064zm-.6.283c-.064 0-.096.063-.096.158 0 .315.032.63.064.944v.031c0 .032-.032.095 0 .126.031.032.063.032.094.063.064 0 .095-.189.095-.189 0-.094-.031-.22-.031-.346v-.629c0-.063-.032-.158-.127-.158zm.568-2.171c-.032.094 0 .188 0 .283 0 .063.032.094.063.126l.032.031.063.095.032-.095c0-.031.031-.031.031-.063.032-.031.032-.094.064-.126V33.8c-.127-.819-.506-.819-.253-.063-.032.031-.032.094-.032.126zm-.822 6.106c0 .063.032.094.095.157.127.094.158.189.127.346-.032.063-.032.158-.032.22 0 .032 0 .095.032.095 0 0 .031.031.094.031.032 0 .095-.031.127-.094.126-.44.19-.881.221-1.259v-.032c0-.03 0-.062-.032-.094-.063-.031-.094-.094-.19-.126-.062-.031-.094 0-.126.032-.031.031-.031.063-.031.126a.597.597 0 01-.158.409c-.095.094-.127.157-.127.189zm.917-7.806c.095-.031.095-.063.095-.189 0-.063 0-.126-.032-.22l-.032-.063c-.063-.095-.126-.157-.19-.157-.03 0-.062.031-.062.094.031.063.126.535.22.535zm1.043.535c0-.063-.032-.126-.064-.22l-.094-.41c-.158-.251-.474-.346-.632-.125 0 .283.158.377.252.566.032.095.095.158.127.252s.063.157.095.22c.158.284.379.882.474.787l-.158-.85v-.22zm.379-3.084c.031.031.031.063.063.094.032.032.063.095.095.126s.063.031.095.031a.24.24 0 00.126-.063c.032-.031.063-.094 0-.188-.063-.063-.095-.126-.158-.19a2.922 2.922 0 00-.442-.44.433.433 0 01-.095-.126c-.095-.126-.19-.22-.38-.252h-.03c-.032 0-.064.032-.064.032-.032.063 0 .094.347.503.19.158.348.347.443.473zm-.727.944c.063.031.095.094.158.126a.098.098 0 00.063.031c.032 0 .032 0 .063-.031.064-.032.064-.126.032-.19a.38.38 0 00-.158-.157.553.553 0 01-.126-.157.938.938 0 00-.221-.346.153.153 0 00-.222 0c-.063.063-.031.126 0 .157.095.252.253.41.411.567zm-1.643 9.064l.031.032.032-.032c.032-.031.063-.031.063-.063.032-.188.032-.346.063-.472 0-.031 0-.094-.031-.126v-.031c0-.032-.032-.063-.063-.063-.032 0-.095.032-.095.063 0 .063 0 .126-.032.189-.031.094-.031.189-.031.283v.126c0 .031.031.063.063.094-.032 0 0 0 0 0zm13.494 10.765c0-.535 0-1.102-.032-1.322 0 0 0-.284-.031-.378-.063-.157-.316.378-.316.378-.032.094-.063.22-.063.314-.064.22 0 .473-.032.693 0 .094 0 .22-.032.377-.031.599 0 2.046.032 2.078.032 0 .19-.126.19-.126.19-.315.252-.756.252-.944.032-.252.032-.661.032-1.07zm-13.779-7.491c.158 0 .253-.158.285-.44.031-.19 0-.347-.032-.505 0-.063-.031-.125-.031-.22 0-.031-.032-.126-.095-.126-.032 0-.063.032-.063.032-.032.031-.064.063-.064.126-.031.157-.063.314-.094.503l-.032.19c-.032.125 0 .282.063.345 0 .063.032.095.063.095zm-.252 1.353h.063c.095 0 .126-.063.126-.094 0-.095.032-.095.127-.095h.189c.127-.063.095-.189.095-.252 0-.094-.063-.125-.126-.125h-.064c-.031 0-.031.031-.063.031-.031 0-.063.032-.095.032h-.031c-.032 0-.095 0-.095-.126 0 0 0-.063.032-.095.031-.126.031-.157.031-.189 0-.031-.031-.063-.063-.063h-.095s-.031.032-.063.032c-.095.189-.158.598-.126.818.063.095.126.126.157.126zm-.348 2.644c.221-.032.19-.567.41-.755.064-.063.096-.19.127-.284 0-.22 0-.44-.095-.66l-.031-.064-.063.063c-.317.284-.759 1.165-.348 1.7-.032 0 0 0 0 0z"/><path d="M17.664 26.844a.387.387 0 01-.285-.126c-.063-.063-.063-.126-.063-.189.127-.535.57-.976 1.075-1.416.158-.157.347-.315.505-.504a.242.242 0 01.158-.063c.064 0 .127.032.158.063.064.063.095.19.032.284 0 .031-.916 1.95-1.58 1.95zm71.105 9.6c-.095-.032-.41-.378-.41-.567 0-.063-.064-.126-.095-.157-.253-.252-.348-.63-.57-.913-.063-.063-.094-.157-.157-.252-.158-.346-.316-.724-.6-1.038-.064-.064-.506-.819-.538-.913-.126-.315-.221-.535-.474-.756-.063-.063-.284-.22-.316-.283a1.946 1.946 0 00-.632-.787c-.19-.126-.316-.283-.474-.44-.19-.22-.38-.504-.6-.724-.222-.22-.538-.787-.727-.976-.443-.44-.79-.535-1.233-.976a3.62 3.62 0 00-.38-.346c-.315-.252-.631-.535-.947-.787-.127-.126-.253-.283-.443-.314 0 0-.031 0-.031-.032-.221-.346-.632-.44-.853-.755-.127-.158-.348-.252-.538-.347a.637.637 0 01-.252-.125c-.064-.095-.159-.158-.222-.252-.221-.315-.442-.158-.821-.252-.127-.032-.285-.063-.38-.189-.031-.031-.094-.063-.126-.094-.127-.032-.19-.095-.221-.19-.032-.094-.095-.157-.127-.22-.031-.094-.126-.125-.22-.094-.127.032-.222.032-.285-.126-.032-.063-.063-.094-.127-.094-.126 0-.221-.063-.316-.126-.063-.032-.126-.095-.063-.157.095-.095.032-.158-.032-.252-.094-.095-.19-.19-.316-.158-.094.032-.158.032-.252.063-.127.063-.222.032-.285-.094-.063-.157-.253-.157-.38-.189-.094-.032-.22-.063-.283-.157-.064-.126-.19-.158-.317-.22a2.7 2.7 0 01-.79-.41c-.252-.189-.568-.283-.853-.378-.063-.031-.158-.031-.19-.063-.157-.094-.316-.22-.442-.314-.158-.095-.347-.032-.474-.158a.687.687 0 00-.442-.157c-.064 0-.095-.032-.158-.063-.158-.094-.316-.157-.474-.22-.253-.095-1.075-.787-1.36-.693-.063.032-.126 0-.157-.031-.285-.095-.664-.378-.917-.504a5.938 5.938 0 00-.948-.377c-.221-.095-.41-.252-.632-.378-.19-.095-.41-.126-.6-.157l-.759-.19a.24.24 0 01-.126-.062c-.19-.158-.443-.22-.695-.315-.285-.095-.57-.157-.854-.22a4.486 4.486 0 01-.695-.22 10.965 10.965 0 00-1.359-.378c-.284-.063-.6-.126-.885-.19a17.724 17.724 0 00-2.18-.408c-.443-.063-.885-.19-1.36-.284-.062 0-.126-.063-.22-.063-.443-.031-.917-.126-1.36-.094-.157 0-.347 0-.505-.063-.063-.031-.126-.031-.221-.031-.727-.032-1.296-.22-2.023-.284-.379-.031-.727-.063-1.106-.063-.379 0-.727-.094-1.106.063-.063.032-.158 0-.221 0-.19.032-.38-.188-.569-.031-.063.063-.158.031-.253.031-.126 0-.221-.126-.347-.126-.064 0-.127.032-.158.032-.348-.126-.696.031-1.043 0h-.221c-.253.063-.443-.22-.727-.095-.222.126-.506.063-.759.063s-.505 0-.758.063c-.222.063-.443.095-.664 0-.063-.031-.158 0-.253-.031h-.095c-.19.094-.316-.095-.505-.032-.158.032-.316.095-.474.063a1.546 1.546 0 00-.759 0c-.095.032-.19-.031-.284-.094-.095-.063-.19-.095-.253.031-.031.126-.158.158-.253.158-.347 0-.695.031-1.043.094-.063 0-.158 0-.22-.031a1.008 1.008 0 00-.854.126c-.063.031-.127.094-.19.031-.126-.063-.22-.063-.284.063-.063.063-.158.095-.253.063l-.38-.094c-.094-.032-.126-.126-.062-.19.031-.03-.57.252-.632.378-.032.095-.095.126-.19.126-.221 0-.41.032-.569.22-.095.127-.253.158-.41.158-.159 0-.285 0-.38-.157-.032-.063-.095-.063-.158-.032-.158.032-.316.063-.38.252-.03.094-.126.126-.22.189-.19.063-.506.126-.57.157l-.379.095a.45.45 0 00-.19.063c-.189.188-.441.22-.663.188a.852.852 0 00-.569.126c-.22.126-.474.158-.695.22-.221.063-.41 0-.6-.157-.063-.063-.632.126-.664.063 0-.031-.063-.031-.126-.031-.064 0-.095.031-.127.094-.031-.031-.253-.157-.316-.094-.063.094-.758.598-.885.566a1.862 1.862 0 00-.41-.063c-.064 0-.095.032-.127.095 0 .063-.158.22-.348.22-.252 0-.442.063-.537.346-.063.158-.158.158-.316.063-.095-.031-.158-.094-.158-.189-.031-.063-.063-.063-.095-.031-.094.063-.284.22-.316.157-.063-.157-1.232.756-1.39.661-.095-.063-.917.693-.98.787-.063.063-.095.126-.221.126-.19-.032-.284.063-.41.157-.19.158-.538.535-.57.567-.316.283-.663.503-1.074.535-.19.031-.348.031-.411.22-.032.063-.095.095-.158.126a1.762 1.762 0 00-.41.252c-.096.094-.19.126-.285 0-.032-.063-.158-.032-.19 0-.158.189-.41.252-.537.472a.653.653 0 01-.442.315c-.127.031-1.075 1.101-1.107 1.259-.031.094-.126.126-.22.189-.159.063-.38.094-.412.314 0 .032-.063.063-.095.063a.568.568 0 00-.379.378c-.063.157-.22.157-.316.283-.379.378-.821.724-1.169 1.133 0 0-.063.032-.063 0-.032 0-.032-.063-.032-.063 0-.031.032-.094.032-.125.19-.252.347-.536.537-.787a4.1 4.1 0 01.316-.473c.063-.094.126-.188.032-.314-.064-.063 0-.158.063-.252a.507.507 0 00.095-.283v-.032c-.032 0-.064-.031-.064-.031-.126.063-.537.566-.632.566-.031 0 0-.157 0-.157.127-.158.285-.693.538-.787.031-.031.063-.094.126-.126a3.94 3.94 0 00.316-.378.686.686 0 00.158-.251c.158-.284.316-.567.506-.819.063-.094.158-.189.158-.314 0-.063-.032-.095-.095-.126-.032-.032-.095 0-.095.031a.746.746 0 01-.348.41c-.22.188-.379.409-.474.66-.063.158-.094.284-.252.378-.095.063-.348.378-.506.567-.032.063-.063.125-.126.063-.032-.032-.032-.064 0-.095.031-.094-.095-.157-.095-.252 0-.063-.095-.063-.127-.031-.031.063-.063.094-.094.157-.095.095-.38.41-.475.315-.157-.189-.126-.472-.031-.724.063-.094 0-.315 0-.44 0-.158.031-.347.063-.504.063-.346.221-.693.158-1.039-.032-.126.253-.409.285-.535.158-.472.632-1.385.758-1.857a.916.916 0 00.063-.283c.032-.158 0-.283-.063-.252a.285.285 0 00-.19.189l-.19.472c-.03.063-.03.094-.062.157s-.064.095-.127.063c-.031-.031-.063-.063-.063-.094.032-.252.19-.598.316-.787.095-.157.221-.283.158-.504-.032-.063.126-.283.158-.377.221-.535.727-1.29.98-1.826.316-.66.663-1.29.98-1.951a6.5 6.5 0 011.232-1.7c.253-.252.537-.409.663-.724.064-.157.159-.251.285-.377.632-.724 1.264-1.48 1.928-2.204.379-.472.853-.818 1.327-1.227.316-.283.664-.44.948-.755.032-.032.032-.095.063-.095.664-.44 1.233-.913 1.896-1.353.348-.22.696-.44 1.012-.724.253-.189.505-.378.79-.535.537-.315 1.043-.472 1.611-.756a34.117 34.117 0 011.549-.723c.253-.126.506-.22.758-.315.285-.126.538-.22.854-.283.252-.032.474-.158.727-.22.347-.095.726-.19 1.074-.284.41-.126.822-.157 1.232-.283.064-.032.158-.063.222-.032.253.063.442 0 .663-.094A1.86 1.86 0 0138.3.752c.253 0 .506-.063.759-.126.284-.063.569-.094.853-.126.537-.063 1.011-.252 1.549-.315.19-.031.379-.031.568-.031.221 0 .474-.032.696-.032h.79c.063 0 1.833-.063 1.896-.063.727-.125 1.106-.031 1.833.095.031 0 .095.031.126 0 .727-.032.063.126.79.157.063 0 .127-.126.158-.157.443-.126.917-.063 1.36 0 .062 0 .126 0 .157.031.316.252.695.158 1.075.252.158.032.316.032.474.063.158.032.284.22.442.032.253.031.474.063.727.125.158.032.284.095.442.095 1.043.063 2.055.252 3.097.472.253.063.538.157.79.22.759.22 1.486.41 2.244.598.19.063.348.19.569.126.095-.031.158.158.285.19.19.062.347.156.505.188.443.126.853.346 1.264.503.443.158.853.22 1.296.41.727.283.095.535.727.283.095-.032.158.031.253.063.347.157.663.315.98.535.631.41 1.864.944 2.496 1.385.253.189.505.346.79.535.6.378 1.232.755 1.833 1.133.569.378 1.2 1.164 1.801 1.51.38.221.632.473 1.043.567a.661.661 0 01.19.126c.19.157.379.283.569.472.316.346.695.598 1.042.882.38.283.696.598 1.012.912.537.535 1.106 1.039 1.611 1.605.095.095.19.22.316.284.222.126.411.314.57.503.126.158.284.284.41.41.284.251.569.534.79.818.348.44.695.85 1.075 1.227.505.472.916 1.039 1.295 1.605.095.126.19.284.285.41.663.85 1.2 1.762 1.675 2.738.252.566.568 1.07.853 1.637.221.472.474.912.664 1.384.126.315.284.63.442.945.284.503.474 1.07.695 1.605.316.692.632 1.416.948 2.109.095.188.158.377.253.566.348.818.569 1.668.79 2.55 0 .031 0 .031-.031.062l-.064-.063c-.126-.346-.284-.723-.41-1.07-.285-.818-.696-1.573-1.043-2.36 0-.032-.032-.063-.032-.063-.032-.032-.063-.032-.126-.032 0 0-.032.032-.032.063-.032.095 0 .19.032.284.094.22.19.44.158.692.19.346.22.755.379 1.133.253.535.758 1.826 1.011 2.36a.34.34 0 01.032.158c0 .032-.032.063-.063.063H88.2c-.063-.126-.158-.283-.22-.41-.064-.22-.222-.345-.412-.471-.094-.063-.126-.095-.063-.19.032-.094-.38-.975-.41-1.07-.096-.251-.222-.503-.317-.755-.063-.125 0-.188-.126-.157a.213.213 0 01-.19-.126c-.095-.126-.095-.346-.221-.44a1.585 1.585 0 00-.38-.252c-.094-.032-.126-.158-.22-.22l-.032-.095c-.032-.189-.158-.315-.284-.44l-.159-.158-.031-.032c-.063-.094-.127-.188-.253-.22l-.063-.031-.032.063c-.095.157 0 .283.063.346a.097.097 0 01.032.063c.032.063.032.126.095.157l.126.126c.095.126.19.252.411.252h.032a.45.45 0 00.063.22c.19.315.41.63.6.944.032.063.095.126.127.22.19.441.505.787.663 1.26 0 .063.348.85.38.88.19.19.316.41.379.662.032.094.063.157.095.22.284.41.442.913.632 1.354.063.157.126.314.158.503.221.346.19.787.126.756zm-3.476-8.75c0 .157.032.346.095.503.063.158.221.22.284.252 0 0 .032 0 .032.032l.126.063c.032.031.063.031.095.031s.063 0 .095-.031c.063-.032.126-.095.126-.158l.032-.126.031-.063.032-.063a.928.928 0 00.063-.314c0-.315-.158-.535-.474-.598h-.095c-.063 0-.094.031-.158.063l-.031.031-.032.032c-.063.063-.221.157-.221.346zM44.463 1.318c0 .19.126.347.22.41a.68.68 0 00.38.125h.032c.442-.031.885-.094 1.327-.157l.158-.031c.095 0 .158-.063.19-.063l.158-.095c.063-.031.095-.094.095-.189 0-.063-.032-.157-.095-.188l-.158-.095a.606.606 0 00-.253-.126c-.221-.031-.443-.031-.664-.063h-.126l-.253-.031h-.253c-.126 0-.284 0-.474.094a.485.485 0 00-.284.41zm-6.194.598c0 .063.031.126.094.158l.253.126s.032 0 .032.031c0 0 .063.032.095.032h.158c.252 0 .442-.095.632-.158.158-.063.22-.22.252-.314v-.032c0-.063 0-.126-.031-.157l-.032-.032a.388.388 0 00-.284-.189c-.095-.031-.158-.031-.221-.031a1.14 1.14 0 00-.695.22c-.032.032-.032.032-.095.063l-.095.095a.337.337 0 00-.063.188zM31.379 3.9v.063c0 .063.032.095.063.126l.032.032c.063.094.19.126.316.126.158 0 .348-.063.569-.095.063 0 .095-.031.126-.031.79-.158 1.328-.284 2.023-.661l.316-.095a8.92 8.92 0 00.98-.315l.063-.031c.221-.063.474-.157.569-.378.063.032.095.032.19.032h.03l.096-.032.19-.094v.031c.03.378.252.472.442.472h.063c.284 0 .442-.22.506-.346.094-.126.22-.314.22-.566.096-.315-.094-.44-.189-.472a.45.45 0 00-.221-.063c-.063 0-.126 0-.19.031-.094.032-.19.063-.316.095 0 0-.031 0-.031.031-.032-.063-.095-.094-.127-.126a.633.633 0 00-.284-.063h-.063c-.032 0-.127.032-.127.063-.126.095-.252.22-.41.346-.032.032-.064.063-.064.095a.633.633 0 00-.284-.063c-.221 0-.474.094-.537.126-.19.094-.411.157-.664.22-.253.063-.474.157-.727.252-.284.063-.569.157-.822.22a2.52 2.52 0 01-.695.189c-.284.063-.569.189-.727.252-.063.157-.284.346-.316.63zm-3.602 8.593a.597.597 0 00-.253.063h-.095a.671.671 0 00-.474.22.475.475 0 00-.063.535c.063.157.221.252.41.252.064 0 .127-.032.19-.063.095-.032.158-.095.221-.126.159 0 .285-.031.443-.094.158-.063.316-.126.474-.158l.253-.094c.126-.032.253-.095.347-.126.316-.095.632-.189.948-.346.158-.063.285-.126.443-.126.348-.032.632-.158.948-.284.221-.094.442-.188.664-.22.252-.063.41-.315.379-.598a.469.469 0 00-.411-.409h.032c.284-.031.6-.063.885-.252.031-.031.063-.031.126-.031a.941.941 0 00.41-.19c.064-.03.285-.062.348-.062.348 0 .664-.126.948-.22l.6-.19c.317-.094.601-.188.917-.282.064-.032.158-.032.285-.063.158-.032.316-.063.505-.126.348-.126.696-.22 1.043-.347l.38-.094c.252-.063.474-.126.695-.126h.189c.063 0 .158.158-.19.189h-.03c-.633.094-1.265.283-2.087.567a3.098 3.098 0 01-.726.188c-.316.032-.664.158-1.075.41-.158.094-.316.188-.474.188-.316.032-.537.22-.664.347-.094.094-.158.251-.126.377.032.158.126.315.284.378a.98.98 0 00.253.063.458.458 0 00.221-.063.676.676 0 01.38-.094c.126-.032.284-.063.442-.126.19-.063.38-.126.6-.158.222-.063.474-.094.727-.189a.64.64 0 00.348.095c.063 0 .126 0 .19-.032h.126c.19 0 .38-.063.537-.157h.063c.253-.031.538-.063.79-.063l.222-.031c.22-.032.41-.032.632-.032.379 0 .569-.22.727-.409.094-.094.158-.252.126-.378.158-.063.316-.094.474-.126.158-.031.284-.094.442-.157.064-.031.095-.063.127-.063a.892.892 0 00.537-.378l.063-.031c.064-.032.095-.032.158-.063.095-.032.19-.063.316-.094.064-.032.19-.095.253-.19.095.032.19.064.285.064h.158c.474-.095.98-.158 1.453-.252l.38-.063a.703.703 0 00.41-.252c0-.031.032-.031.032-.063.253.095.41.126.6.126.222 0 .411-.063.664-.22a.676.676 0 01.38-.095c.284 0 .6 0 .947-.189.095.032.19.063.285.063h.158c.095 0 .158-.031.253-.031h.347c.348 0 .696-.032 1.075-.063l.19-.031c.126 0 .284-.063.442-.126.126-.063.221-.126.253-.252.031.031.063.063.126.063.19.063.38.126.537.157.316.063.664.126 1.043.126.158 0 .316.032.443.063h.063c.063 0 .126.031.19.031h.094c.063 0 .127 0 .19-.031a.504.504 0 00.284-.22c.063-.095.063-.19.063-.315a.503.503 0 00.316-.157c.064-.063.064-.158.064-.19v-.062c0-.032-.032-.095-.032-.126 0-.032-.063-.095-.126-.157l-.063-.032c-.159-.094-.317-.189-.538-.189h-.126c-.063 0-.158.063-.221.126L53.5 6.26c-.095-.063-.19-.126-.316-.126-.063 0-.127 0-.19.031-.031 0-.063 0-.063.032a.926.926 0 00-.284-.063l-.095-.032-.095-.031c-.158-.031-.347-.063-.505-.126h-.127a.639.639 0 00-.348.095.433.433 0 00-.252.314v.063a.504.504 0 00-.285-.22h-.063a.451.451 0 00-.38.189c-.03.031-.063.063-.094.126-.095-.032-.221-.032-.316-.032h-.316c-.158 0-.316 0-.474-.031-.316-.095-.695-.126-1.106-.126h-.348c-.284 0-.6 0-.916.031a.354.354 0 00-.095-.346.508.508 0 00-.348-.157.633.633 0 00-.284.063.424.424 0 00-.253.472v.063c-.253.031-.474.094-.727.126-.095.031-.158.031-.253.031-.063 0-.126 0-.22.032h-.064a.54.54 0 00-.41-.22.745.745 0 00-.317.094.878.878 0 01-.41.094h-.19c-.158 0-.285.032-.411.063a.979.979 0 01-.285.032h-.063c-.063 0-.095.031-.158.062l-.032.032c-.063.063-.157.094-.284.094-.095 0-.19 0-.316-.031h-.126c-.095 0-.19 0-.285.031l-.094.032c-.222.063-.475.157-.696.22l-.126.032h-.063c-.095 0-.222 0-.316-.032-.095 0-.19-.031-.285-.031-.316.031-.6.126-.885.22l-.158.063c-.158.063-.347.126-.505.126-.348.063-.6.126-.885.252-.063.031-.095.031-.095.031a.598.598 0 00-.253-.063.664.664 0 00-.348.126c-.094.094-.19.126-.379.157a1.786 1.786 0 00-.379.126 1.95 1.95 0 01-.38.158c-.315.157-.505.251-.758.251-.094 0-.158 0-.252-.031-.064-.031-.158-.031-.222-.031-.252 0-.41.157-.537.346a.98.98 0 00-.253-.063c-.22 0-.41.157-.505.283a.84.84 0 01-.474.283c-.411.063-.79.284-1.138.598l-.095.095c-.031.031-.063.063-.063.094-.253.095-.442.22-.6.41a.239.239 0 00-.064-.127l-.031-.031-.032-.094c0-.032-.032-.063-.095-.095.063-.031.127-.031.19-.063.126-.031.221-.094.284-.126 0 0 .032-.031.063-.031.159-.095.159-.252.159-.315s.126-.063.252-.063c.095 0 .158-.031.253-.063l.095-.094c.221-.032.38-.126.537-.22.063-.032.127-.095.19-.095.19-.063.221-.252.253-.315l.031-.063c.032-.094 0-.189-.095-.251l-.031-.032c-.063-.063-.158-.094-.285-.094-.284 0-.537.126-.758.22-.127.063-.221.126-.348.126l-.031.031a.436.436 0 00-.127.095l-.031.031c-.064.126-.095.378-.127.346-.031 0-.063-.031-.095-.031l-.094-.032h-.158c-.064.032-.158.032-.222.032-.22.031-.505.063-.726.22-.222.126-.411.22-.664.346l-.253.126c-.095.032-.19.095-.348.19a.383.383 0 00-.157.408l.031.063c.032.095.095.158.158.158h.063c.032 0 .063.031.127.031.095.032.22.063.347.063.063 0 .158 0 .222-.031l.158-.063c.094-.032.19-.063.284-.126-.032.063-.063.094-.095.157l-.031.063c-.032.063-.158.252-.064.472a.56.56 0 00.222.252c-.222.126-.411.22-.664.252-.221 0-.506.063-.695.315.031.346-.127.377-.474.409zM49.36 9.03l-.126-.095-.127-.063c-.19-.063-.41-.063-.663-.063-.316 0-.696.032-1.17.126a.705.705 0 00-.537.598l-.032.126c0 .063 0 .126.064.189a.242.242 0 00.158.063h.126c.506-.032.98-.126 1.454-.189h.063c.253-.031.442-.126.664-.252l.126-.094c.063-.032.095-.126.095-.189a.173.173 0 00-.095-.157zm-25.756.22c0 .031 0 .031.032.063l.031.063c.032.063.127.126.19.126h.032l.126-.032c.063 0 .126 0 .19-.031.22-.095.442-.22.632-.472.031-.063.158-.19.126-.41a.458.458 0 00-.19-.283c-.063-.063-.158-.063-.252-.063-.095 0-.222.032-.285.095-.19.157-.41.314-.569.472-.063.031-.126.126-.063.472zm-1.643 1.983a.335.335 0 00.158.063h.063a.584.584 0 00.41-.19l.159-.156c.253-.252.506-.536.758-.787.095-.095.127-.22.19-.347a.434.434 0 00-.095-.44c-.063-.095-.19-.126-.348-.126-.094 0-.22.063-.316.126-.379.346-.726.787-1.042 1.227a.5.5 0 00-.095.252c-.032.126.031.252.158.378zm-3.666 12.432v-.063c-.063-.189-.221-.283-.41-.283a.587.587 0 00-.222.063.745.745 0 00-.285.252c-.094.157-.063.314-.063.346.032.157.127.252.19.252a.402.402 0 00.19.031c.22 0 .41-.189.41-.22.095 0 .221-.158.19-.378zm.948-5.602v-.095c-.032-.189-.158-.283-.348-.346-.063-.032-.126-.031-.19-.031a.645.645 0 00-.473.188l-.064.063c-.126.095-.316.252-.316.535 0 .19-.031.284-.094.378-.127.158-.064.378.031.472.064.095.19.126.316.126.063 0 .127-.031.19-.031a.552.552 0 00.158-.126c.253-.315.474-.598.727-.913.063-.063.063-.189.063-.22zm1.39 1.29c-.031-.346-.252-.378-.379-.41a.37.37 0 00-.347.221c-.095.19-.19.346-.285.535-.063.126-.031.252 0 .284l.032.094a.238.238 0 00.221.157h.063l.095-.031a.452.452 0 00.253-.126 2.31 2.31 0 00.316-.41c.063-.094.031-.22.031-.314zm.79-3.021c.032-.032.064-.032.095-.063l.095-.063c.411-.315.853-.63 1.17-1.102.252-.346.6-.63.98-.913a.59.59 0 00.22-.189c.127-.157.253-.314.443-.472l.031-.031.38-.378c.063-.031.094-.031.158-.094l.063-.063h.063c.253-.095.6-.189.79-.598 0-.032.063-.063.127-.095.063-.063.157-.094.22-.188.285-.095.412-.284.506-.473 0 0 .032 0 .032-.031l.063-.063c.158-.063.285-.157.38-.22a.649.649 0 01.189-.126.529.529 0 00.221-.252.436.436 0 00-.126-.535.51.51 0 00-.285-.094.39.39 0 00-.316.157c-.094.126-.19.189-.347.315l-.127.094-.031.032a.406.406 0 00-.316.125l-.474.378a.584.584 0 00-.38-.157.52.52 0 00-.474.283c-.063.126-.158.315-.063.535 0 .032-.063.095-.063.095l-.032.063-.063.062-.095.095-.063.094a.754.754 0 00-.347.19c-.064.03-.095.093-.158.125a.42.42 0 00-.032-.44c-.095-.127-.221-.221-.348-.221a.515.515 0 00-.347.157c-.032.032-.095.063-.127.095-.095.063-.158.126-.253.189-.063.063-.094.094-.158.126l-.063.063c-.221.157-.474.377-.6.692-.316.094-.569.315-.727.66a.435.435 0 000 .442l.095.094c-.032.032-.095.094-.127.157l-.063.095c-.158.22-.316.44-.506.598-.19.126-.284.315-.379.44-.095.158-.158.252-.252.315-.159.095-.253.252-.317.378l-.031.031-.032.063a.574.574 0 00.19.787c.095.063.158.095.253.095a.483.483 0 00.379-.19c.126-.125.284-.251.442-.377.095-.189.348-.378.538-.692zm.917 1.605a.732.732 0 00.253-.378h.031c.159-.031.348-.157.348-.346v-.032c.19 0 .348-.094.506-.283.031-.031.031-.063.063-.063.126-.031.253-.094.316-.22.063-.095.158-.189.221-.283l.19-.22c.095-.095.095-.252.063-.378s-.126-.22-.284-.252c-.064 0-.127-.032-.19-.032h-.032c-.063-.031-.095-.031-.158-.031a.528.528 0 00-.41.22s-.727.756-.822.85c-.032.031-.063.094-.095.126-.095.094-.158.189-.158.315-.032 0-.063 0-.095.031-.19.095-.284.252-.347.346l-.032.032a.548.548 0 00-.126.472h-.064a.493.493 0 00-.41.252c-.095.157-.127.314-.095.472a.34.34 0 00.19.22l.063.032c.031.031.063.031.094.031h.064c.031 0 .126 0 .19-.063a.551.551 0 00.284-.63h.063c.095-.03.253-.062.379-.188zm23.891-6.956l.158.031h.095c.095-.031.158-.063.285-.094.094-.031.19-.063.252-.063.064.095.127.126.253.157.064 0 .095.032.158.032h.158c.063 0 .221-.032.348-.063h.063c.095 0 .19-.031.221-.031a.974.974 0 00.474-.126c.095-.063.222-.19.222-.347a.416.416 0 00-.285-.377c-.126-.032-.221-.063-.379-.063a.727.727 0 00-.442.126s-.032 0-.032-.032c-.032 0-.063-.031-.095-.031-.063-.032-.158-.032-.221-.032h-.253a1.797 1.797 0 00-.569-.094c-.19 0-.41.031-.6.094a.826.826 0 01-.348.095c-.063 0-.126 0-.19-.032-.063-.031-.126-.031-.22-.031-.19 0-.348.063-.475.126-.253.094-.474.188-.695.188-.032 0-.095 0-.126-.031h-.127a.778.778 0 00-.474.157c-.031 0-.063.032-.095.032l-.158.063c-.063.031-.126.094-.126.157s.032.158.095.189l.126.094a.757.757 0 00.443.158c.094 0 .22-.032.316-.063a8.873 8.873 0 011.01-.126l.854-.095h.253c.032.032.095.032.126.032zm9.007-.44h.063c.253-.032.57-.19.538-.725v-.125c.031-.473-.127-.661-.6-.724h-.507c-.22 0-.347.094-.379.188-.031.032-.031.063-.063.126a.705.705 0 00-.158-.094c-.063-.032-.158-.094-.284-.094-.095 0-.222.031-.348.188-.095-.031-.19-.094-.284-.094h-.38c-.095-.063-.19-.126-.316-.126h-.063c-.063 0-.126-.031-.19-.031a.52.52 0 00-.474.283.99.99 0 00-.347.252c-.063.094-.127.251-.063.377.063.158.19.252.347.284.19 0 .348.031.57.031h.157c.127.032.285.063.38.095.094.125.22.22.379.22.094 0 .19-.032.284-.126a.286.286 0 00.158.031c.063 0 .126 0 .19-.031.031 0 .063.031.063.031-.095.032-.158.095-.253.158a.477.477 0 00-.095.409c.158.346.822.44 1.106.472h.538c.094 0 .19-.063.252-.094l.127-.063c.063-.032.094-.095.126-.158s0-.126-.032-.189l-.063-.063-.031-.062a.486.486 0 00-.222-.22l-.126-.064v-.063zm1.833-1.732a.51.51 0 00.221.126l.19.063c.19.063.348.126.537.189.032.031.063.094.127.094.094.032.157.063.22.095.222.063.475.094.728.157.031 0 .094.032.126.032.063 0 .126 0 .158-.032a.689.689 0 00.253.158h.158l.126.031h.095c.063 0 .221 0 .316-.126a.418.418 0 00.095-.252.416.416 0 00-.284-.377 1.786 1.786 0 00-.38-.126c.19-.032.316-.19.348-.378a.545.545 0 00-.095-.44c-.063-.095-.19-.158-.284-.19l-.664-.094c-.032 0-.063-.031-.095-.031h-.221c-.032 0-.032-.032-.063-.032-.19-.094-.38-.126-.537-.157-.064 0-.127-.032-.19-.032-.38-.126-.758-.22-1.138-.346l-.79-.252c-.095-.031-.19-.063-.284-.063a.533.533 0 00-.38.158.53.53 0 00-.094.314.548.548 0 00.379.41c.19.094.316.157.41.157.222.032.443.126.696.22.063.032.158.063.221.095a.505.505 0 00-.158.346c.063.031.127.157.253.283zm2.465 2.959c0-.158-.158-.41-.38-.41-.062 0-.094 0-.094-.03a.482.482 0 00-.221-.316.597.597 0 00-.253-.063c-.126 0-.221.032-.285.095l-.094.094c-.032-.031-.032-.063-.095-.094-.095-.063-.285-.22-.537-.22h-.127c-.095.031-.252.094-.316.283-.063.157 0 .315.127.44a.428.428 0 00.126.095c-.126.063-.19.22-.19.346 0 .126.064.283.19.378a.844.844 0 00.38.094c.189 0 .379-.094.536-.252a.239.239 0 00.064-.125c.031.031.063.063.094.063a.534.534 0 00.348.094h.317a.508.508 0 00.347-.157c.031-.095.063-.22.063-.315zm1.422.157c-.032-.409-.348-.44-.506-.44l-.063-.032a.599.599 0 00-.505-.283c-.127 0-.222.063-.316.157l-.032.032-.032.063a.268.268 0 000 .22l.032.063a.687.687 0 01.095.157c.095.158.221.41.506.535.094.032.157.063.252.063s.158 0 .221-.031c.253-.063.38-.252.348-.504zm22.248 13.849c.063-.095.127-.189.127-.346 0-.347-.222-.598-.57-.661h-.094c-.19.031-.316.126-.38.251a.446.446 0 00.032.441c.063.126.158.22.222.315l.19.22a.174.174 0 00.157.095h.032c.063 0 .126-.063.19-.126l.063-.126.031-.063zm.759 1.605h.126c.19-.032.253-.157.348-.252l.031-.031c.032-.063.063-.126.032-.19v-.062c-.095-.315-.442-.504-.727-.504-.095 0-.158.032-.253.063a.447.447 0 00-.221.252.641.641 0 000 .346c.158.252.38.378.664.378zm.79.913c.063-.032.22-.095.284-.252.126-.252 0-.535-.253-.661a.587.587 0 00-.22-.063c-.254 0-.443.189-.443.41a.518.518 0 00.379.566h.063c.063.063.126.031.19 0zm-69.273-2.959c0-.283.127-.503.221-.63.222-.22.443 0 .443.378 0 .284-.41.85-.664 1.039-.22.126 0-.378 0-.787zm.411-4.91a.434.434 0 01-.158-.094c-.158-.22.032-.44.095-.63a.247.247 0 01.126-.126c.064-.031.127-.031.19-.031.032 0 .063.031.063.063v.315c-.095.157 0 .472-.316.503zm.98 7.554h.063c.126-.032.506-.094.537-.504a.877.877 0 00-.158-.535c-.031-.063-.126-.094-.19-.094h-.031c-.284.031-.632.503-.6.755.031.252.22.378.379.378zm3.318-3.808a.429.429 0 00.348-.19c.063-.094.095-.22.031-.314-.031-.094-.126-.157-.253-.189h-.031c-.032 0-.063 0-.095.032l-.032.031c-.063.032-.157.063-.22.157a.337.337 0 00-.032.347c.031.063.126.126.284.126zm.695-.882a.914.914 0 00.474-.377c.064-.095.032-.22 0-.284-.031-.063-.158-.126-.22-.126-.254.032-.443.126-.57.347-.095.126-.031.252 0 .314.032.063.095.095.158.126h.032c.032.032.063.032.095.032-.032 0 0 0 .031-.032z"/><path d="M44.02 80.602c-.063-.41 1.296-.693 1.39-.535.127.283-.157.63-.726.755-.38.032-.6.189-.664-.22zm-.98 1.416c-.126 0-.315.063-.442.094a.135.135 0 00-.094.032c-.158.031-.222.189-.253.283v.032c-.032.063 0 .126 0 .157.031.063.095.094.22.094.19 0 .728-.377.728-.566 0-.063-.032-.126-.158-.126zm.348-1.227h-.19a1.67 1.67 0 00-.473.157c-.032-.031-.064-.031-.095-.063-.032-.031-.158 0-.19 0 0 0 .032-.126.095-.157.127-.063.221-.095.348-.158.063-.031.695-.126.758-.157.063-.031.095-.094-.031-.126-.064 0-.949.189-.98.157-.063-.031-.063-.157-.032-.188.032-.032.948-.158.98-.19.032 0 .032-.062.032-.062 0-.032-.032-.032-.032-.032-.253.063-1.075.095-1.359.126-.063 0-.095 0-.158-.031-.032 0-.095-.063-.095-.095 0-.031.063-.094.063-.094.127 0 .253-.032.38-.032.063 0 .158.063.22.063.064-.031.096-.157.064-.22-.063-.094-.505-.094-.632-.063-.095.032-.474 0-.632.032-.095 0-.727 0-1.075-.063-.6-.095-1.58-.252-2.085-.441a18.552 18.552 0 01-2.307-1.07c-.474-.252-1.138-.598-1.58-.913-.6-.44-.98-.692-1.549-1.133-.474-.346-1.106-.976-1.58-1.353-.632-.535-1.264-1.102-1.928-1.669-.948-.818-1.738-1.762-2.686-2.612-.063-.063-.158-.126-.221-.22-.284-.346-.537-.693-.822-1.039-.063-.094-.126-.22-.221-.252-.284-.063-.348-.283-.41-.535-.064-.314-.254-.566-.57-.66-.158-.064-.284-.126-.379-.252-.158-.19-.284-.378-.442-.598-.064-.095-.127-.19-.095-.315 0-.126-.032-.189-.127-.252-.158-.063-.284-.189-.252-.346.031-.189-.064-.283-.19-.315-.095-.031-.126-.094-.126-.189.031-.157-.064-.283-.222-.314-.19-.032-.284-.19-.379-.347-.38-.598-.758-1.164-1.074-1.825l-.285-.567c-.379-.63-.632-1.322-.916-1.983-.253-.598-.57-1.133-.822-1.7-.031-.094-.158-.125-.158-.251a1.169 1.169 0 00-.316-.693c-.063-.062-.063-.157-.095-.22-.063-.189-.158-.377-.22-.566-.127-.315-.317-.661-.443-.976-.127-.346-.348-.661-.411-1.007-.032-.22-.158-.378-.285-.567-.126-.189-.063-.44-.19-.66a2.981 2.981 0 01-.284-.662c-.095-.22-.126-.44-.284-.598-.19-.188-.032-.472-.158-.66-.063-.095-.127-.19-.095-.315a.24.24 0 00-.063-.158c-.221-.252-.284-.566-.38-.85-.094-.283-.126-.598-.315-.818a.332.332 0 01-.064-.157c.032-.158-.031-.189-.158-.22-.126 0-.19-.126-.126-.22.126-.19.095-.379.032-.567-.19-.504-.222-1.07-.506-1.543-.032-.094-.032-.189-.032-.283 0-.346-.126-.66-.158-1.007a2.074 2.074 0 00-.158-.472c-.063-.126-.22-.63-.22-.756 0-.314 0-.598-.159-.85-.095-.157-.19-.346-.126-.503a.568.568 0 00-.032-.504.627.627 0 01-.063-.409c0-.094 0-.189-.032-.283-.158-.346 0-.755-.22-1.07-.033-.032-.033-.095-.033-.157 0-.095-.031-.19-.031-.284-.063-.472-.19-.944-.19-1.447 0-.315-.063-.662-.095-.976-.031-1.07-.031-2.14-.063-3.21-.031-1.197-.063-2.393-.063-3.589 0-.189-.031-.409 0-.598.063-.283.032-.535.063-.818 0-.157 0-.315.032-.472.095-.661.126-1.29.158-1.951 0-.158 0-.347.032-.504.031-.346.063-.693.094-1.007 0-.315 0-.63.063-.945.032-.094 0-.188 0-.283 0-.031.032-.378.064-.535.063-.378.126-.755.158-1.133.031-.252.063-.472.158-.724l.284-.944c.095-.346.19-.724.348-1.07.158-.346.19-.724.347-1.102.032-.063.032-.126.032-.22-.032-.22.063-.378.19-.535.063-.063.094-.126.063-.189-.063-.126 0-.22.063-.315.221-.346.442-.66.537-1.07 0-.063.064-.094.095-.126a.409.409 0 00.158-.409c-.031-.157.032-.252.127-.346.158-.158.315-.346.379-.567l.095-.188c.126-.19.22-.347.347-.536.348-.566.664-1.133 1.17-1.573.031-.032.063-.095.094-.126.253-.315.443-.661.727-.944.127-.126.253-.315.38-.441.41-.504.853-1.007 1.327-1.448.41-.378.884-.66 1.264-1.101.284-.315.632-.536.98-.787.094-.063.157-.095.252-.158.063-.031.095-.094.063-.157-.031-.032-.063-.032-.126-.032-.158.032-.316.095-.506.158-.22.094-.442.189-.663.094-.285-.126-.538-.031-.79.095a9.516 9.516 0 00-1.328.85 2.497 2.497 0 01-.727.44 2.48 2.48 0 00-.568.346c-.158.126-.285.22-.443.347a2.37 2.37 0 00-.505.472c-.095.094-.158.157-.253.22-.285.22-.6.41-.822.692-.316.378-.632.724-.948 1.102-.063.063-.126.157-.221.22-.348.252-.6.567-.885.85-.126.158-.253.315-.442.41a1.814 1.814 0 00-.6.597c-.19.252-.38.535-.601.787-.443.44-.822.913-1.17 1.417-.094.125-.158.251-.253.346-.41.409-.758.85-1.074 1.322-.442.63-.79 1.322-1.232 1.951-.253.378-.506.787-.759 1.133-.316.44-.632.85-.853 1.322-.285.567-.664 1.102-1.043 1.605-.063.095-.126.19-.19.283-.126.19-.22.41-.347.599-.19.314-.411.629-.506 1.007 0 .063-.063.126-.095.189-.158.157-.22.346-.316.566-.19.41-.379.818-.569 1.26-.031.093-.094.188-.094.282 0 .22-.127.441-.158.661-.032.158-.127.284-.19.44a.848.848 0 01-.221.253c-.127.094.063.22-.063.314-.095.126-.127.284-.19.441-.063.189-.19.378-.221.598-.253.378-.316.85-.538 1.26-.22.471-.252.975-.537 1.415-.063.441-.316.787-.379 1.228-.095.535-.032 1.007-.19 1.51-.094.315-.126.63-.284.945-.032.063-.032.189-.032.283 0 .157 0 .315-.063.472-.126.378-.158.756-.221 1.133-.032.126-.032.284-.063.41-.095.314-.19.629-.221.944-.064.409-.127.818-.095 1.227v.126c-.127.252-.095.504-.095.756-.032.251-.032.503-.095.755-.031.063-.031.126 0 .157.158.19.063.819.063 1.007v.252c.032.598.064 1.196.064 1.794 0 .158 0 .346.063.504a.967.967 0 010 .598c-.063.157-.095.315-.032.472.032.063 0 .126-.031.189a.57.57 0 00-.095.44c.063.19.063.378.063.598.032.22.032.441.095.661.063.158.095.347.095.535-.032.19 0 .41.126.567.063.094.063.189.063.283-.031.346.063.693.158 1.039.063.22.158.472.19.692.063.535.284 1.008.379 1.543.095.409-.158.818.126 1.196a.244.244 0 01.064.251c0 .063 0 .126.031.158.095.126.095.22.032.346-.032.063-.032.094 0 .157.063.095.063.22.126.284.127.094.063.251.127.346.063.094.126.22.063.378v.094c.19.126.126.346.221.504.474.786.79 1.636 1.233 2.454.063.126.126.252.22.347.19.22.506 1.038.601 1.101.095.063.127.126.158.252 0 .032.032.095.032.126.031.157.569 1.322.727 1.51.063.095.19.158.22.316.033.22.159.377.254.597.031.095.095.158.031.315-.063.158.032.347.222.41.063.03.568 1.038.884 1.353.032.031.064.063.064.094-.032.158.094.22.158.315.063.094 0 .252.094.346l.095.189c.032.063.632 1.07.664 1.133.095.126.474.157.506.252.126.409.379.724.6 1.07a.425.425 0 00.221.189c.19.063.285.189.348.346.158.315.347.598.569.85.158.189.252.409.474.535.063.031.094.126.158.189.095.126.22.283.316.409.537.63 1.074 1.102 1.612 1.731.19.22.379.44.6.63.442.377.885.755 1.327 1.07.19.126.38.283.537.409.316.283.633.598.98.85.569.44 1.17 1.038 1.77 1.447.79.567 1.643.85 2.465 1.322 1.359.756 2.844 1.731 4.33 2.203a.45.45 0 00.189.063c.41.032.664.19 1.043.315.632.22 1.327.41 1.99.535.38.063.79.095 1.202.158.632.094 1.264.189 1.896.189.158 0 .284.03.41.062.19 0 .38.063.538 0 .253-.094.474-.063.727-.063.505.032 1.011.032 1.517.063.379.032.727-.157 1.106-.188.569-.063 1.359-.126 1.864-.378h.095c.285.031.569-.063.853-.094.285-.032.538-.19.822-.252.158-.032.885-.158 1.043-.19l1.422-.471c.221-.063.41-.19.632-.252.063-.032.063-.094.032-.126-.095-.063-.19-.126-.316-.094-.095.031-.222-.063-.285-.063-.316 0-.19.22-.221.283-.063.094-.158.094-.253.031-.031-.031-.063-.031-.095-.063-.063-.031-.094-.031-.126.032s-.032.031-.063.094c-.032.063-.095.126-.158.126a.879.879 0 00-.411.032c-.127.031-.79-.063-.917.031-.031 0-.158-.094-.158-.126 0-.031.095-.126.095-.126.221-.031.948-.22 1.138-.22.032 0 .063 0 .063-.031.127-.22.443-.095.6-.284.159-.189 1.296-.314 1.423-.346.031 0 .537-.22.569-.22l.031-.032c0-.031 0-.063-.032-.063-.347.032-1.99.22-2.148.22a.612.612 0 00-.316.095c-.032.032-.095.063-.127 0-.063-.063-.095-.126-.063-.189.063-.094.126-.157.158-.251.032-.095.822-.284.885-.315.221-.095 1.011-.032 1.011 0 .032.031.063.126.158.126a.45.45 0 00.19-.063c.063.031.126.031.252.031h.064c.347 0 .474-.126.6-.22l.127-.126v-.031c-.095-.19-.316-.19-.38-.19zM11.312 18.912c.095-.251.221-.566.506-.787l.031-.03.063-.064c.032-.189.19-.315.285-.378.031-.031.063-.031.063-.063a.24.24 0 01.126-.063l-.031-.03c-.127-.158-.032-.316-.032-.379 0-.031 0-.031.032-.063.126-.188.253-.283.442-.314h.095c.158 0 .285.094.348.252a.36.36 0 01-.127.377.959.959 0 01-.22.157.436.436 0 01-.127.095.345.345 0 01.095.189c.031.126-.064.252-.095.283l-.032.063c0 .063-.031.126-.095.22 0 .032.032.063.032.095 0 .063-.032.157-.095.189-.063.063-.063.125-.063.283v.126c0 .252-.158.44-.285.566-.094.126-.22.126-.252.126h-.032a.34.34 0 01-.19-.063c-.031-.031-.063-.063-.063-.094a.344.344 0 00-.063-.126s-.063-.031-.095-.031c-.221-.126-.316-.315-.221-.536zm-.79 1.417c.031-.063.063-.158.095-.252 0-.032.031-.032.031-.063.063-.126.158-.315.411-.378h.063a.29.29 0 01.222.095c.031.031.063.063.063.094l.158.158a.34.34 0 01.221.094.317.317 0 01.095.252c0 .094-.095.252-.221.283-.032.032-.095.032-.127.032h-.031c0 .062-.032.094-.064.157-.063.126-.158.189-.22.252l-.033.031a.242.242 0 01-.158.063h-.063a.45.45 0 01-.19-.063.316.316 0 01-.157-.346l-.032-.032a.334.334 0 01-.063-.377zM8.31 24.043c0-.032.031-.032.031-.063a.397.397 0 01.38-.284c.126 0 .22.063.284.158.063.126.095.283 0 .409-.032.063-.095.157-.126.22-.064.095-.127.126-.158.158a.242.242 0 01-.158.063c-.032 0-.064 0-.095-.032h-.032a.285.285 0 01-.19-.189c-.031-.189.032-.346.064-.44zm-3.16 7.49a.413.413 0 01.252-.188c.158 0 .222.063.285.126.031.031.095.125.031.283 0 0 0 .031-.031.094.031 0 .063-.031.063-.031h.095a.39.39 0 01.284.126.305.305 0 01.032.283c0 .032 0 .063-.032.094a.967.967 0 01-.158.378.377.377 0 01-.284.157.288.288 0 01-.221-.094.688.688 0 01-.095-.157s-.032 0-.032.031c-.032.032-.095.032-.126.032a.242.242 0 01-.158-.063l-.032-.032c-.032-.031-.063-.094-.095-.157a.706.706 0 01.032-.44c.063-.127.126-.221.19-.347v-.094zm-1.17-.44c.158-.252.221-.535.316-.787.032-.094.032-.189.063-.252a.564.564 0 01.158-.22.587.587 0 01.222-.063c.031 0 .063 0 .094.031.127.032.19.158.19.19a.551.551 0 01.032.188v.063c0 .032-.032.063-.032.063-.032.032-.032.095-.032.157-.031.126-.063.284-.158.441 0 0 0 .032.032.063 0 .063.032.126.032.22-.032.315-.19.473-.506.473h-.032c-.158 0-.284-.064-.347-.19-.127-.125-.127-.251-.032-.377zm-.474 1.794v-.032c0-.031.032-.094.032-.157.031-.126.158-.189.19-.189l.031-.031c.032-.032.095-.032.126-.032h.064c.063 0 .126.063.126.095l.032.063s.063.063.063.157c0 .063.063.252-.063.44-.032.064-.095.127-.127.127l-.063.031c-.032.032-.095.032-.126.032-.064 0-.127-.032-.19-.095l-.032-.031a.705.705 0 01-.094-.158c-.032-.031-.032-.094-.032-.126.063 0 .063-.094.063-.094zm-.885 2.58l.032-.157c.031-.188.19-.692.506-.692.094 0 .158.032.22.094a.92.92 0 01.285.661.49.49 0 01-.347.535h-.032l.032.032.031.031a.268.268 0 010 .22.842.842 0 01-.41.347h-.095c-.159 0-.285-.157-.317-.283-.031-.284.127-.41.222-.44-.158-.064-.127-.221-.127-.347zm-1.295 6.705s.031 0 0 0v-.22c0-.126 0-.441.316-.567.031 0 .094-.032.126-.032h.063c.063.032.19.063.253.158.126.22.126.472-.032.724a.915.915 0 01.064.283.475.475 0 01-.443.44h-.095c-.19-.03-.347-.22-.347-.44a.354.354 0 01.095-.346zm.284 2.423c-.032 0-.032 0 0 0h-.126c-.095-.031-.253-.126-.316-.409a.464.464 0 01.126-.409c.063-.094.19-.126.284-.126h.064a.512.512 0 01.347.283c.063.19-.031.378-.063.441-.095.126-.221.22-.316.22zm1.233 9.474v.063c0 .063-.032.063-.032.094-.032.095-.158.19-.285.19a.351.351 0 01-.316-.158 1.678 1.678 0 01-.19-.44.361.361 0 01.159-.441.45.45 0 01.221-.063.4.4 0 01.284.126c.127.157.19.346.19.535-.031.063-.031.063-.031.094zm4.392 11.96c0 .063 0 .126-.031.19-.032.094-.127.125-.158.157a.242.242 0 01-.158.062h-.032a.34.34 0 01-.316-.251v-.063c0-.063-.032-.158-.032-.252h-.094a.437.437 0 01-.348-.189c-.158-.22-.158-.44-.158-.63 0-.094 0-.157-.032-.22v-.126c.032-.094.032-.188.064-.314a.328.328 0 01.284-.252h.063a.39.39 0 01.316.157c.095.126.221.283.127.535-.064.22-.032.346.031.44.063.064.063.158.063.253h.032c.126.031.221.157.284.252a.397.397 0 01.032.188c.095.032.095.032.063.063zm1.675 2.864a.36.36 0 01-.253.095c-.126 0-.252-.063-.379-.284-.031-.03-.031-.094-.063-.125-.063-.126-.19-.284-.19-.472a.688.688 0 01-.379-.347c0-.031-.032-.063-.063-.094-.127-.157-.253-.346-.19-.63.032-.094.095-.22.221-.251.032 0 .095-.032.158-.032.095 0 .19.063.253.126.158.252.285.504.443.755a.428.428 0 01.126.095s0 .031.032.031c.221.158.316.41.41.661.032.126.032.346-.126.472zm.032-5.76h-.19l-.031-.03c-.064-.032-.19-.064-.253-.221-.032 0-.063.031-.095.031H8.34c-.031 0-.19 0-.316-.126-.063-.094-.158-.188-.22-.251l-.19-.252c-.064-.095-.127-.189-.127-.283a.772.772 0 01-.348-.284.416.416 0 01-.316-.283v-.283a.62.62 0 01-.284-.284 6.152 6.152 0 00-.19-.44l-.031-.063c-.127-.283-.253-.535-.348-.818a7.671 7.671 0 00-.316-.756s-.095-.22-.126-.283c-.032-.094-.063-.157-.063-.252-.127-.566-.285-1.133-.411-1.668-.032-.063-.032-.126-.064-.157a1.226 1.226 0 01-.22-.504c0-.031-.032-.094-.096-.157-.379-.346-.379-.787-.347-1.07 0-.126 0-.19-.032-.252a.806.806 0 01-.095-.756c.032-.031.032-.094-.031-.189-.032-.03-.063-.094-.095-.125a.428.428 0 00-.095-.126c-.316-.44-.442-.881-.379-1.354 0-.094 0-.188-.032-.251a2.83 2.83 0 01-.19-.693.288.288 0 01-.252.126c-.063 0-.095 0-.126-.031a.646.646 0 01-.253-.252 1.06 1.06 0 01-.032-.63c0-.063.032-.094.095-.157-.032-.032-.063-.032-.095-.063-.063-.063-.126-.126-.126-.283 0-.095.031-.158.031-.252 0-.095.127-.252.316-.252H3c.063.032.19.063.252.157v-.755c0-.094-.031-.157-.031-.22a5.337 5.337 0 01-.063-1.228c-.064-.22-.032-.44 0-.598 0-.094.031-.157.031-.189v-.283c0-.157 0-.315.032-.472.031-.22.031-.346-.063-.472-.158-.22-.158-.913-.095-1.102.063-.126.031-.251.031-.409v-.566c0-.252 0-.535.222-.787-.158-.252-.064-.504-.032-.661l.032-.063c.094-.315.094-.567.063-.818-.032-.126-.095-.535.253-.819-.127-.252-.158-.409-.285-.346-.031 0-.063.032-.095.032-.031.094-.063.22-.22.283-.064.031-.096.031-.127.031-.127 0-.222-.063-.316-.157a.446.446 0 01-.064.189c-.094.189-.19.346-.252.535.063.063.126.126.126.22.032.094-.032.22-.126.283 0 .063-.032.126-.095.19a.288.288 0 01-.253.125c-.158 0-.284-.094-.316-.22 0-.032 0-.063-.032-.063-.031-.095-.126-.315 0-.535.032-.032 0-.126 0-.19-.031-.25.032-.44.064-.629l.031-.157c.032-.252.411-.472.38-.535-.127-.157-.095-.346-.064-.535v-.063c0-.094.032-.252.158-.378-.031-.22.063-.377.095-.503l.032-.063a.348.348 0 01.316-.19c.19.032.284.158.316.284v.284c.031.062 0 .188-.032.283-.031.126-.063.22-.031.283.031.126 0 .252-.127.378-.032.094-.348.346-.284.346a.689.689 0 01.158.126c.031-.032.031-.063.063-.095.063-.094.19-.126.284-.126H3a.338.338 0 01.284-.188c.221 0 .284.157.316.22 0 0 .063.031.063 0 0-.22.158-.315.221-.378.032-.031.032-.031.064-.031l.031-.032v-.031c-.158-.283-.095-.567-.063-.693l.063-.283c.063-.252.127-.535.19-.818.031-.095.063-.189.126-.283.063-.158.127-.315.158-.473 0-.063.032-.125.032-.157 0-.063.031-.094.031-.157.064-.346.127-.535.348-.819 0-.031.032-.031.032-.094 0-.126.031-.283.063-.44a.566.566 0 01.19-.284c-.032-.063-.127-.252-.032-.44a.512.512 0 01.348-.284c.031 0 .094-.031.126-.031h.063c.032 0 .095 0 .127.031.094.032.126.095.158.189.031.346-.127.504-.222.566 0 .032-.031.032-.031.032.031.063.063.126.031.22l-.126.567-.19.944c-.063.346-.126.724-.19 1.07l-.063.41c0 .062-.031.157 0 .188.095.22.095.44-.031.63a.69.69 0 01.031.252.447.447 0 01-.252.283v.063c.031 0 .063.031.094.031.032.032.158.095.158.252.032.315.064.66.095 1.007l.032.22c0 .158 0 .378-.095.567v.567c0 .346.032.66.032.975.031.22 0 .44-.032.693v.063c0 .094-.032.126 0 .188a.443.443 0 01-.158.473v.063c.032.125.032.314.063.503v.157c.032.22.032.504.063.661a.764.764 0 010 .378.686.686 0 01.159.252.53.53 0 01-.095.315c-.064.063-.032.125.031.346l.032.126c.095.252.063.377-.063.535.126.157.095.377.095.44v.347a.554.554 0 01.22.157c.064.126.032.252 0 .283 0 0-.03.032-.03.063-.032.126-.19.22-.254.252-.031.126-.031.22-.126.346v.126h.126c.19 0 .348.126.38.283.031.19.094.378.094.598.032.126-.031.284-.19.378.285.032.285.315.285.504v.252a.544.544 0 01-.158.377l-.031.032a.242.242 0 01-.158.063c-.032.157-.064.346-.127.535-.063.188-.032.314.095.377a.553.553 0 01.126.158l.064.063a.65.65 0 01.316.44c.031.19.063.346.126.504a.977.977 0 01-.032.787c.127.094.222.22.222.377a.33.33 0 00.031.126c.158.063.221.284.158.441a.52.52 0 01.285.41c0 .03.031.094.063.125.126.032.253.094.284.22 0 0 0 .032.032.032.031.094.063.189.063.346.095.063.158.157.158.252 0 .063.032.22-.063.346.031.032.031.063.063.095.095.157.126.314.158.44.032.095.032.158.063.252l.063.063a.529.529 0 01.158.378v.251c-.031.095-.063.252-.284.315-.032 0-.032.032-.032.095-.031.094-.031.188-.031.283h.063c.095 0 .158.031.221.094a.374.374 0 01.095.346c0 .063-.032.126-.032.158.19.031.285.126.316.377v.063a.534.534 0 01.032.22c0 .095.032.127.063.127.064.031.158.157.19.314.063.315.221.567.348.819.063.094.063.189.094.283a.45.45 0 01.19-.063h.063c.158.032.316.22.316.378v.031c-.063.252-.063.598-.442.693zm-1.738-7.05c0-.22.158-.314.284-.346h.063c.127 0 .19.063.221.063a.53.53 0 01.253.535c0 .126-.095.252-.19.283-.03.032-.094.032-.157.032-.064 0-.127 0-.158-.032a.49.49 0 01-.316-.535zm1.548-1.038a.375.375 0 01.38-.315h.063c.19.063.316.22.316.44 0 .19-.19.378-.38.378-.063 0-.126 0-.158-.031a.444.444 0 01-.22-.472zm3.382 5.665c-.064.032-.095.032-.158.032a.389.389 0 01-.348-.22.366.366 0 01.158-.504.993.993 0 01.19-.158c-.064-.063-.095-.126-.127-.188-.063.03-.126.062-.19.062a.422.422 0 01-.316-.126c-.22-.157-.316-.346-.284-.597-.442-.315-.6-.787-.758-1.197 0-.031-.032-.063-.032-.094-.031.063-.095.126-.221.157-.032 0-.095.032-.127.032-.094 0-.158-.032-.22-.063-.096-.063-.127-.157-.19-.252-.032 0-.064.032-.127.032H9.29c-.094-.032-.158-.063-.19-.158a.305.305 0 01-.03-.283.37.37 0 01.347-.283h.031v-.032c.032-.031.064-.094.127-.126-.095-.063-.158-.157-.221-.22-.19-.315-.064-.535.063-.66l.063-.064c.063-.063.19-.189.348-.189 0 0 0-.031.031-.031l.095-.095a4.623 4.623 0 01-.316-.692c0-.032-.063-.063-.095-.094l-.095-.063c-.347-.284-.537-.661-.568-1.196 0-.063 0-.126.031-.19l-.063-.062c0-.032-.032-.032-.032-.063-.031.126-.158.22-.316.22-.031 0-.094 0-.126-.031-.19-.063-.316-.22-.38-.44-.03-.095 0-.221.064-.316 0-.031.031-.031.031-.063-.126-.031-.284-.094-.316-.251-.031-.095-.031-.22-.031-.347v-.125c0-.158 0-.252-.032-.315-.031-.063-.063-.158-.031-.22-.095-.095-.158-.19-.158-.347v-.189c-.032.063-.095.095-.158.126h-.095c-.127 0-.285-.063-.348-.189-.221-.44-.284-.912-.221-1.479 0-.063.032-.189.221-.252.032 0 .221-.126.19-.126-.285-.031-.474-.188-.537-.472-.032-.22-.032-.377.063-.535.063-.126.19-.157.253-.189 0-.031 0-.063.031-.094v-.094c-.031 0-.095.031-.126.031-.158 0-.348-.094-.38-.41v-.188c0-.189.127-.315.253-.346 0-.032 0-.063-.031-.063l-.032-.095c-.031-.188-.126-.472.127-.786 0 0 0-.063-.064-.126l-.031-.032c-.063-.063-.19-.157-.221-.346a10.132 10.132 0 01-.064-1.007 6.62 6.62 0 00-.063-.819c-.031-.188-.031-.377-.031-.535 0-.188 0-.377-.032-.566-.032-.126-.032-.283-.032-.41v-.094c0-.188-.031-.44-.094-.66a5.147 5.147 0 01-.064-.724v-.441c-.126-.158-.158-.346-.094-.598 0-.063 0-.095.031-.158 0-.157.032-.314.095-.503-.032-.157-.063-.283-.063-.41 0-.062 0-.125-.032-.157-.063-.188-.031-.409 0-.566 0-.158.032-.252 0-.378 0-.031-.031-.094 0-.157.063-.158.063-.346.095-.535 0-.095.032-.158.032-.252a.642.642 0 000-.346v-.126c.063-.22.094-.44.094-.661v-.063c.032-.252.032-.504.127-.724.063-.189.095-.378.095-.598 0-.095.031-.157.031-.22.095-.724.19-1.322.253-1.889.032-.157.063-.283.095-.44.031-.063.031-.126.063-.19.032-.125.063-.22.095-.346.095-.283.158-.503.158-.755v-.063c0-.031.031-.063.031-.063.095-.157.127-.315.19-.535.032-.157.063-.315.126-.472l.032-.063c.032-.094.063-.157.063-.22a.53.53 0 01.095-.315c.095-.094.126-.22.158-.44 0 0 .032-.158.032-.19.031-.094.063-.22.126-.346.127-.252.253-.535.38-.818l.094-.22c.063-.158.158-.284.221-.41.032-.062.064-.094.095-.157.063-.094.285-.189.253-.22-.063-.095-.063-.22 0-.346 0 0 .19-.347.221-.441a.49.49 0 01.348-.252h.031c-.031-.031-.031-.031-.031-.063-.095-.22.063-.44.158-.566.063-.095.126-.158.19-.252.063-.063.094-.126.063-.126-.095-.031-.253-.126-.19-.44.063-.19.032-.221 0-.284a.337.337 0 01-.032-.346.332.332 0 01.285-.158h.063l.38.095h.03c.064 0 .19.031.254.126.031.063.095.157.095.283 0 .094-.064.283-.348.346a.384.384 0 01-.127.284c-.031.031.095.22.127.283.031.063.126.189.095.346 0 .032-.032.094-.032.126v.126c0 .094 0 .157-.032.22-.031.157-.19.315-.347.315-.063 0-.127 0-.158-.032h-.095c.032.095.032.19 0 .252a3.759 3.759 0 01-.253.504.438.438 0 01-.41.22v.252c0 .157-.064.315-.095.44-.032.063-.032.127-.064.19 0 .03-.031.062-.031.094.063.031.095.094.126.094a.386.386 0 01.032.41c-.063.125-.158.22-.316.22.095.252.031.535-.032.692 0 .032-.031.095-.031.126-.064.22-.127.472-.064.692.032.126.064.378-.094.567 0 .22-.127.41-.316.567a.438.438 0 01.094.283.814.814 0 01-.094.535s0 .031-.032.031l.095.19.095.094c.063.063.094.188 0 .377a.755.755 0 00.094.724c.032.063.127.158.095.315 0 .063-.031.094-.063.157.063.063.095.158.095.284 0 .314-.221.409-.38.409h-.031c0 .063-.032.126-.032.22v.032c-.063.22-.094.377 0 .535.158.283.032.598-.063.786-.031.095-.031.19-.063.315v.158c.221.314.095.63 0 .786a1.465 1.465 0 00-.095.536c0 .094 0 .188-.031.283a1.554 1.554 0 01-.127.409 2.156 2.156 0 01-.095.252.323.323 0 01-.158.189c0 .031 0 .031.032.063.063-.095.158-.158.253-.158h.063c.063 0 .126.063.19.126.126.157.094.315.094.378.032.063.095.22 0 .346-.031.031-.063.094-.126.126.126.063.284.22.253.535v.063c0 .031-.032.094-.032.126-.031.094-.126.189-.284.22H8.12c-.063 0-.095-.031-.158-.031-.032.126-.032.22.127.44a.3.3 0 01.063.315v.094c.063.158.158.19.158.19.095-.221.347-.316.537-.316.158 0 .316.064.38.22a.75.75 0 01.062.284v.692c0 .284.032.567-.158.756a.481.481 0 01-.316.157c-.063 0-.094 0-.126-.031.032.031.095.063.095.094.095.095.126.19.158.283l.063.126a.337.337 0 00.095.158c.126.063.19.189.221.315a.72.72 0 01-.095.346.2.2 0 010 .189c.032.094.032.157 0 .22-.031.126-.158.22-.316.252-.063 0-.126.031-.158.031-.063 0-.095 0-.158-.031-.031.126-.031.44 0 .535 0 0 .032.031.032.063.063.157 0 .314-.032.409.063.063.158.157.221.315.064.157 0 .314-.126.44-.032 0-.032.032-.032.032.095.094.127.22.127.283 0 0 0 .031.095.094a.54.54 0 01.126.535c0 .063-.032.126-.032.19 0 .125-.031.251-.063.377.095.126.158.22.19.346l.126.252c.063.063.127.189.063.378l-.031.094c-.032.095-.032.157 0 .189.063.126.031.315 0 .41-.032.125-.063.25.126.503.095.126.127.22.127.346.158.063.252.22.252.378 0 .094.032.157.095.283.063.126.095.22.095.315 0 .031.032.094.032.126.031.125.095.251.095.409 0 0 0 .031.031.031l.253.787c.158.472.316.944.442 1.416.127.441.316.945.57 1.417.062.094.094.22.094.314.032.126.063.252.126.378.032.126.064.22.095.283.158.535.348.945.537 1.322a.94.94 0 01.127.315c.031.252.158.504.284.755l.19.378c.38.504.221 1.007.095 1.322-.063.126-.19.252-.348.252-.063 0-.095 0-.158-.032-.032 0-.095.032-.221.126 0 .095-.032.126-.063.126zM9.542 30.15c.095 0 .158.031.221.094.095.095.222.252.158.567 0 .063-.031.094-.031.157l-.032.095c-.063.283-.253.314-.347.314h-.095c-.095-.031-.253-.094-.285-.378v-.314c.032-.284.158-.535.411-.535zm-.19-1.543c.032-.094.064-.251.064-.377.031-.22.063-.472.19-.693.063-.126.126-.251.126-.377 0-.19.158-.346.38-.346h.062c.222.03.348.22.285.44v.063a.596.596 0 01-.095.283 1.554 1.554 0 00-.127.41c0 .094-.031.157-.031.22-.063.22-.095.409-.158.63-.032.125-.158.188-.19.188l-.063.032H9.7a.482.482 0 01-.347-.19c-.032-.094-.064-.188 0-.282zM9.67 47.46c.031-.125.094-.251.19-.314v-.032c-.032-.063 0-.126 0-.189 0-.22.126-.346.315-.377.19 0 .316.094.38.252.031.031.031.094.031.125v.063c.032.19.063.347.126.472a.582.582 0 01.064.22v.095c0 .095-.032.41-.38.472h-.031c-.063.063-.158.063-.221.063a.389.389 0 01-.348-.22c-.063-.157-.158-.378-.126-.63zm3.855 14.667l-.158.158-.063.063-.032.031a.242.242 0 01-.158.063c-.063 0-.095-.031-.126-.063l-.032-.031-.031-.032a.336.336 0 01-.19-.252c-.031-.125-.031-.251.032-.346-.222-.031-.38-.189-.411-.44v-.063c.031-.22.221-.346.442-.346.158 0 .253.062.348.157.063.094.126.189.095.315 0 .063-.032.094-.032.125.063 0 .127.032.19.063.126.063.19.158.19.252.094.158 0 .283-.064.346zm13.273 10.67l-.063.032c-.063.031-.127.031-.19.031-.253 0-.474-.22-.727-.472l-.031-.031a2.034 2.034 0 00-.285-.252l-.158-.126c-.094-.095-.22-.157-.316-.252l-.41-.378-.285-.283c-.221-.189-.41-.378-.632-.598l-.885-.944-.158-.157-.253-.252-.19-.284-.03-.031c-.064-.094-.159-.22-.222-.315a2.146 2.146 0 00-.38-.377 2.462 2.462 0 01-.473-.504c-.095-.157-.222-.315-.348-.504l-.063-.094c-.885-1.29-1.138-1.731-1.043-2.014a.423.423 0 01.19-.22l.063-.032h.063c.063 0 .126.031.158.094l.41.535s.096.126.127.158l.98 1.196c.158.22.316.409.506.566.126.126.22.252.316.346.126.158.537.63.537.63.095.094.19.22.284.315.285.314.6.566.948.88.285.253.57.536.885.82.095.125.19.282.253.408.032.095.095.22.126.252 0 0 .19.22.222.252.031.031.063.094.126.126l.095.094c.38.378.664.693.948 1.007l.032.032a.446.446 0 01.063.189c-.095.063-.127.126-.19.157zm8.69 10.733a.332.332 0 01-.284.157c-.095 0-.158.032-.253.032h-.094c-.032 0-.095-.032-.127-.032-.063.126-.158.252-.316.283-.22.032-.41.064-.632.064-.19 0-.316-.158-.316-.19-.063-.094-.063-.22-.063-.283.095-.251.221-.377.348-.409.094 0 .19-.031.284-.031h.348c.031 0 .095 0 .126.031a.285.285 0 01.19-.189.723.723 0 01.347-.094.54.54 0 01.221.031c.032 0 .064.032.095.063l.032.032c.063.063.095.094.126.189.032.126.032.251-.031.346zm2.497-.189c-.158.22-.758.22-.885.22h-.126c-.063 0-.095-.031-.158-.031-.19-.032-.316-.063-.41-.157-.096-.095-.127-.22-.064-.347.126-.283.569-.315.853-.315.095 0 .19 0 .285.032.158.031.474.126.537.346.063.063.032.19-.032.252z"/></g><defs><clipPath id="clip0"><path fill="#fff" transform="transhuttle(.227)" d="M0 0h410.569v90H0z"/></clipPath></defs></svg>