<svg width="302" height="80" viewBox="0 0 302 80" fill="none" xmlns="http://www.w3.org/2000/svg">
<g clip-path="url(#clip0_117_244)">
<path fill-rule="evenodd" clip-rule="evenodd" d="M84.4549 73.6869V67.0826L79.6106 73.6869H84.4549ZM50.8396 73.6869H59.3536L67.4268 62.7532H64.2703V44.2562H80.9315L84.4549 39.486V32.7336H64.2703V17.3193H84.4549V6.30992H50.8396V73.6869V73.6869ZM30.5826 48.7336L32.7111 48.3652L34.6192 47.7056L36.5273 46.8979L38.363 46.0179L40.0507 44.8434L41.5919 43.5966L43.0608 42.2017L44.3817 40.588L45.4837 38.9728L46.5102 37.2111L47.3178 35.303L47.9791 33.3933L48.4199 31.3388L48.7143 29.2103V27.0818L48.5663 24.9533L48.1995 22.8988L47.6123 20.8426L46.8786 18.9346L45.9986 17.1729L44.8965 15.4852L43.7237 13.8699L42.3288 12.3286L40.7875 11.0801L39.1738 9.9073L37.4122 8.80523L35.5781 7.9252L33.6684 7.26395L31.6139 6.75073L29.5594 6.38392L27.3568 6.30992H0.270264V73.6869H14.3622V51.6682L34.2524 73.6869H50.8396L28.5265 48.9524L30.5826 48.7336V48.7336ZM27.1332 37.7983L26.1052 38.0187L25.0787 38.1651L23.9767 38.3131H13.7009V17.1005H23.9767L26.1052 17.3209L27.1332 17.5429L28.1597 17.9097L29.9213 18.8638L30.7274 19.525L31.5334 20.1862L32.1947 20.9199L32.7819 21.8015L33.7359 23.5616L34.1027 24.5156L34.3972 25.5437L34.5436 26.5701L34.616 27.6722L34.5436 28.7743L34.3972 29.8023L34.1027 30.8304L33.7359 31.7844L32.7819 33.5445L32.1947 34.3521L31.5334 35.1598L30.7274 35.821L29.9213 36.4807L28.1597 37.4347L27.1332 37.7983V37.7983ZM300.971 13.2103L300.75 11.9634L300.382 10.7166L299.722 9.54209L299.062 8.44164L298.182 7.48758L297.227 6.67994L296.199 6.01871L295.098 5.57949L293.924 5.14027L292.749 4.91986H290.402L289.155 5.14027L288.051 5.57949L286.951 6.01871L285.923 6.67994L284.967 7.48758L284.087 8.44164L283.352 9.54209L282.768 10.7166L282.4 11.9634L282.179 13.2103L282.104 14.4587L282.179 15.6332L282.4 16.8076L282.839 17.9821L283.35 19.0842L284.013 20.0382L284.821 20.9183L285.701 21.7999L286.729 22.4595L287.829 23.0468L289.004 23.4152L290.251 23.7096L291.573 23.782L292.893 23.7096L294.139 23.4152L295.314 23.0468L296.414 22.4595L297.442 21.7999L298.322 20.9183L299.058 20.0382L299.717 19.0842L300.232 17.9821L300.671 16.8076L300.892 15.6332L301.037 14.4587L300.971 13.2103ZM300.091 15.4852L299.87 16.5132L299.502 17.6137L298.99 18.5693L298.403 19.5218L297.668 20.3294L296.86 20.989L295.98 21.6503L294.952 22.2375L293.924 22.5319L292.82 22.8247L291.576 22.8988L290.402 22.8247L289.228 22.5319L288.2 22.2375L287.171 21.6503L286.216 21.0631L285.484 20.3294L284.749 19.5218L284.161 18.5693L283.65 17.6137L283.281 16.5856L283.133 15.5592L282.988 14.3847L283.061 13.2827L283.209 12.1822L283.648 11.0801L284.16 9.9797L284.823 8.95164L285.555 8.144L286.435 7.33635L287.39 6.82314L288.346 6.30992L289.446 6.01549L290.474 5.79507L291.578 5.72107L292.679 5.79507L293.707 6.01549L294.735 6.30992L295.763 6.82314L296.715 7.33635L297.523 8.144L298.33 8.95164L298.993 9.9797L299.505 11.0801L299.873 12.1822L300.094 13.2827L300.166 14.3847L300.091 15.4852V15.4852ZM147.354 51.155V6.30992H137.299L87.8303 73.6869H104.638L133.996 33.5397V73.6869H147.573L176.932 33.5397V73.6869H190.438V6.30992H180.234L147.354 51.155V51.155Z" fill="#f1f0e4" />
<path fill-rule="evenodd" clip-rule="evenodd" d="M296.348 10.4945L295.909 9.98133L295.467 9.6145L294.883 9.32008L294.22 9.10128L293.488 8.95327L292.825 8.87927H287.691V19.6682H289.379V14.7516H291.433L294.516 19.6682H296.495L293.34 14.7516L294.587 14.5311L295.687 13.9439L296.056 13.5771L296.352 13.0639L296.644 12.4767V11.817L296.572 11.1558L296.348 10.4945V10.4945ZM294.879 12.6231L294.437 13.1363L293.705 13.5031L292.677 13.5771H289.376V10.0553H292.679L293.707 10.2017L294.439 10.4945L294.881 11.0818L295.026 11.817L294.879 12.6231V12.6231ZM282.622 6.30994H265.962L250.108 27.8878L234.253 6.30994H216.714L241.302 39.8528L236.017 47.046L206.147 6.31154H195.868V73.6885H209.374V53.7259H224.2L227.65 58.4962L216.495 73.6885H233.227L236.017 69.8723L238.806 73.6885H255.538L244.383 58.4962L249.74 51.229L266.105 73.6885H283.648L258.473 39.3396L282.622 6.30994V6.30994ZM209.372 42.7874V33.5397L216.125 42.7874H209.372Z" fill="#f1f0e4" />
<path d="M289.376 13.5771V10.0553H292.679L293.707 10.2017L294.439 10.4945L294.881 11.0817L295.026 11.817L294.881 12.6246L294.439 13.1378L293.707 13.5047L292.679 13.5787H289.376V13.5771M0.270264 73.6869V6.3099H27.352L29.5545 6.3839L31.609 6.75071L33.6635 7.26394L35.5732 7.92518L37.4073 8.80521L39.169 9.90728L40.7827 11.0801L42.324 12.3286L43.7188 13.8699L44.8917 15.4852L45.9937 17.1728L46.8738 18.9345L47.6074 20.8426L48.1947 22.8987L48.5615 24.9532L48.7095 27.0817V29.2102L48.4151 31.3388L47.9742 33.3933L47.313 35.303L46.5054 37.211L45.4789 38.9727L44.3769 40.588L43.0608 42.2001L41.5919 43.595L40.0507 44.8418L38.363 46.0163L36.5273 46.8963L34.6192 47.704L32.7111 48.3636L30.5826 48.732L28.5281 48.9524L50.8412 73.6869V6.3099H84.4565V17.3192H64.2703V32.7336H84.4549V39.486L80.9315 44.2578H64.2703V62.7531H67.4268L59.3536 73.6885H34.2524L14.3622 51.6698V73.6885H0.270264V73.6869V73.6869ZM13.7009 38.3115V17.1004H23.9767L26.1052 17.3208L27.1332 17.5429L28.1597 17.9097L29.9213 18.8637L30.7274 19.525L31.5334 20.1862L32.1947 20.9198L32.7819 21.8015L33.7359 23.5616L34.1027 24.5156L34.3972 25.5437L34.5436 26.5701L34.616 27.6722L34.5436 28.7742L34.3972 29.8023L34.1027 30.8304L33.7359 31.7844L32.7819 33.5445L32.1947 34.3521L31.5334 35.1598L30.7274 35.821L29.9213 36.4806L28.1597 37.4347L27.1332 37.7983L26.1052 38.0187L25.0787 38.1651L23.9767 38.3131H13.7009V38.3115V38.3115ZM79.6106 73.6869L84.4549 67.0825V73.6869H79.6106ZM87.8303 73.6869L137.299 6.3099H147.354V51.1549L180.234 6.3099H190.438V73.6869H176.932V33.5397L147.573 73.6869H133.996V33.5397L104.636 73.6869H87.8303V73.6869ZM195.868 73.6869V6.3099H206.147L236.016 47.0443L241.302 39.8512L216.714 6.30828H234.253L250.108 27.8862L265.962 6.30828H282.622L258.473 39.3363L283.648 73.6853H266.105L249.74 51.2257L244.383 58.4929L255.538 73.6853H238.806L236.016 69.8691L233.227 73.6853H216.495L227.65 58.4929L224.2 53.7227H209.374V73.6853H195.868V73.6869V73.6869ZM209.372 42.7873V33.5397L216.125 42.7873H209.372ZM291.578 23.7788L292.897 23.7064L294.144 23.412L295.319 23.0435L296.419 22.4563L297.447 21.7967L298.327 20.915L299.062 20.035L299.722 19.0809L300.237 17.9789L300.676 16.8044L300.897 15.63L301.041 14.4555L300.969 13.207L300.749 11.9602L300.38 10.7133L299.72 9.53885L299.061 8.4384L298.181 7.48435L297.225 6.67671L296.197 6.01547L295.097 5.57626L293.922 5.13704L292.748 4.91663H290.4L289.154 5.13704L288.05 5.57626L286.949 6.01547L285.921 6.67671L284.966 7.48435L284.086 8.4384L283.35 9.53885L282.766 10.7133L282.398 11.9602L282.178 13.207L282.102 14.4555L282.178 15.63L282.398 16.8044L282.837 17.9789L283.349 19.0809L284.012 20.035L284.819 20.915L285.699 21.7967L286.727 22.4563L287.828 23.0435L289.002 23.412L290.249 23.7064L291.578 23.7788ZM291.578 22.8987L292.822 22.8247L293.925 22.5319L294.953 22.2375L295.981 21.6503L296.862 20.989L297.669 20.3294L298.404 19.5218L298.992 18.5693L299.503 17.6137L299.872 16.5132L300.092 15.4852L300.165 14.3847L300.092 13.2826L299.872 12.1822L299.503 11.0801L298.992 9.97968L298.329 8.95162L297.521 8.14398L296.714 7.33633L295.761 6.82312L294.733 6.3099L293.705 6.01547L292.677 5.79505L291.576 5.72105L290.473 5.79505L289.445 6.01547L288.344 6.3099L287.389 6.82312L286.433 7.33633L285.553 8.14398L284.821 8.95162L284.158 9.97968L283.646 11.0801L283.207 12.1822L283.059 13.2826L282.987 14.3847L283.132 15.5592L283.28 16.5856L283.648 17.6137L284.16 18.5693L284.747 19.5218L285.482 20.3294L286.214 21.063L287.17 21.6503L288.198 22.2375L289.226 22.5319L290.4 22.8247L291.578 22.8987V22.8987ZM287.688 19.6682V8.87923H292.822L293.485 8.95323L294.217 9.10124L294.879 9.32004L295.463 9.61446L295.906 9.98129L296.345 10.4945L296.566 11.1557L296.638 11.817V12.4766L296.345 13.0638L296.049 13.5771L295.681 13.9439L294.58 14.5311L293.333 14.7515L296.488 19.6682H294.509L291.427 14.7515H289.376V19.6682H287.688V19.6682Z" stroke="#5b5f78" stroke-width="0.347511" stroke-miterlimit="2.613"/>
<path fill-rule="evenodd" clip-rule="evenodd" d="M58.3997 80L117.116 0H129.886L71.1691 80H58.3997V80Z" fill="#979eac"/>
<path d="M58.3997 80L117.116 0H129.886L71.1691 80H58.3997" stroke="#717171" stroke-width="0.347511" stroke-miterlimit="2.613"/>
</g>
<defs>
<clipPath id="clip0_117_244">
<rect width="300.771" height="80" fill="white" transform="transhuttle(0.270386)"/>
</clipPath>
</defs>
</svg>
