<svg xmlns="http://www.w3.org/2000/svg" width="522" height="90"><path d="M21.803 34.978c1.302.48 3.032-.388 4.285-.61 1.245-.218 6.338-1.36 5.374-.2-.54.654-1.939.657-3.183 1.021-1.728.51-4.5.796-4.607 3.019-.246 5.287 7.973 1.77 10.38.911 6.526-2.272 14.006-2.662 20.61-3.765 7.327-1.218 14.86-1.331 22.257-1.615 7.784-.298 16.159-.625 23.807.455 2.038.286 3.965.512 6.037.729 1.794.185 5.579 1.832 7.177 1.076 1.449-.685.793-2.401 1.542-3.278 1.079-1.26 3.206-1.042 1.728-3.733-1.126-2.05-5.232-2.715-7.357-2.298-.211-1.294.779-.72 1.039-1.392.377-.97.377-2.465-.254-3.542-1.14-1.96-6.558-2.654-6.561-2.65-12.996-2.093-36.381-4.35-61.27-1.448-4.13.484-11.377.999-15.607 2.712-1.873.758-1.844.775-2.075 2.002-.223 1.745.616 3.78 2.714 3.346 4.02-.828 11.121-1.977 13.156-2.495 10.038-2.555 43.45-2.057 47.754-1.036 2.66.567 17.27 1.048 17.62 3.722-34.095-1.412-47.111-1.398-77.725 2.24-2.558.422-4.095.98-6.112 1.663-2.486.837-4.167 3.896-.73 5.166zm45.086-21.137c1.192.104 10.611.385 11.153-3.299.306-2.09-1.76-5.48-2.353-6.094-.781-.646-2.503 4.983-2.937-.553-.07-.903-.301-2.3-.727-3.154C71.811.313 71.548 0 71.23 0a1.123 1.123 0 00-.52.18c-.273.176-.66.749-.854 1.23-.533 1.313-.767 6.392-2.084 6.476-1.432.092-1.389-3.253-1.198-4.225.032-.16-.003-.197-.066-.183-.136.038-.18.064-.29.102-.86.33-1.84 1.328-1.912 1.4-1.35 1.384-3.172 4.992-2.252 6.653.958 1.716 3.829 2.119 4.836 2.208zm65.629 72.6c-.101-.72-.312-1.162-.802-1.825-1.773-2.428-10.114-4.054-10.116-4.025-4.188-.915-9.012-1.702-14.397-2.359.767-3.64-.035-10.357-.055-12.692.107-4.17.02-14.95-.295-17.676-.241-2.56-.582-3.68-1.986-5.8-1.007-1.513-1.316-2.991-3.637-2.757-2.113.211-2.891 3.143-2.53 4.925l.91 3.626c.378.75 1.403 24.268 1.171 26.317.021.993-.072 2.272-.101 3.354-5.49-.521-11.46-.923-17.852-1.204l.252-.2c3.058-2.378 2-5.538 1.487-8.982-.697-5.513-.165-21.157-.822-23.04-.445-1.477-1.701-2.328-2.795-3.453-1.349-1.39-3.042-1.815-4.596-.22-1.525 1.383.382 21.136.49 29.812.138 1.817-.267 4.095.457 5.852-.59-.024-16.287-.35-17.606-.328.017-.306-.188-.697-.336-.995-.394-.796-.95-2.654-1.108-3.522a37.003 37.003 0 01-.542-5.003c-.118-3.589.214-14.69.614-17.595.448-3.212 2.159-8.878-3.412-7.63-.602.135-3.554.5-4.344 1.122-.917.72-.827 2.526-.862 3.525-.13 3.79-.55 15.736-.527 18.607.03 2.41.46 5.513 1.343 7.865.538 1.43 2.133 2.854 3.8 3.754-3.065.084-6.017.182-7.064.24-5.174.29-9.142.576-13.008.955l-.05-.185c-.647-1.997.284-10.239 2.079-25.695.434-3.727-.223-3.875-2.492-5.975-1.302-1.207-2.405-2.02-4.668-.206-1.435 1.152-1.062 2.63-1.308 4.292-.86 5.796-2.112 14.9-2.645 20.8-.15 1.63.078 5.357.495 7.617.038.107.023.226.075.342-2.245.3-4.505.63-7.055 1.021-6.21.964-11.7 1.201-15.43 2.874C.958 83.007.828 83.348.287 84.184c-.173.302-.271.64-.287.987-.005.064.047.889.11 1.132a3.056 3.056 0 002.07 2.2c.283.089 2.01.234 2.193.251 4.167.42 6.462-.593 10.537-2.2 20.184-8.053 77.942-5.613 90.664-3.209 5.524 1.1 14.052 2.252 19.339 5.282.862.471 1.67.816 2.408 1.039.37.112.726.168 1.053.246.81.19 1.673.017 1.817-.012.29-.055.57-.139.825-.249.512-.217.926-.532 1.123-.914.142-.275.318-.805.402-1.242.035-.35.027-.704-.023-1.053zm58.953-69.29H176l13.626 69.566h17.901l10.411-47.09 10.512 47.09h17.901l14.302-69.566h-14.495L237.4 70.378 226.012 17.15h-15.079l-11.58 53.026-7.882-53.026zm121.974 0h-43.491v69.566h44.468v-11.68h-29.774V57.72h25.399V46.048h-25.399V28.824h28.805V17.15h-.008zm12.398 0v69.566h25.883c16.348 0 24.129-7.781 24.129-19.462 0-14.887-13.133-16.54-13.133-16.54s9.343-3.99 9.343-15.571c0-11.68-7.49-18-22.961-18h-23.261v.007zm14.695 29.29V28.047h4.868c8.658 0 12.164 2.914 12.164 9.05 0 6.23-3.506 9.343-10.703 9.343h-6.329zm0 29.389V57.052h8.95c7.49 0 11.581 2.923 11.581 9.143 0 6.228-3.791 9.635-12.457 9.635h-8.074zm52.249 11.864c4.476 0 7.59-3.114 7.59-7.49 0-4.474-3.114-7.196-7.397-7.196-4.476 0-7.69 2.822-7.69 7.397.008 4.083 2.538 7.289 7.497 7.289zm20.197-70.543v69.566h17.317c23.937 0 36.193-13.617 36.193-35.417 0-21.307-10.804-34.157-34.732-34.157h-18.778v.008zm14.695 57.894V28.824h3.991c13.425 0 19.946 7.982 19.946 23.444 0 15.371-6.32 22.769-19.846 22.769h-4.091v.008zm93.344-57.894h-43.491v69.566H522v-11.68h-29.773V57.72h25.398V46.048h-25.398V28.824h28.796V17.15z" fill="#f1f0e4"  /></svg>