<svg width="216" height="80" viewBox="0 0 216 80" fill="none" xmlns="http://www.w3.org/2000/svg">
<g clip-path="url(#clip0_117_263)">
<path d="M123.509 21.4104L109.501 45.0224V60.9013C111.125 64.7265 115.198 65.2219 119.106 65.4145V67.6161H91.6408V65.4145C95.5486 65.2494 100.31 64.644 101.575 62.1122V45.7104L87.3202 21.5755C84.8434 17.5026 82.4767 16.1266 77.7158 15.7964V13.5948H101.575V15.7964C97.0622 16.0441 95.6312 16.8972 94.3653 17.9154L107.602 40.8394L120.592 17.998C119.243 16.9797 117.454 16.0441 112.941 15.7964V13.5948H133.333V15.7964C128.765 15.9615 125.875 17.5026 123.509 21.4104ZM151.359 68.3867C146.763 68.3867 144.561 65.2494 144.396 63.0478C141.507 66.1025 137.764 68.3867 134.214 68.3867C129.618 68.3867 125.71 65.5797 125.71 60.7362C125.71 58.3695 126.316 55.8927 127.499 53.9388L144.396 47.8294V41.5549C144.396 37.7296 142.607 34.0695 138.782 34.0695C136.498 34.0695 134.269 36.8765 134.104 41.1971L126.453 42.4631V41.6099C129.013 33.9594 137.406 30.9873 141.479 30.9873C149.212 30.9873 152.019 35.0602 151.937 41.3623L151.689 59.1951C151.606 62.6901 153.478 63.5157 155.184 63.5157C156.532 63.5157 157.908 62.6626 159.505 61.0664V63.5157C157.633 65.7448 154.331 68.3867 151.359 68.3867ZM134.379 54.5167C134.049 55.8652 133.774 57.0761 133.774 58.9199C133.774 61.4792 135.205 64.011 138.012 64.011C140.571 64.011 142.002 63.1579 144.286 61.3691L144.369 49.8934C142.195 50.9667 136.746 53.3334 134.379 54.5167ZM160.275 67.6161V65.6622C164.1 65.4145 165.201 64.5614 165.889 63.1029V19.0988C165.889 16.2092 165.476 15.0258 159.615 14.503V12.7967L175.136 8.91644L175.659 10.3475L173.209 13.4022V63.1029C174.063 64.8091 175.659 65.387 179.154 65.6622V67.6161H160.275ZM199.518 68.2766C190.602 68.2766 183.722 61.2315 183.722 51.3795C183.722 39.3258 191.125 31.0699 201.555 31.0699C209.976 31.0699 214.627 35.8308 214.627 43.3987V44.9398L191.703 44.7747C191.538 45.7104 191.455 47.2515 191.455 49.0953C191.455 57.764 196.904 63.4606 204.114 63.4606C208.435 63.4606 210.664 61.9195 214.049 59.0575L215.315 61.0114C210.471 65.387 206.481 68.2766 199.518 68.2766ZM200.289 33.7118C196.051 33.7118 193.079 37.0967 192.061 42.4631L207.004 42.2979C207.004 37.7847 204.197 33.7118 200.289 33.7118Z" fill="#f1f0e4" />
<path d="M8.90827 -0.0400988C8.69327 6.40985 8.80077 13.1823 8.80077 19.7398C8.80077 23.8247 8.58577 28.2322 8.90827 32.3172C9.33826 37.7996 9.44576 42.0996 11.1657 45.9696C14.8207 54.032 23.8506 59.0844 32.5581 62.0944C33.9556 62.6319 35.3531 62.9544 36.858 63.3844C37.1805 63.4919 37.718 63.8144 38.0405 63.8144C38.9005 63.9219 42.3405 62.5244 43.2005 62.2019C52.0154 59.192 61.7978 53.7095 65.3453 45.4321C66.8503 41.8846 67.0653 38.1221 67.3878 33.1772C67.6028 29.6297 67.4953 25.6522 67.4953 21.9972V-0.147572L8.90827 -0.0400988ZM73.8377 54.892C73.0852 54.9995 71.1503 56.7195 70.3978 57.1495C67.6028 58.6544 64.8078 60.2669 61.6903 61.4494C61.6903 62.9544 61.4753 62.9544 62.5503 62.4169C66.0978 60.9119 69.0003 59.0845 72.2253 57.3645C72.0103 57.902 71.0428 61.6644 71.1503 62.2019C71.2578 62.7394 73.9452 65.4269 74.4827 65.8569C72.8703 66.2869 71.7953 67.0394 70.1828 67.5769C70.1828 67.6844 70.0753 67.8994 70.0753 68.1144C70.0753 68.4369 70.1828 68.7594 70.5053 68.7594C71.6878 68.7594 74.9127 66.6094 76.2027 66.1794C75.5577 65.7494 72.3328 62.5244 72.2253 61.8794C72.1178 61.3419 73.0853 57.7945 73.1928 57.1495C73.4078 56.397 73.7302 55.6445 73.8377 54.9995C73.9452 54.9995 74.0527 54.7845 73.8377 54.892ZM2.45832 55.2145C2.24332 55.2145 2.99581 57.257 3.10331 57.902C3.21081 58.547 4.07081 61.8794 3.96331 62.3094C3.85581 62.8469 0.523336 66.1794 -0.0141602 66.6094C0.308337 66.7169 0.523335 66.7169 0.845832 66.8244C2.56582 67.5769 4.07081 68.5444 5.89829 69.1894C6.11329 68.2219 6.22079 68.1144 5.3608 67.6844C4.28581 67.2544 3.21081 66.5019 1.92082 66.1794C3.21081 65.1044 4.0708 63.7069 5.25329 62.5244C4.8233 61.2344 4.7158 59.6219 4.28581 58.2244L4.07081 57.687C4.07081 57.687 4.17831 57.5794 4.8233 58.0094C6.86578 59.2994 9.01576 60.4819 11.2732 61.4494C12.2407 61.8794 13.3157 62.3094 14.2832 62.7394C14.2832 62.4169 14.3907 61.8794 14.3907 61.4494C11.7032 60.1594 9.12326 59.0844 6.54329 57.687C5.36079 57.042 4.17831 56.2895 2.99581 55.537C2.99581 55.537 2.67332 55.2145 2.45832 55.2145ZM68.4628 61.3419C66.3128 62.8469 63.5178 63.8144 60.8304 64.7819C56.5304 66.3944 51.6929 68.0069 46.4255 68.5444C31.4831 70.0494 17.1857 67.2544 7.94077 61.6644C7.94077 64.8894 6.97328 70.9093 5.89829 73.2743C7.18828 73.5968 8.15577 74.1343 9.33827 74.5643C11.4882 75.3168 13.6382 76.1768 15.7882 76.9293C25.0331 79.7243 38.4705 81.0143 49.7579 79.1868C54.4879 78.4343 59.1104 77.3593 63.1953 75.8543C65.5603 74.9943 67.8178 73.5968 70.3978 73.0593C69.8603 71.9843 69.7528 70.8018 69.5378 69.5119C69.1078 66.9319 68.4628 64.2444 68.4628 61.3419Z" fill="#f1f0e4" />
<path d="M65.7754 1.35736C52.768 1.24987 39.1156 1.4649 25.8932 1.4649H15.3583C13.7458 1.4649 11.9183 1.57236 10.4133 1.35736C10.8433 4.15234 10.5208 7.69983 10.5208 10.7098V26.5122C10.5208 35.5421 10.6283 43.282 14.3908 48.3345C17.0783 51.9895 20.7332 54.6769 24.8182 56.9344C28.0432 58.7619 31.5907 60.0519 35.4606 61.3419C36.1056 61.5569 37.3956 62.2019 38.0406 62.3094C38.4706 62.3094 39.2231 61.7719 39.6531 61.6644C42.4481 60.9119 44.813 59.9444 47.2855 58.8694C53.413 56.0745 59.5404 52.527 62.7654 46.8295C63.1954 46.1845 63.4104 45.432 63.7329 44.787C63.9479 44.357 64.1629 43.8196 64.3779 43.3896C64.4854 43.0671 64.4854 42.9596 64.4854 42.7446C64.5929 42.4221 64.7004 42.0996 64.8079 41.6696C64.9154 41.3471 64.9154 41.0246 65.0229 40.5946C65.1304 40.1646 65.1304 39.7346 65.2379 39.3046C65.3454 38.7671 65.4529 38.1221 65.4529 37.4771C65.4529 37.0471 65.5604 36.5096 65.5604 35.8646C65.7754 33.0696 65.6679 29.9522 65.6679 27.1572V10.2798C65.6679 7.59237 65.5604 4.36734 65.7754 1.89486C65.7754 1.67986 66.3129 1.35736 65.7754 1.35736Z" fill="#f1f0e4" />
<path d="M54.273 10.9248C53.0905 11.4623 51.8005 12.1073 50.0805 12.2148C44.2756 12.7523 39.0081 10.1723 38.0406 16.1923C37.6106 10.1723 31.4832 12.6448 26.0007 12.2148C24.3882 12.1073 23.0982 11.5698 22.0233 10.9248C21.4858 11.8923 20.7333 12.7523 20.0883 13.6123C19.3358 13.5048 18.5833 13.5048 17.8308 13.5048C18.2608 16.2998 17.9383 19.6322 17.9383 22.5347V43.927H28.9032C30.8382 43.927 33.3107 44.142 34.7082 43.6045C33.8482 45.9695 34.7082 47.0445 37.6106 47.0445C40.7281 47.0445 42.6631 46.6145 41.4806 43.6045C43.0931 44.0345 45.4581 43.927 47.6081 43.927H58.358V13.3972C57.6055 13.3972 56.853 13.3973 56.208 13.5048C55.563 12.6448 54.8105 11.7848 54.273 10.9248ZM60.4004 12.9673C60.293 12.9673 60.293 13.0747 60.293 13.1822C60.508 14.5797 60.6154 16.2997 60.5079 17.9122C60.4004 19.2022 60.4004 19.8472 59.003 19.7397C59.003 19.9547 59.003 20.0622 59.003 20.2772C59.863 20.4922 60.8304 20.5997 62.0129 20.5997C62.0129 20.8147 62.0129 20.9222 61.9054 21.1372C61.4754 21.9972 59.9704 21.6747 59.003 21.5672C59.003 21.7822 59.1105 22.1047 59.1105 22.2122C59.8629 22.3197 61.0454 22.6422 61.6904 22.3197C63.4104 21.4597 62.8729 15.6548 63.4104 13.2898C62.2279 14.0423 62.0129 14.3647 60.9379 13.3972C60.7229 13.3972 60.5079 12.9673 60.4004 12.9673ZM15.8958 13.6123C14.4983 14.6873 14.6058 14.6872 13.1008 13.9347C13.4233 16.2997 13.1008 22.1047 15.0358 22.6422C15.7883 22.8572 16.6483 22.5347 17.2933 22.4272C17.2933 22.3197 17.4008 21.9972 17.4008 21.7822C15.8958 21.9972 15.2508 22.1047 14.3908 21.2447C14.3908 21.2447 14.3908 20.9222 14.3908 20.8147C15.4658 20.7072 16.5408 20.7072 17.4008 20.3847C17.4008 20.2772 17.4008 20.0622 17.4008 19.9547C17.0783 19.9547 16.6483 19.9547 16.4333 19.8472C15.4658 19.5247 15.8958 14.9023 15.8958 13.6123ZM15.8958 29.8446C15.5733 30.1671 15.2508 30.5971 14.9283 30.9196C14.2833 31.4571 13.6383 30.7046 13.1008 30.2746C13.2083 31.7796 13.4233 37.0471 13.9608 37.9071C14.3908 38.5521 15.3583 38.6596 16.3258 38.5521C17.7233 38.3371 17.6158 37.6921 16.1108 37.9071C15.0358 38.0146 14.6058 37.7996 14.2833 36.9396L14.3908 36.7246C15.4658 36.7246 16.5408 36.7246 17.2933 36.5096C16.9708 35.3271 16.5408 36.5096 16.1108 35.8646C15.4658 34.8971 15.7883 31.0271 15.8958 29.8446ZM60.1854 30.4896C60.4004 31.6721 60.6154 35.5421 60.0779 36.4021C59.5405 37.0471 59.1105 35.8646 58.788 37.0471C59.648 37.2621 60.6154 37.2621 61.6904 37.2621L61.7979 37.4771C61.4754 38.3371 61.0454 38.5521 59.9705 38.4446C58.358 38.2296 58.358 38.9821 59.7555 39.0896C60.8304 39.1971 61.6904 39.0896 62.1204 38.4446C62.6579 37.5846 62.8729 32.3171 62.9804 30.8121C62.5504 31.1346 61.7979 31.8871 61.1529 31.4571C60.8304 31.3496 60.5079 30.8121 60.1854 30.4896Z" fill="#f1f0e4" />
<path d="M53.413 12.1073C52.2305 12.7523 50.618 13.2898 48.5755 13.1823C45.9955 13.0748 42.1255 12.4298 40.2981 13.6123C39.4381 14.1498 38.7931 15.2247 38.4706 16.4072C38.3631 16.9447 38.4706 17.3748 38.3631 17.9123C37.8256 25.4372 38.2556 33.3921 38.2556 41.0246C40.5131 36.6171 46.748 39.3046 51.5855 37.7996C52.123 37.5846 53.0905 37.3696 53.413 36.9396C53.843 36.4021 53.5205 32.9621 53.5205 31.9946V11.9998C53.628 12.1073 53.413 12.1073 53.413 12.1073ZM22.5607 12.2148V31.9946C22.5607 32.9621 22.2382 36.4021 22.6682 37.0471C23.4207 38.3371 28.1507 38.5521 30.4081 38.3371C34.0631 38.0146 36.6431 38.5521 37.7181 40.9171V23.7172C37.7181 21.3522 38.0406 18.4497 37.6106 16.4072C37.3956 15.4397 36.8581 14.5798 36.2131 14.0423C33.8481 12.1073 29.2257 13.6123 25.4632 13.2898C24.3882 13.0748 23.4207 12.5373 22.5607 12.2148ZM60.9379 14.3648C61.0454 16.0848 61.0454 18.1273 60.8304 19.7397C61.1529 19.8472 61.4754 19.8472 62.0129 19.8472C62.4429 18.3422 62.2279 16.1923 62.4429 14.4723C61.5829 15.1173 61.6904 15.2248 60.9379 14.3648ZM15.2508 14.7948C14.3908 15.5472 14.7133 15.6548 13.7458 14.9023C13.9608 16.6223 13.8533 18.5573 14.1758 20.2772C14.6058 20.2772 15.0358 20.1697 15.3583 20.1697C15.3583 19.8472 15.2508 19.4173 15.2508 19.2023C15.1433 17.6973 15.2508 15.9772 15.2508 14.7948ZM58.8954 20.2772V21.5672C59.9704 21.6747 61.4754 21.9972 61.7979 21.1372C61.9054 20.9222 61.7979 20.8147 61.9054 20.5997C60.8304 20.5997 59.7554 20.4922 58.8954 20.2772ZM17.2932 20.3847C16.4333 20.5997 15.3583 20.7072 14.2833 20.8147C14.2833 20.8147 14.2833 21.1372 14.2833 21.2447C15.1433 22.1047 15.7883 21.9972 17.2932 21.7822V20.3847ZM15.2508 31.2421C14.4983 32.2096 14.7133 32.1021 13.7458 31.3496C13.9608 32.8546 13.9608 34.4671 14.1758 35.8646C14.4983 35.8646 15.0358 35.8646 15.3583 35.8646C15.3583 34.4671 15.2508 32.7471 15.2508 31.2421ZM60.8304 31.8871C60.7229 33.3921 60.7229 35.1121 60.7229 36.6171C61.0454 36.6171 61.5829 36.6171 61.9054 36.6171C62.1204 35.1121 62.2279 33.4996 62.3354 32.1022C61.3679 32.7471 61.5829 32.8546 60.8304 31.8871ZM17.2932 36.5096C16.4333 36.7246 15.4658 36.7246 14.3908 36.7246L14.2833 36.9396C14.6058 37.7996 15.0358 38.0146 16.1107 37.9071C16.5407 37.9071 16.8632 37.9071 17.0782 37.9071L17.2932 36.5096ZM58.7879 37.0471L58.8954 38.5521C59.1104 38.4446 59.4329 38.4446 59.9704 38.4446C61.0454 38.5521 61.4754 38.3371 61.7979 37.4771L61.6904 37.2621C60.6154 37.3696 59.5404 37.2621 58.7879 37.0471ZM35.3531 43.712C35.4606 44.142 35.4606 44.8945 35.7831 45.217C36.3206 46.077 39.2231 46.077 40.1906 45.5395C40.7281 45.217 40.7281 44.2495 40.9431 43.712C40.9431 43.712 40.5131 43.7121 40.6206 43.8195C39.2231 44.8945 36.7506 44.572 35.3531 43.712ZM67.2803 63.2769C52.768 72.3068 23.4207 72.4143 8.80081 63.3844C9.12331 65.4269 8.15581 70.9093 7.40332 72.4143C8.69331 72.7368 9.7683 73.4893 10.9508 73.9193C12.9933 74.6718 15.1433 75.4243 17.2932 76.0693C25.8932 78.5418 38.1481 79.5093 48.468 78.0043C53.198 77.3593 57.7129 76.2843 61.7979 74.7793C63.3029 74.2418 64.8079 73.5968 66.3129 73.0593C67.1728 72.7368 67.7103 72.1993 68.7853 72.0918C68.0328 70.5868 67.3878 65.5344 67.2803 63.2769Z" fill="white"/>
<path d="M54.3804 12.6448C54.7029 14.6873 54.4879 17.3748 54.4879 19.6323V32.6397C54.4879 34.2522 54.1654 36.2946 54.4879 37.9071C54.5954 38.6596 55.4554 39.5196 55.7779 40.0571C56.1004 40.5946 56.5304 41.0246 56.8529 41.4546C56.5304 38.6596 56.7454 35.3271 56.7454 32.3172V15.1173C55.6704 14.7948 55.0254 13.6123 54.3804 12.6448ZM21.9157 12.7523H21.8082C21.5932 12.8598 21.5932 13.3973 21.3782 13.6123C20.9482 14.3648 20.3032 14.9023 19.4432 15.3323V32.7472C19.4432 35.4346 19.6582 38.4446 19.3357 40.9171C19.3357 41.1321 19.2282 41.7771 19.4432 41.6696C19.7657 41.5621 21.7007 38.4446 21.8082 37.9071C22.1307 36.1871 21.8082 34.1447 21.8082 32.4247V18.9873C21.8082 17.0523 21.5932 14.7948 21.9157 12.9674C22.0232 13.0749 22.0232 12.8598 21.9157 12.7523ZM53.4129 38.0146C52.4454 38.5521 51.3705 38.9821 49.973 39.1971C46.533 39.5196 42.233 38.5521 40.083 40.0571C39.0081 40.8096 38.4706 42.0996 38.3631 43.4971C39.0081 43.2821 39.653 43.1746 40.1905 42.8521C40.4055 42.7446 40.728 42.3146 40.943 42.2071C41.6955 42.0996 42.9855 42.5296 44.0605 42.4221C46.103 42.3146 48.468 42.5296 50.7255 42.3146C52.2305 42.2071 54.7029 41.9921 56.1004 42.4221C55.3479 41.0246 54.2729 39.6271 53.4129 38.0146ZM22.6682 38.2296C21.9157 40.0571 20.8407 41.3471 19.7657 42.9596C20.7332 42.5296 22.3457 42.5296 23.8507 42.5296C27.1832 42.5296 31.0531 42.9596 34.2781 42.5296C34.3856 42.5296 34.9231 42.2071 35.0306 42.2071C35.1381 42.2071 35.5681 42.7446 35.6756 42.8521C36.2131 43.1746 36.9656 43.3896 37.6106 43.4971C37.5031 41.7771 36.8581 40.5946 35.5681 39.8421C33.3106 38.5521 29.0106 39.6271 25.7857 39.1971C24.7107 39.1971 23.7432 38.6596 22.6682 38.2296Z" fill="#f1f0e4" />
<path d="M24.6033 17.3748C23.4208 18.3422 23.6358 19.7398 24.8183 20.2772C24.4958 20.7072 23.9583 21.2447 23.8508 21.8897C23.7433 22.9647 24.1733 23.6097 23.7433 24.4697C23.7433 24.4697 23.7433 24.5772 23.8508 24.6847C24.0658 24.2547 24.6033 23.8247 24.7108 23.2872C24.8183 22.5347 24.4958 21.7822 24.7108 21.1372C24.8183 20.5997 25.3558 20.0622 25.6783 19.6322C26.7532 20.1697 28.6882 20.5997 28.0432 22.2122C27.9357 22.4272 27.8282 22.7497 27.6132 22.8572C27.0757 23.0722 26.0008 22.9647 25.3558 22.9647C25.1408 23.5022 25.0333 23.8247 24.9258 24.3622C25.0333 24.3622 25.4633 24.2547 25.4633 24.2547C27.6132 24.2547 27.7207 24.5772 28.3657 22.8572C28.5807 22.1047 29.1182 21.0297 29.0107 20.0622C28.7957 18.6647 26.5383 19.3097 26.6458 17.1597C26.0008 17.6972 25.6783 19.3097 24.7108 18.4497C24.4958 18.3422 24.4958 17.8048 24.6033 17.3748ZM29.8707 17.4822C29.6557 18.6647 29.4407 19.8472 30.6232 20.2772C30.3007 21.2447 30.4082 21.8897 30.5157 23.0722C29.1182 23.3947 29.3332 23.1797 29.0107 24.5772C32.2357 24.5772 31.4832 23.9322 30.9457 21.6747C30.6232 20.2772 31.2682 19.7397 32.7732 20.1697C33.5257 20.3847 33.2032 23.5022 33.2032 24.4697C33.8482 24.2547 33.9557 23.8247 34.2782 23.2872C33.5257 22.5347 34.0632 19.0947 33.3107 18.7722C31.6982 18.0197 30.4082 19.7397 29.8707 17.4822ZM51.478 17.4822C51.2631 17.8047 50.8331 18.1273 50.7256 18.4497C50.4031 19.7397 52.123 19.4172 51.1556 20.7072C49.7581 20.1697 48.2531 19.5248 48.3606 17.5898C48.0381 17.8048 47.8231 18.0198 47.7156 18.3423C47.2856 19.7398 48.1456 20.5997 49.0056 21.1372C48.7906 21.2447 48.5756 21.4597 48.3606 21.5672C47.8231 22.1047 47.9306 22.8572 48.0381 23.8247C47.9306 23.8247 47.6081 23.9322 47.5006 23.9322C47.3931 24.0397 47.5006 24.2547 47.3931 24.3622C48.3606 24.4697 49.6506 24.6847 49.4356 23.3947C49.3281 23.0722 48.8981 22.7497 48.8981 22.4272C48.7906 21.8897 49.0056 21.6747 49.2206 21.3522C50.5106 21.9972 52.338 22.6422 51.478 24.3622C51.908 24.2547 51.8005 24.4697 52.0155 24.1472C52.768 23.0722 52.8755 21.9972 51.8006 21.2447C51.6931 21.1372 51.3706 20.9222 51.3706 20.9222C52.0155 20.4922 52.8755 19.5248 52.123 18.6648C52.0155 18.5573 51.5855 18.3423 51.5855 18.1273C51.478 17.6973 51.8005 17.8047 51.478 17.4822ZM34.6007 17.5898C34.0632 18.8798 33.9557 20.3847 35.7832 20.2772C35.5682 21.5672 35.7832 23.1797 35.5682 24.4697C36.3207 24.3622 36.4282 23.8247 36.7507 23.1797C36.6432 23.0722 36.5357 23.0722 36.4282 22.9647C36.2132 22.5347 36.1057 20.9222 36.3207 20.2772C36.4282 19.9547 36.9657 19.9547 36.7507 19.2023C36.5357 18.4498 35.1382 18.9872 34.8157 18.2347C34.8157 18.1272 34.6007 17.5898 34.6007 17.5898ZM44.5981 17.5898C44.1681 18.7723 43.9531 20.4922 45.7806 20.1697C45.5656 21.0297 45.1356 26.0822 46.4256 23.7172C46.5331 23.6097 46.5331 23.5022 46.5331 23.2872L46.4256 22.9647C45.9956 22.2122 46.3181 21.0297 46.2106 20.0622C46.7481 19.8472 47.1781 19.5247 46.7481 18.7722C46.2106 18.2347 45.1356 19.3098 44.5981 17.5898ZM39.9756 17.9123C39.6531 18.3422 39.7606 18.7722 39.8681 19.4172C40.2981 21.2447 42.4481 19.6322 42.9856 20.7072C43.4156 21.5672 43.0931 23.3947 43.0931 24.4697C43.6306 24.3622 43.7381 24.0397 44.0606 23.5022C44.2756 23.5022 44.0606 23.2872 44.0606 23.2872C43.5231 22.5347 43.8456 19.5247 43.4156 19.0947C42.1256 18.0198 40.8356 19.8472 39.9756 17.9123ZM49.6506 27.0497C49.2206 27.8022 48.4681 28.6622 49.3281 29.5221C49.4356 29.6296 49.8656 29.9521 49.9731 30.1671C50.1881 30.5971 49.9731 31.7796 50.4031 30.7046C51.478 28.4472 49.9731 29.0921 49.7581 27.9097C49.6506 27.4797 49.9731 27.1572 49.6506 27.0497ZM33.3107 27.2647C31.4832 29.5222 33.8482 29.1997 33.5257 31.2421C33.7407 31.0271 33.9557 31.0271 34.1707 30.7046C35.1382 28.8772 33.2032 28.7697 33.3107 27.2647ZM43.7381 27.4797C43.3081 28.4472 42.8781 29.6296 44.1681 30.0596C43.4156 31.3496 43.5231 32.6396 43.3081 34.4671C44.7056 34.4671 46.5331 34.3596 48.0381 34.5746C48.1456 33.1771 48.5756 31.9946 48.3606 30.5971C48.0381 27.6947 46.3181 29.4147 44.1681 28.5547C43.7381 28.3397 43.9531 27.6947 43.7381 27.4797ZM27.3982 27.5872C26.8607 28.5547 26.6457 29.6297 27.8282 30.1671C26.9682 31.2421 27.0758 32.7471 26.9683 34.5746C28.3657 34.4671 30.1932 34.4671 31.5907 34.5746C31.6982 33.1771 32.1282 31.8871 31.9132 30.2747C31.4832 27.4797 27.6132 29.8447 27.3982 27.5872ZM10.8434 66.2869C10.5209 68.0069 10.0909 69.8343 9.66089 71.4468C9.87589 71.4468 10.0909 71.4468 10.3059 71.5543C10.8434 71.7693 11.5959 72.1993 12.1334 72.3068C12.1334 72.3068 12.4559 72.3068 12.3484 72.3068C12.4559 72.0918 12.8859 71.5543 12.9934 71.4468C13.1009 71.2318 10.6284 71.5543 10.7359 70.9093C11.0584 69.6193 11.4884 68.0069 11.7034 66.8244C11.4884 66.6094 11.1659 66.5019 10.8434 66.2869ZM65.3454 66.3944C64.3779 66.6094 63.088 66.6094 62.7655 67.5769C61.9055 69.7269 64.3779 69.2968 65.5604 70.0493C65.6679 70.1568 65.7754 70.2643 65.8829 70.3718C66.5279 72.3068 63.8405 71.2318 63.303 70.9093C63.4105 71.1243 63.4105 71.2318 63.4105 71.4468C63.518 71.6618 63.6255 71.9843 63.8405 72.1993C64.0554 72.6293 65.0229 72.3068 65.6679 72.0918C66.5279 71.7693 67.2804 71.0168 66.8504 69.8343C66.4204 68.8668 65.1304 68.9743 64.2704 68.5444C63.8405 68.3294 63.8405 67.8994 63.8405 67.8994C64.3779 66.2869 66.6354 68.8668 66.2054 67.7918C65.7754 67.4693 65.3454 66.5019 65.3454 66.3944ZM14.4983 67.8994C14.2833 69.0818 13.3159 71.3393 13.5309 72.5218C13.6384 72.9518 14.0683 73.2743 14.4983 73.4893C17.2933 74.7793 17.8308 71.0168 18.2608 69.1894C17.9383 69.0819 17.7233 69.0818 17.4008 68.9743C17.1858 70.3718 16.9708 73.8118 14.9283 72.9518C13.8534 72.5218 15.2508 69.1893 15.4658 68.3293C15.1433 68.1143 14.9283 68.0069 14.4983 67.8994ZM59.648 68.4368C59.433 68.4368 59.003 68.6518 58.788 68.7593C58.788 70.9093 58.358 72.5218 58.0355 74.3493C58.358 74.2418 58.6805 74.1343 59.003 74.0268C59.003 73.3818 59.1105 72.7368 59.218 72.1993C59.7555 71.9843 60.8305 71.6618 60.8305 71.6618C61.153 71.8768 61.4755 72.6293 61.6905 72.8443C61.9055 73.1668 62.013 73.0593 62.5505 72.8443C62.7655 72.7368 62.9805 72.7368 63.088 72.7368C62.443 71.8768 61.583 71.0168 61.0455 70.1568C60.723 69.7268 59.648 68.4368 59.648 68.4368ZM56.9605 69.4043C55.6705 69.9418 54.3805 70.2643 53.198 70.2643C53.198 70.4793 53.0905 70.9093 53.0905 71.1243C53.0905 71.4468 53.198 71.6618 53.198 71.6618C53.5205 71.1243 53.9505 70.8018 54.703 70.5868C55.2405 72.1993 55.4555 73.4893 55.778 74.9943C57.1755 74.5643 57.068 74.7793 56.853 74.3493C56.638 73.9193 55.778 70.2643 55.778 70.2643C56.208 70.1568 57.1755 70.4793 57.498 70.6943C57.498 70.6943 57.713 70.8018 57.8205 70.8018C57.713 70.4793 57.498 70.3718 57.6055 70.3718C57.1755 69.9418 57.068 69.7268 56.9605 69.4043ZM19.2283 69.4043C19.2283 69.2968 19.3358 69.7268 19.3358 69.7268C19.3358 70.0493 19.5508 70.3718 19.6583 70.6943C19.8733 71.1243 19.9808 71.5543 20.0883 72.1993C19.3358 72.8443 18.4758 73.4893 17.6158 74.0268C18.3683 74.2418 18.6908 74.7793 19.1208 73.9193C20.4108 71.8768 20.5183 73.4893 20.9483 75.1018C21.4858 75.2093 21.8083 75.2093 22.2383 75.3168C21.8083 74.2418 21.3783 73.2743 21.1633 71.9843C21.9158 71.4468 22.5608 71.0168 23.3133 70.4793C22.5608 70.3718 22.3458 70.0493 21.9158 70.5868C20.6258 72.0918 20.8408 71.7693 20.4108 69.8343C20.0883 69.7268 19.6583 69.5118 19.2283 69.4043ZM52.2305 70.4793C52.0156 70.4793 51.9081 70.4793 51.6931 70.4793C51.5856 70.4793 51.263 70.6943 51.0481 70.6943C51.478 72.3068 51.5856 74.0268 51.8006 75.8543L52.123 75.7468C52.338 75.7468 52.768 75.5318 52.983 75.4243C52.768 74.0268 52.338 72.1993 52.2305 70.4793ZM25.8933 70.8018C25.6783 72.4143 25.2483 74.3493 24.9258 75.9618C25.7858 75.9618 27.0757 76.0693 27.7207 76.2843C28.5807 76.4993 28.5807 76.3918 28.9032 75.6393C28.9032 75.5318 29.0107 75.4243 29.0107 75.2093C28.2582 75.5318 27.1832 75.6393 26.1083 75.5318C26.5383 73.4893 26.0008 73.3818 27.8282 74.1343C27.8282 74.0268 27.7207 73.8118 27.7207 73.8118C27.7207 73.7043 27.6132 73.3818 27.6132 73.3818V73.1668C27.1832 73.2743 26.8607 73.2743 26.3233 73.1668C26.4307 72.4143 26.5383 71.5543 26.6458 71.5543C26.9682 71.6618 27.7207 71.8768 28.0432 72.0918C28.3657 72.3068 28.5807 72.5218 28.7957 72.7368C28.7957 72.6293 28.6882 72.3068 28.6882 72.3068C28.6882 71.9843 28.5807 71.5543 28.4732 71.2318C27.6132 71.1243 26.7533 71.0168 25.8933 70.8018ZM48.3606 71.0168C48.2531 71.0168 48.1456 71.0168 48.0381 71.0168C47.2856 71.1243 46.5331 71.4468 45.7806 71.4468C45.8881 71.8768 45.9956 72.4143 45.9956 72.8443C46.1031 74.0268 46.1031 75.3168 46.2106 76.4993C46.5331 76.4993 46.9631 76.3918 47.3931 76.2843C47.2856 75.5318 47.1781 74.6718 47.1781 74.0268C47.5006 74.0268 47.7156 74.0268 48.0381 73.9193C48.7906 75.1018 49.8656 76.2843 51.478 76.0693L51.5855 75.8543C50.5106 75.2093 49.5431 74.3493 48.8981 73.2743C49.3281 72.7368 50.0806 71.1243 48.3606 71.0168ZM30.0857 71.3393C29.9782 71.5543 29.7632 71.8768 29.6557 72.0918C29.5482 72.4143 29.6557 72.7368 29.6557 72.7368C30.1932 72.3068 30.6232 72.1993 31.4832 72.1993C31.4832 73.9193 31.2682 75.2093 31.0532 76.7143C32.5582 76.7143 32.3432 76.9293 32.2357 76.4993C32.1282 75.9618 32.4507 72.3068 32.5582 72.3068C32.9882 72.3068 33.8482 72.9518 34.0632 73.1668L34.2782 73.2743C34.2782 72.9518 34.1707 72.8443 34.1707 72.7368C34.0632 72.3068 34.0632 72.0918 34.0632 71.6618C32.5582 71.8768 31.2682 71.6618 30.0857 71.3393ZM44.0606 71.5543C43.3081 71.5543 42.5556 71.7693 41.5881 71.7693C41.8031 73.3818 41.6956 75.2093 41.6956 76.9293C42.7706 76.8218 43.8456 76.7143 45.1356 76.7143C45.5656 75.6393 45.9956 75.5318 44.8131 75.8543C42.7706 76.4993 42.6631 76.4993 42.7706 74.3493C44.9206 74.5643 44.3831 74.7793 44.2756 73.3818C43.8456 73.5968 43.5231 73.7043 42.8781 73.7043C42.8781 73.4893 42.7706 72.1993 42.7706 72.1993C43.9531 72.1993 44.4906 72.4143 45.1356 72.8443C45.0281 72.5218 45.0281 72.3068 44.9206 71.8768C44.5981 71.6618 44.4906 71.5543 44.0606 71.5543ZM36.1057 71.7693C36.1057 71.7693 36.2132 72.1993 36.3207 72.3068C36.9657 73.4893 37.2882 74.8868 37.9332 76.1768C38.2557 76.9293 38.4707 77.7893 39.0082 76.6068C39.3306 75.9618 39.4381 75.3168 39.6531 74.6718C39.9756 73.5968 40.4056 72.6293 40.9431 71.6618C40.5131 71.6618 40.0831 71.6618 39.7606 71.7693C39.5456 73.0593 39.2232 74.1343 38.7932 75.2093C38.1482 74.1343 37.7182 72.9518 37.2882 71.6618C36.7507 71.8768 36.6432 71.8768 36.1057 71.7693Z" fill="#f1f0e4" />
<path d="M28.2581 30.1672C27.8281 31.0272 27.7206 32.1021 27.8281 33.3921C28.9031 33.1771 30.3006 33.1771 31.2681 33.3921C31.1606 30.1672 31.5906 30.5972 28.2581 30.1672ZM44.4904 30.1672C44.2754 30.9197 44.168 31.6722 44.168 32.6397C44.168 32.9622 44.168 33.0696 44.168 33.2846C45.1354 32.9621 46.6404 32.9621 47.6079 33.2846C47.6079 30.2747 47.5004 30.1672 44.4904 30.1672ZM59.4328 69.5118C59.4328 70.1568 59.4328 70.6944 59.3253 71.3393L60.5078 71.0168L59.4328 69.5118ZM47.7154 71.6618C47.5004 71.6618 47.2854 71.6618 46.9629 71.7693C46.9629 71.7693 47.0704 73.5968 47.1779 73.5968C48.2529 73.4893 49.1129 71.7693 47.7154 71.6618Z" fill="white"/>
</g>
<defs>
<clipPath id="clip0_117_263">
<rect width="215.315" height="80" fill="white"/>
</clipPath>
</defs>
</svg>
